<?xml version="1.0" encoding="utf-8" standalone="no"?>
<!DOCTYPE svg PUBLIC "-//W3C//DTD SVG 1.1//EN"
  "http://www.w3.org/Graphics/SVG/1.1/DTD/svg11.dtd">
<svg height="533.666719pt" version="1.1" viewBox="0 0 663.259375 533.666719" width="663.259375pt" xmlns="http://www.w3.org/2000/svg" xmlns:xlink="http://www.w3.org/1999/xlink">
 <metadata>
  <rdf:RDF xmlns:cc="http://creativecommons.org/ns#" xmlns:dc="http://purl.org/dc/elements/1.1/" xmlns:rdf="http://www.w3.org/1999/02/22-rdf-syntax-ns#">
   <cc:Work>
    <dc:type rdf:resource="http://purl.org/dc/dcmitype/StillImage"/>
    <dc:date>2022-03-21T19:22:32.310167</dc:date>
    <dc:format>image/svg+xml</dc:format>
    <dc:creator>
     <cc:Agent>
      <dc:title>Matplotlib v3.4.3, https://matplotlib.org/</dc:title>
     </cc:Agent>
    </dc:creator>
   </cc:Work>
  </rdf:RDF>
 </metadata>
 <defs>
  <style type="text/css">*{stroke-linecap:butt;stroke-linejoin:round;}</style>
 </defs>
 <g id="figure_1">
  <g id="axes_1">
   <g id="patch_1">
    <path d="M 98.059375 467.076094 
L 656.059375 467.076094 
L 656.059375 32.196094 
L 98.059375 32.196094 
z
" style="fill:#ffffff;"/>
   </g>
   <g id="patch_2">
    <path clip-path="url(#peb2c6fac1b)" d="M 123.423011 467.076094 
L 133.980772 467.076094 
L 133.980772 441.803081 
L 123.423011 441.803081 
z
" style="fill:#0000ff;fill-opacity:0.5;stroke:#000000;stroke-linejoin:miter;"/>
   </g>
   <g id="patch_3">
    <path clip-path="url(#peb2c6fac1b)" d="M 133.980772 467.076094 
L 144.538532 467.076094 
L 144.538532 458.651756 
L 133.980772 458.651756 
z
" style="fill:#0000ff;fill-opacity:0.5;stroke:#000000;stroke-linejoin:miter;"/>
   </g>
   <g id="patch_4">
    <path clip-path="url(#peb2c6fac1b)" d="M 144.538532 467.076094 
L 155.096292 467.076094 
L 155.096292 467.076094 
L 144.538532 467.076094 
z
" style="fill:#0000ff;fill-opacity:0.5;stroke:#000000;stroke-linejoin:miter;"/>
   </g>
   <g id="patch_5">
    <path clip-path="url(#peb2c6fac1b)" d="M 155.096292 467.076094 
L 165.654053 467.076094 
L 165.654053 458.651756 
L 155.096292 458.651756 
z
" style="fill:#0000ff;fill-opacity:0.5;stroke:#000000;stroke-linejoin:miter;"/>
   </g>
   <g id="patch_6">
    <path clip-path="url(#peb2c6fac1b)" d="M 165.654053 467.076094 
L 176.211813 467.076094 
L 176.211813 458.651756 
L 165.654053 458.651756 
z
" style="fill:#0000ff;fill-opacity:0.5;stroke:#000000;stroke-linejoin:miter;"/>
   </g>
   <g id="patch_7">
    <path clip-path="url(#peb2c6fac1b)" d="M 176.211813 467.076094 
L 186.769573 467.076094 
L 186.769573 433.378744 
L 176.211813 433.378744 
z
" style="fill:#0000ff;fill-opacity:0.5;stroke:#000000;stroke-linejoin:miter;"/>
   </g>
   <g id="patch_8">
    <path clip-path="url(#peb2c6fac1b)" d="M 186.769573 467.076094 
L 197.327333 467.076094 
L 197.327333 450.227419 
L 186.769573 450.227419 
z
" style="fill:#0000ff;fill-opacity:0.5;stroke:#000000;stroke-linejoin:miter;"/>
   </g>
   <g id="patch_9">
    <path clip-path="url(#peb2c6fac1b)" d="M 197.327333 467.076094 
L 207.885094 467.076094 
L 207.885094 458.651756 
L 197.327333 458.651756 
z
" style="fill:#0000ff;fill-opacity:0.5;stroke:#000000;stroke-linejoin:miter;"/>
   </g>
   <g id="patch_10">
    <path clip-path="url(#peb2c6fac1b)" d="M 207.885094 467.076094 
L 218.442854 467.076094 
L 218.442854 450.227419 
L 207.885094 450.227419 
z
" style="fill:#0000ff;fill-opacity:0.5;stroke:#000000;stroke-linejoin:miter;"/>
   </g>
   <g id="patch_11">
    <path clip-path="url(#peb2c6fac1b)" d="M 218.442854 467.076094 
L 229.000614 467.076094 
L 229.000614 458.651756 
L 218.442854 458.651756 
z
" style="fill:#0000ff;fill-opacity:0.5;stroke:#000000;stroke-linejoin:miter;"/>
   </g>
   <g id="patch_12">
    <path clip-path="url(#peb2c6fac1b)" d="M 229.000614 467.076094 
L 239.558375 467.076094 
L 239.558375 424.954407 
L 229.000614 424.954407 
z
" style="fill:#0000ff;fill-opacity:0.5;stroke:#000000;stroke-linejoin:miter;"/>
   </g>
   <g id="patch_13">
    <path clip-path="url(#peb2c6fac1b)" d="M 239.558375 467.076094 
L 250.116135 467.076094 
L 250.116135 391.257057 
L 239.558375 391.257057 
z
" style="fill:#0000ff;fill-opacity:0.5;stroke:#000000;stroke-linejoin:miter;"/>
   </g>
   <g id="patch_14">
    <path clip-path="url(#peb2c6fac1b)" d="M 250.116135 467.076094 
L 260.673895 467.076094 
L 260.673895 433.378744 
L 250.116135 433.378744 
z
" style="fill:#0000ff;fill-opacity:0.5;stroke:#000000;stroke-linejoin:miter;"/>
   </g>
   <g id="patch_15">
    <path clip-path="url(#peb2c6fac1b)" d="M 260.673895 467.076094 
L 271.231656 467.076094 
L 271.231656 424.954407 
L 260.673895 424.954407 
z
" style="fill:#0000ff;fill-opacity:0.5;stroke:#000000;stroke-linejoin:miter;"/>
   </g>
   <g id="patch_16">
    <path clip-path="url(#peb2c6fac1b)" d="M 271.231656 467.076094 
L 281.789416 467.076094 
L 281.789416 416.530069 
L 271.231656 416.530069 
z
" style="fill:#0000ff;fill-opacity:0.5;stroke:#000000;stroke-linejoin:miter;"/>
   </g>
   <g id="patch_17">
    <path clip-path="url(#peb2c6fac1b)" d="M 281.789416 467.076094 
L 292.347176 467.076094 
L 292.347176 433.378744 
L 281.789416 433.378744 
z
" style="fill:#0000ff;fill-opacity:0.5;stroke:#000000;stroke-linejoin:miter;"/>
   </g>
   <g id="patch_18">
    <path clip-path="url(#peb2c6fac1b)" d="M 292.347176 467.076094 
L 302.904936 467.076094 
L 302.904936 416.530069 
L 292.347176 416.530069 
z
" style="fill:#0000ff;fill-opacity:0.5;stroke:#000000;stroke-linejoin:miter;"/>
   </g>
   <g id="patch_19">
    <path clip-path="url(#peb2c6fac1b)" d="M 302.904936 467.076094 
L 313.462697 467.076094 
L 313.462697 357.559707 
L 302.904936 357.559707 
z
" style="fill:#0000ff;fill-opacity:0.5;stroke:#000000;stroke-linejoin:miter;"/>
   </g>
   <g id="patch_20">
    <path clip-path="url(#peb2c6fac1b)" d="M 313.462697 467.076094 
L 324.020457 467.076094 
L 324.020457 307.013682 
L 313.462697 307.013682 
z
" style="fill:#0000ff;fill-opacity:0.5;stroke:#000000;stroke-linejoin:miter;"/>
   </g>
   <g id="patch_21">
    <path clip-path="url(#peb2c6fac1b)" d="M 324.020457 467.076094 
L 334.578217 467.076094 
L 334.578217 323.862357 
L 324.020457 323.862357 
z
" style="fill:#0000ff;fill-opacity:0.5;stroke:#000000;stroke-linejoin:miter;"/>
   </g>
   <g id="patch_22">
    <path clip-path="url(#peb2c6fac1b)" d="M 334.578217 467.076094 
L 345.135978 467.076094 
L 345.135978 290.165007 
L 334.578217 290.165007 
z
" style="fill:#0000ff;fill-opacity:0.5;stroke:#000000;stroke-linejoin:miter;"/>
   </g>
   <g id="patch_23">
    <path clip-path="url(#peb2c6fac1b)" d="M 345.135978 467.076094 
L 355.693738 467.076094 
L 355.693738 298.589345 
L 345.135978 298.589345 
z
" style="fill:#0000ff;fill-opacity:0.5;stroke:#000000;stroke-linejoin:miter;"/>
   </g>
   <g id="patch_24">
    <path clip-path="url(#peb2c6fac1b)" d="M 355.693738 467.076094 
L 366.251498 467.076094 
L 366.251498 349.13537 
L 355.693738 349.13537 
z
" style="fill:#0000ff;fill-opacity:0.5;stroke:#000000;stroke-linejoin:miter;"/>
   </g>
   <g id="patch_25">
    <path clip-path="url(#peb2c6fac1b)" d="M 366.251498 467.076094 
L 376.809259 467.076094 
L 376.809259 298.589345 
L 366.251498 298.589345 
z
" style="fill:#0000ff;fill-opacity:0.5;stroke:#000000;stroke-linejoin:miter;"/>
   </g>
   <g id="patch_26">
    <path clip-path="url(#peb2c6fac1b)" d="M 376.809259 467.076094 
L 387.367019 467.076094 
L 387.367019 264.891995 
L 376.809259 264.891995 
z
" style="fill:#0000ff;fill-opacity:0.5;stroke:#000000;stroke-linejoin:miter;"/>
   </g>
   <g id="patch_27">
    <path clip-path="url(#peb2c6fac1b)" d="M 387.367019 467.076094 
L 397.924779 467.076094 
L 397.924779 222.770308 
L 387.367019 222.770308 
z
" style="fill:#0000ff;fill-opacity:0.5;stroke:#000000;stroke-linejoin:miter;"/>
   </g>
   <g id="patch_28">
    <path clip-path="url(#peb2c6fac1b)" d="M 397.924779 467.076094 
L 408.482539 467.076094 
L 408.482539 155.375608 
L 397.924779 155.375608 
z
" style="fill:#0000ff;fill-opacity:0.5;stroke:#000000;stroke-linejoin:miter;"/>
   </g>
   <g id="patch_29">
    <path clip-path="url(#peb2c6fac1b)" d="M 408.482539 467.076094 
L 419.0403 467.076094 
L 419.0403 222.770308 
L 408.482539 222.770308 
z
" style="fill:#0000ff;fill-opacity:0.5;stroke:#000000;stroke-linejoin:miter;"/>
   </g>
   <g id="patch_30">
    <path clip-path="url(#peb2c6fac1b)" d="M 419.0403 467.076094 
L 429.59806 467.076094 
L 429.59806 231.194645 
L 419.0403 231.194645 
z
" style="fill:#0000ff;fill-opacity:0.5;stroke:#000000;stroke-linejoin:miter;"/>
   </g>
   <g id="patch_31">
    <path clip-path="url(#peb2c6fac1b)" d="M 429.59806 467.076094 
L 440.15582 467.076094 
L 440.15582 222.770308 
L 429.59806 222.770308 
z
" style="fill:#0000ff;fill-opacity:0.5;stroke:#000000;stroke-linejoin:miter;"/>
   </g>
   <g id="patch_32">
    <path clip-path="url(#peb2c6fac1b)" d="M 440.15582 467.076094 
L 450.713581 467.076094 
L 450.713581 239.618983 
L 440.15582 239.618983 
z
" style="fill:#0000ff;fill-opacity:0.5;stroke:#000000;stroke-linejoin:miter;"/>
   </g>
   <g id="patch_33">
    <path clip-path="url(#peb2c6fac1b)" d="M 450.713581 467.076094 
L 461.271341 467.076094 
L 461.271341 239.618983 
L 450.713581 239.618983 
z
" style="fill:#0000ff;fill-opacity:0.5;stroke:#000000;stroke-linejoin:miter;"/>
   </g>
   <g id="patch_34">
    <path clip-path="url(#peb2c6fac1b)" d="M 461.271341 467.076094 
L 471.829101 467.076094 
L 471.829101 239.618983 
L 461.271341 239.618983 
z
" style="fill:#0000ff;fill-opacity:0.5;stroke:#000000;stroke-linejoin:miter;"/>
   </g>
   <g id="patch_35">
    <path clip-path="url(#peb2c6fac1b)" d="M 471.829101 467.076094 
L 482.386862 467.076094 
L 482.386862 273.316333 
L 471.829101 273.316333 
z
" style="fill:#0000ff;fill-opacity:0.5;stroke:#000000;stroke-linejoin:miter;"/>
   </g>
   <g id="patch_36">
    <path clip-path="url(#peb2c6fac1b)" d="M 482.386862 467.076094 
L 492.944622 467.076094 
L 492.944622 163.799946 
L 482.386862 163.799946 
z
" style="fill:#0000ff;fill-opacity:0.5;stroke:#000000;stroke-linejoin:miter;"/>
   </g>
   <g id="patch_37">
    <path clip-path="url(#peb2c6fac1b)" d="M 492.944622 467.076094 
L 503.502382 467.076094 
L 503.502382 155.375608 
L 492.944622 155.375608 
z
" style="fill:#0000ff;fill-opacity:0.5;stroke:#000000;stroke-linejoin:miter;"/>
   </g>
   <g id="patch_38">
    <path clip-path="url(#peb2c6fac1b)" d="M 503.502382 467.076094 
L 514.060142 467.076094 
L 514.060142 239.618983 
L 503.502382 239.618983 
z
" style="fill:#0000ff;fill-opacity:0.5;stroke:#000000;stroke-linejoin:miter;"/>
   </g>
   <g id="patch_39">
    <path clip-path="url(#peb2c6fac1b)" d="M 514.060142 467.076094 
L 524.617903 467.076094 
L 524.617903 256.467658 
L 514.060142 256.467658 
z
" style="fill:#0000ff;fill-opacity:0.5;stroke:#000000;stroke-linejoin:miter;"/>
   </g>
   <g id="patch_40">
    <path clip-path="url(#peb2c6fac1b)" d="M 524.617903 467.076094 
L 535.175663 467.076094 
L 535.175663 180.648621 
L 524.617903 180.648621 
z
" style="fill:#0000ff;fill-opacity:0.5;stroke:#000000;stroke-linejoin:miter;"/>
   </g>
   <g id="patch_41">
    <path clip-path="url(#peb2c6fac1b)" d="M 535.175663 467.076094 
L 545.733423 467.076094 
L 545.733423 315.43802 
L 535.175663 315.43802 
z
" style="fill:#0000ff;fill-opacity:0.5;stroke:#000000;stroke-linejoin:miter;"/>
   </g>
   <g id="patch_42">
    <path clip-path="url(#peb2c6fac1b)" d="M 545.733423 467.076094 
L 556.291184 467.076094 
L 556.291184 273.316333 
L 545.733423 273.316333 
z
" style="fill:#0000ff;fill-opacity:0.5;stroke:#000000;stroke-linejoin:miter;"/>
   </g>
   <g id="patch_43">
    <path clip-path="url(#peb2c6fac1b)" d="M 556.291184 467.076094 
L 566.848944 467.076094 
L 566.848944 214.345971 
L 556.291184 214.345971 
z
" style="fill:#0000ff;fill-opacity:0.5;stroke:#000000;stroke-linejoin:miter;"/>
   </g>
   <g id="patch_44">
    <path clip-path="url(#peb2c6fac1b)" d="M 566.848944 467.076094 
L 577.406704 467.076094 
L 577.406704 155.375608 
L 566.848944 155.375608 
z
" style="fill:#0000ff;fill-opacity:0.5;stroke:#000000;stroke-linejoin:miter;"/>
   </g>
   <g id="patch_45">
    <path clip-path="url(#peb2c6fac1b)" d="M 577.406704 467.076094 
L 587.964465 467.076094 
L 587.964465 205.921633 
L 577.406704 205.921633 
z
" style="fill:#0000ff;fill-opacity:0.5;stroke:#000000;stroke-linejoin:miter;"/>
   </g>
   <g id="patch_46">
    <path clip-path="url(#peb2c6fac1b)" d="M 587.964465 467.076094 
L 598.522225 467.076094 
L 598.522225 315.43802 
L 587.964465 315.43802 
z
" style="fill:#0000ff;fill-opacity:0.5;stroke:#000000;stroke-linejoin:miter;"/>
   </g>
   <g id="patch_47">
    <path clip-path="url(#peb2c6fac1b)" d="M 598.522225 467.076094 
L 609.079985 467.076094 
L 609.079985 290.165007 
L 598.522225 290.165007 
z
" style="fill:#0000ff;fill-opacity:0.5;stroke:#000000;stroke-linejoin:miter;"/>
   </g>
   <g id="patch_48">
    <path clip-path="url(#peb2c6fac1b)" d="M 609.079985 467.076094 
L 619.637745 467.076094 
L 619.637745 332.286695 
L 609.079985 332.286695 
z
" style="fill:#0000ff;fill-opacity:0.5;stroke:#000000;stroke-linejoin:miter;"/>
   </g>
   <g id="patch_49">
    <path clip-path="url(#peb2c6fac1b)" d="M 619.637745 467.076094 
L 630.195506 467.076094 
L 630.195506 374.408382 
L 619.637745 374.408382 
z
" style="fill:#0000ff;fill-opacity:0.5;stroke:#000000;stroke-linejoin:miter;"/>
   </g>
   <g id="patch_50">
    <path clip-path="url(#peb2c6fac1b)" d="M 197.827566 467.076094 
L 208.385327 467.076094 
L 208.385327 450.509237 
L 197.827566 450.509237 
z
" style="fill:#ff0000;fill-opacity:0.5;stroke:#000000;stroke-linejoin:miter;"/>
   </g>
   <g id="patch_51">
    <path clip-path="url(#peb2c6fac1b)" d="M 208.385327 467.076094 
L 218.943087 467.076094 
L 218.943087 467.076094 
L 208.385327 467.076094 
z
" style="fill:#ff0000;fill-opacity:0.5;stroke:#000000;stroke-linejoin:miter;"/>
   </g>
   <g id="patch_52">
    <path clip-path="url(#peb2c6fac1b)" d="M 218.943087 467.076094 
L 229.500847 467.076094 
L 229.500847 467.076094 
L 218.943087 467.076094 
z
" style="fill:#ff0000;fill-opacity:0.5;stroke:#000000;stroke-linejoin:miter;"/>
   </g>
   <g id="patch_53">
    <path clip-path="url(#peb2c6fac1b)" d="M 229.500847 467.076094 
L 240.058608 467.076094 
L 240.058608 458.792665 
L 229.500847 458.792665 
z
" style="fill:#ff0000;fill-opacity:0.5;stroke:#000000;stroke-linejoin:miter;"/>
   </g>
   <g id="patch_54">
    <path clip-path="url(#peb2c6fac1b)" d="M 240.058608 467.076094 
L 250.616368 467.076094 
L 250.616368 450.509237 
L 240.058608 450.509237 
z
" style="fill:#ff0000;fill-opacity:0.5;stroke:#000000;stroke-linejoin:miter;"/>
   </g>
   <g id="patch_55">
    <path clip-path="url(#peb2c6fac1b)" d="M 250.616368 467.076094 
L 261.174128 467.076094 
L 261.174128 442.225808 
L 250.616368 442.225808 
z
" style="fill:#ff0000;fill-opacity:0.5;stroke:#000000;stroke-linejoin:miter;"/>
   </g>
   <g id="patch_56">
    <path clip-path="url(#peb2c6fac1b)" d="M 261.174128 467.076094 
L 271.731888 467.076094 
L 271.731888 458.792665 
L 261.174128 458.792665 
z
" style="fill:#ff0000;fill-opacity:0.5;stroke:#000000;stroke-linejoin:miter;"/>
   </g>
   <g id="patch_57">
    <path clip-path="url(#peb2c6fac1b)" d="M 271.731888 467.076094 
L 282.289649 467.076094 
L 282.289649 458.792665 
L 271.731888 458.792665 
z
" style="fill:#ff0000;fill-opacity:0.5;stroke:#000000;stroke-linejoin:miter;"/>
   </g>
   <g id="patch_58">
    <path clip-path="url(#peb2c6fac1b)" d="M 282.289649 467.076094 
L 292.847409 467.076094 
L 292.847409 450.509237 
L 282.289649 450.509237 
z
" style="fill:#ff0000;fill-opacity:0.5;stroke:#000000;stroke-linejoin:miter;"/>
   </g>
   <g id="patch_59">
    <path clip-path="url(#peb2c6fac1b)" d="M 292.847409 467.076094 
L 303.405169 467.076094 
L 303.405169 450.509237 
L 292.847409 450.509237 
z
" style="fill:#ff0000;fill-opacity:0.5;stroke:#000000;stroke-linejoin:miter;"/>
   </g>
   <g id="patch_60">
    <path clip-path="url(#peb2c6fac1b)" d="M 303.405169 467.076094 
L 313.96293 467.076094 
L 313.96293 442.225808 
L 303.405169 442.225808 
z
" style="fill:#ff0000;fill-opacity:0.5;stroke:#000000;stroke-linejoin:miter;"/>
   </g>
   <g id="patch_61">
    <path clip-path="url(#peb2c6fac1b)" d="M 313.96293 467.076094 
L 324.52069 467.076094 
L 324.52069 367.674951 
L 313.96293 367.674951 
z
" style="fill:#ff0000;fill-opacity:0.5;stroke:#000000;stroke-linejoin:miter;"/>
   </g>
   <g id="patch_62">
    <path clip-path="url(#peb2c6fac1b)" d="M 324.52069 467.076094 
L 335.07845 467.076094 
L 335.07845 301.407522 
L 324.52069 301.407522 
z
" style="fill:#ff0000;fill-opacity:0.5;stroke:#000000;stroke-linejoin:miter;"/>
   </g>
   <g id="patch_63">
    <path clip-path="url(#peb2c6fac1b)" d="M 335.07845 467.076094 
L 345.636211 467.076094 
L 345.636211 268.273808 
L 335.07845 268.273808 
z
" style="fill:#ff0000;fill-opacity:0.5;stroke:#000000;stroke-linejoin:miter;"/>
   </g>
   <g id="patch_64">
    <path clip-path="url(#peb2c6fac1b)" d="M 345.636211 467.076094 
L 356.193971 467.076094 
L 356.193971 334.541237 
L 345.636211 334.541237 
z
" style="fill:#ff0000;fill-opacity:0.5;stroke:#000000;stroke-linejoin:miter;"/>
   </g>
   <g id="patch_65">
    <path clip-path="url(#peb2c6fac1b)" d="M 356.193971 467.076094 
L 366.751731 467.076094 
L 366.751731 334.541237 
L 356.193971 334.541237 
z
" style="fill:#ff0000;fill-opacity:0.5;stroke:#000000;stroke-linejoin:miter;"/>
   </g>
   <g id="patch_66">
    <path clip-path="url(#peb2c6fac1b)" d="M 366.751731 467.076094 
L 377.309491 467.076094 
L 377.309491 342.824665 
L 366.751731 342.824665 
z
" style="fill:#ff0000;fill-opacity:0.5;stroke:#000000;stroke-linejoin:miter;"/>
   </g>
   <g id="patch_67">
    <path clip-path="url(#peb2c6fac1b)" d="M 377.309491 467.076094 
L 387.867252 467.076094 
L 387.867252 409.092094 
L 377.309491 409.092094 
z
" style="fill:#ff0000;fill-opacity:0.5;stroke:#000000;stroke-linejoin:miter;"/>
   </g>
   <g id="patch_68">
    <path clip-path="url(#peb2c6fac1b)" d="M 387.867252 467.076094 
L 398.425012 467.076094 
L 398.425012 276.557237 
L 387.867252 276.557237 
z
" style="fill:#ff0000;fill-opacity:0.5;stroke:#000000;stroke-linejoin:miter;"/>
   </g>
   <g id="patch_69">
    <path clip-path="url(#peb2c6fac1b)" d="M 398.425012 467.076094 
L 408.982772 467.076094 
L 408.982772 251.706951 
L 398.425012 251.706951 
z
" style="fill:#ff0000;fill-opacity:0.5;stroke:#000000;stroke-linejoin:miter;"/>
   </g>
   <g id="patch_70">
    <path clip-path="url(#peb2c6fac1b)" d="M 408.982772 467.076094 
L 419.540533 467.076094 
L 419.540533 193.722951 
L 408.982772 193.722951 
z
" style="fill:#ff0000;fill-opacity:0.5;stroke:#000000;stroke-linejoin:miter;"/>
   </g>
   <g id="patch_71">
    <path clip-path="url(#peb2c6fac1b)" d="M 419.540533 467.076094 
L 430.098293 467.076094 
L 430.098293 160.589237 
L 419.540533 160.589237 
z
" style="fill:#ff0000;fill-opacity:0.5;stroke:#000000;stroke-linejoin:miter;"/>
   </g>
   <g id="patch_72">
    <path clip-path="url(#peb2c6fac1b)" d="M 430.098293 467.076094 
L 440.656053 467.076094 
L 440.656053 193.722951 
L 430.098293 193.722951 
z
" style="fill:#ff0000;fill-opacity:0.5;stroke:#000000;stroke-linejoin:miter;"/>
   </g>
   <g id="patch_73">
    <path clip-path="url(#peb2c6fac1b)" d="M 440.656053 467.076094 
L 451.213814 467.076094 
L 451.213814 127.455522 
L 440.656053 127.455522 
z
" style="fill:#ff0000;fill-opacity:0.5;stroke:#000000;stroke-linejoin:miter;"/>
   </g>
   <g id="patch_74">
    <path clip-path="url(#peb2c6fac1b)" d="M 451.213814 467.076094 
L 461.771574 467.076094 
L 461.771574 144.022379 
L 451.213814 144.022379 
z
" style="fill:#ff0000;fill-opacity:0.5;stroke:#000000;stroke-linejoin:miter;"/>
   </g>
   <g id="patch_75">
    <path clip-path="url(#peb2c6fac1b)" d="M 461.771574 467.076094 
L 472.329334 467.076094 
L 472.329334 235.140094 
L 461.771574 235.140094 
z
" style="fill:#ff0000;fill-opacity:0.5;stroke:#000000;stroke-linejoin:miter;"/>
   </g>
   <g id="patch_76">
    <path clip-path="url(#peb2c6fac1b)" d="M 472.329334 467.076094 
L 482.887094 467.076094 
L 482.887094 202.006379 
L 472.329334 202.006379 
z
" style="fill:#ff0000;fill-opacity:0.5;stroke:#000000;stroke-linejoin:miter;"/>
   </g>
   <g id="patch_77">
    <path clip-path="url(#peb2c6fac1b)" d="M 482.887094 467.076094 
L 493.444855 467.076094 
L 493.444855 52.904665 
L 482.887094 52.904665 
z
" style="fill:#ff0000;fill-opacity:0.5;stroke:#000000;stroke-linejoin:miter;"/>
   </g>
   <g id="patch_78">
    <path clip-path="url(#peb2c6fac1b)" d="M 493.444855 467.076094 
L 504.002615 467.076094 
L 504.002615 235.140094 
L 493.444855 235.140094 
z
" style="fill:#ff0000;fill-opacity:0.5;stroke:#000000;stroke-linejoin:miter;"/>
   </g>
   <g id="patch_79">
    <path clip-path="url(#peb2c6fac1b)" d="M 504.002615 467.076094 
L 514.560375 467.076094 
L 514.560375 94.321808 
L 504.002615 94.321808 
z
" style="fill:#ff0000;fill-opacity:0.5;stroke:#000000;stroke-linejoin:miter;"/>
   </g>
   <g id="patch_80">
    <path clip-path="url(#peb2c6fac1b)" d="M 514.560375 467.076094 
L 525.118136 467.076094 
L 525.118136 168.872665 
L 514.560375 168.872665 
z
" style="fill:#ff0000;fill-opacity:0.5;stroke:#000000;stroke-linejoin:miter;"/>
   </g>
   <g id="patch_81">
    <path clip-path="url(#peb2c6fac1b)" d="M 525.118136 467.076094 
L 535.675896 467.076094 
L 535.675896 226.856665 
L 525.118136 226.856665 
z
" style="fill:#ff0000;fill-opacity:0.5;stroke:#000000;stroke-linejoin:miter;"/>
   </g>
   <g id="patch_82">
    <path clip-path="url(#peb2c6fac1b)" d="M 535.675896 467.076094 
L 546.233656 467.076094 
L 546.233656 243.423522 
L 535.675896 243.423522 
z
" style="fill:#ff0000;fill-opacity:0.5;stroke:#000000;stroke-linejoin:miter;"/>
   </g>
   <g id="patch_83">
    <path clip-path="url(#peb2c6fac1b)" d="M 546.233656 467.076094 
L 556.791417 467.076094 
L 556.791417 202.006379 
L 546.233656 202.006379 
z
" style="fill:#ff0000;fill-opacity:0.5;stroke:#000000;stroke-linejoin:miter;"/>
   </g>
   <g id="patch_84">
    <path clip-path="url(#peb2c6fac1b)" d="M 556.791417 467.076094 
L 567.349177 467.076094 
L 567.349177 218.573237 
L 556.791417 218.573237 
z
" style="fill:#ff0000;fill-opacity:0.5;stroke:#000000;stroke-linejoin:miter;"/>
   </g>
   <g id="patch_85">
    <path clip-path="url(#peb2c6fac1b)" d="M 567.349177 467.076094 
L 577.906937 467.076094 
L 577.906937 276.557237 
L 567.349177 276.557237 
z
" style="fill:#ff0000;fill-opacity:0.5;stroke:#000000;stroke-linejoin:miter;"/>
   </g>
   <g id="patch_86">
    <path clip-path="url(#peb2c6fac1b)" d="M 577.906937 467.076094 
L 588.464697 467.076094 
L 588.464697 268.273808 
L 577.906937 268.273808 
z
" style="fill:#ff0000;fill-opacity:0.5;stroke:#000000;stroke-linejoin:miter;"/>
   </g>
   <g id="patch_87">
    <path clip-path="url(#peb2c6fac1b)" d="M 588.464697 467.076094 
L 599.022458 467.076094 
L 599.022458 243.423522 
L 588.464697 243.423522 
z
" style="fill:#ff0000;fill-opacity:0.5;stroke:#000000;stroke-linejoin:miter;"/>
   </g>
   <g id="patch_88">
    <path clip-path="url(#peb2c6fac1b)" d="M 599.022458 467.076094 
L 609.580218 467.076094 
L 609.580218 268.273808 
L 599.022458 268.273808 
z
" style="fill:#ff0000;fill-opacity:0.5;stroke:#000000;stroke-linejoin:miter;"/>
   </g>
   <g id="patch_89">
    <path clip-path="url(#peb2c6fac1b)" d="M 609.580218 467.076094 
L 620.137978 467.076094 
L 620.137978 243.423522 
L 609.580218 243.423522 
z
" style="fill:#ff0000;fill-opacity:0.5;stroke:#000000;stroke-linejoin:miter;"/>
   </g>
   <g id="patch_90">
    <path clip-path="url(#peb2c6fac1b)" d="M 620.137978 467.076094 
L 630.695739 467.076094 
L 630.695739 334.541237 
L 620.137978 334.541237 
z
" style="fill:#ff0000;fill-opacity:0.5;stroke:#000000;stroke-linejoin:miter;"/>
   </g>
   <g id="matplotlib.axis_1">
    <g id="xtick_1">
     <g id="line2d_1">
      <defs>
       <path d="M 0 0 
L 0 3.5 
" id="m4fd92ae360" style="stroke:#000000;stroke-width:0.8;"/>
      </defs>
      <g>
       <use style="stroke:#000000;stroke-width:0.8;" x="203.61405" xlink:href="#m4fd92ae360" y="467.076094"/>
      </g>
     </g>
     <g id="text_1">
      <!-- 0.2 -->
      <g transform="translate(183.735143 493.072187)scale(0.25 -0.25)">
       <defs>
        <path d="M 2034 4250 
Q 1547 4250 1301 3770 
Q 1056 3291 1056 2328 
Q 1056 1369 1301 889 
Q 1547 409 2034 409 
Q 2525 409 2770 889 
Q 3016 1369 3016 2328 
Q 3016 3291 2770 3770 
Q 2525 4250 2034 4250 
z
M 2034 4750 
Q 2819 4750 3233 4129 
Q 3647 3509 3647 2328 
Q 3647 1150 3233 529 
Q 2819 -91 2034 -91 
Q 1250 -91 836 529 
Q 422 1150 422 2328 
Q 422 3509 836 4129 
Q 1250 4750 2034 4750 
z
" id="DejaVuSans-30" transform="scale(0.015625)"/>
        <path d="M 684 794 
L 1344 794 
L 1344 0 
L 684 0 
L 684 794 
z
" id="DejaVuSans-2e" transform="scale(0.015625)"/>
        <path d="M 1228 531 
L 3431 531 
L 3431 0 
L 469 0 
L 469 531 
Q 828 903 1448 1529 
Q 2069 2156 2228 2338 
Q 2531 2678 2651 2914 
Q 2772 3150 2772 3378 
Q 2772 3750 2511 3984 
Q 2250 4219 1831 4219 
Q 1534 4219 1204 4116 
Q 875 4013 500 3803 
L 500 4441 
Q 881 4594 1212 4672 
Q 1544 4750 1819 4750 
Q 2544 4750 2975 4387 
Q 3406 4025 3406 3419 
Q 3406 3131 3298 2873 
Q 3191 2616 2906 2266 
Q 2828 2175 2409 1742 
Q 1991 1309 1228 531 
z
" id="DejaVuSans-32" transform="scale(0.015625)"/>
       </defs>
       <use xlink:href="#DejaVuSans-30"/>
       <use x="63.623047" xlink:href="#DejaVuSans-2e"/>
       <use x="95.410156" xlink:href="#DejaVuSans-32"/>
      </g>
     </g>
    </g>
    <g id="xtick_2">
     <g id="line2d_2">
      <g>
       <use style="stroke:#000000;stroke-width:0.8;" x="309.191653" xlink:href="#m4fd92ae360" y="467.076094"/>
      </g>
     </g>
     <g id="text_2">
      <!-- 0.4 -->
      <g transform="translate(289.312746 493.072187)scale(0.25 -0.25)">
       <defs>
        <path d="M 2419 4116 
L 825 1625 
L 2419 1625 
L 2419 4116 
z
M 2253 4666 
L 3047 4666 
L 3047 1625 
L 3713 1625 
L 3713 1100 
L 3047 1100 
L 3047 0 
L 2419 0 
L 2419 1100 
L 313 1100 
L 313 1709 
L 2253 4666 
z
" id="DejaVuSans-34" transform="scale(0.015625)"/>
       </defs>
       <use xlink:href="#DejaVuSans-30"/>
       <use x="63.623047" xlink:href="#DejaVuSans-2e"/>
       <use x="95.410156" xlink:href="#DejaVuSans-34"/>
      </g>
     </g>
    </g>
    <g id="xtick_3">
     <g id="line2d_3">
      <g>
       <use style="stroke:#000000;stroke-width:0.8;" x="414.769256" xlink:href="#m4fd92ae360" y="467.076094"/>
      </g>
     </g>
     <g id="text_3">
      <!-- 0.6 -->
      <g transform="translate(394.890349 493.072187)scale(0.25 -0.25)">
       <defs>
        <path d="M 2113 2584 
Q 1688 2584 1439 2293 
Q 1191 2003 1191 1497 
Q 1191 994 1439 701 
Q 1688 409 2113 409 
Q 2538 409 2786 701 
Q 3034 994 3034 1497 
Q 3034 2003 2786 2293 
Q 2538 2584 2113 2584 
z
M 3366 4563 
L 3366 3988 
Q 3128 4100 2886 4159 
Q 2644 4219 2406 4219 
Q 1781 4219 1451 3797 
Q 1122 3375 1075 2522 
Q 1259 2794 1537 2939 
Q 1816 3084 2150 3084 
Q 2853 3084 3261 2657 
Q 3669 2231 3669 1497 
Q 3669 778 3244 343 
Q 2819 -91 2113 -91 
Q 1303 -91 875 529 
Q 447 1150 447 2328 
Q 447 3434 972 4092 
Q 1497 4750 2381 4750 
Q 2619 4750 2861 4703 
Q 3103 4656 3366 4563 
z
" id="DejaVuSans-36" transform="scale(0.015625)"/>
       </defs>
       <use xlink:href="#DejaVuSans-30"/>
       <use x="63.623047" xlink:href="#DejaVuSans-2e"/>
       <use x="95.410156" xlink:href="#DejaVuSans-36"/>
      </g>
     </g>
    </g>
    <g id="xtick_4">
     <g id="line2d_4">
      <g>
       <use style="stroke:#000000;stroke-width:0.8;" x="520.346859" xlink:href="#m4fd92ae360" y="467.076094"/>
      </g>
     </g>
     <g id="text_4">
      <!-- 0.8 -->
      <g transform="translate(500.467952 493.072187)scale(0.25 -0.25)">
       <defs>
        <path d="M 2034 2216 
Q 1584 2216 1326 1975 
Q 1069 1734 1069 1313 
Q 1069 891 1326 650 
Q 1584 409 2034 409 
Q 2484 409 2743 651 
Q 3003 894 3003 1313 
Q 3003 1734 2745 1975 
Q 2488 2216 2034 2216 
z
M 1403 2484 
Q 997 2584 770 2862 
Q 544 3141 544 3541 
Q 544 4100 942 4425 
Q 1341 4750 2034 4750 
Q 2731 4750 3128 4425 
Q 3525 4100 3525 3541 
Q 3525 3141 3298 2862 
Q 3072 2584 2669 2484 
Q 3125 2378 3379 2068 
Q 3634 1759 3634 1313 
Q 3634 634 3220 271 
Q 2806 -91 2034 -91 
Q 1263 -91 848 271 
Q 434 634 434 1313 
Q 434 1759 690 2068 
Q 947 2378 1403 2484 
z
M 1172 3481 
Q 1172 3119 1398 2916 
Q 1625 2713 2034 2713 
Q 2441 2713 2670 2916 
Q 2900 3119 2900 3481 
Q 2900 3844 2670 4047 
Q 2441 4250 2034 4250 
Q 1625 4250 1398 4047 
Q 1172 3844 1172 3481 
z
" id="DejaVuSans-38" transform="scale(0.015625)"/>
       </defs>
       <use xlink:href="#DejaVuSans-30"/>
       <use x="63.623047" xlink:href="#DejaVuSans-2e"/>
       <use x="95.410156" xlink:href="#DejaVuSans-38"/>
      </g>
     </g>
    </g>
    <g id="xtick_5">
     <g id="line2d_5">
      <g>
       <use style="stroke:#000000;stroke-width:0.8;" x="625.924462" xlink:href="#m4fd92ae360" y="467.076094"/>
      </g>
     </g>
     <g id="text_5">
      <!-- 1.0 -->
      <g transform="translate(606.045555 493.072187)scale(0.25 -0.25)">
       <defs>
        <path d="M 794 531 
L 1825 531 
L 1825 4091 
L 703 3866 
L 703 4441 
L 1819 4666 
L 2450 4666 
L 2450 531 
L 3481 531 
L 3481 0 
L 794 0 
L 794 531 
z
" id="DejaVuSans-31" transform="scale(0.015625)"/>
       </defs>
       <use xlink:href="#DejaVuSans-31"/>
       <use x="63.623047" xlink:href="#DejaVuSans-2e"/>
       <use x="95.410156" xlink:href="#DejaVuSans-30"/>
      </g>
     </g>
    </g>
    <g id="text_6">
     <!-- Ω -->
     <g transform="translate(367.506641 521.2675)scale(0.25 -0.25)">
      <defs>
       <path d="M 4647 556 
L 4647 0 
L 2772 0 
L 2772 556 
Q 3325 859 3634 1378 
Q 3944 1897 3944 2528 
Q 3944 3278 3531 3731 
Q 3119 4184 2444 4184 
Q 1769 4184 1355 3729 
Q 941 3275 941 2528 
Q 941 1897 1250 1378 
Q 1563 859 2119 556 
L 2119 0 
L 244 0 
L 244 556 
L 1241 556 
Q 747 991 519 1456 
Q 294 1922 294 2497 
Q 294 3491 894 4106 
Q 1491 4722 2444 4722 
Q 3391 4722 3994 4106 
Q 4594 3494 4594 2528 
Q 4594 1922 4372 1459 
Q 4150 997 3647 556 
L 4647 556 
z
" id="DejaVuSans-3a9" transform="scale(0.015625)"/>
      </defs>
      <use xlink:href="#DejaVuSans-3a9"/>
     </g>
    </g>
   </g>
   <g id="matplotlib.axis_2">
    <g id="ytick_1">
     <g id="line2d_6">
      <defs>
       <path d="M 0 0 
L -3.5 0 
" id="m071d0b9989" style="stroke:#000000;stroke-width:0.8;"/>
      </defs>
      <g>
       <use style="stroke:#000000;stroke-width:0.8;" x="98.059375" xlink:href="#m071d0b9989" y="467.076094"/>
      </g>
     </g>
     <g id="text_7">
      <!-- 0.0 -->
      <g transform="translate(51.301563 476.574141)scale(0.25 -0.25)">
       <use xlink:href="#DejaVuSans-30"/>
       <use x="63.623047" xlink:href="#DejaVuSans-2e"/>
       <use x="95.410156" xlink:href="#DejaVuSans-30"/>
      </g>
     </g>
    </g>
    <g id="ytick_2">
     <g id="line2d_7">
      <g>
       <use style="stroke:#000000;stroke-width:0.8;" x="98.059375" xlink:href="#m071d0b9989" y="397.743797"/>
      </g>
     </g>
     <g id="text_8">
      <!-- 0.01 -->
      <g transform="translate(35.395313 407.241843)scale(0.25 -0.25)">
       <use xlink:href="#DejaVuSans-30"/>
       <use x="63.623047" xlink:href="#DejaVuSans-2e"/>
       <use x="95.410156" xlink:href="#DejaVuSans-30"/>
       <use x="159.033203" xlink:href="#DejaVuSans-31"/>
      </g>
     </g>
    </g>
    <g id="ytick_3">
     <g id="line2d_8">
      <g>
       <use style="stroke:#000000;stroke-width:0.8;" x="98.059375" xlink:href="#m071d0b9989" y="328.411499"/>
      </g>
     </g>
     <g id="text_9">
      <!-- 0.02 -->
      <g transform="translate(35.395313 337.909546)scale(0.25 -0.25)">
       <use xlink:href="#DejaVuSans-30"/>
       <use x="63.623047" xlink:href="#DejaVuSans-2e"/>
       <use x="95.410156" xlink:href="#DejaVuSans-30"/>
       <use x="159.033203" xlink:href="#DejaVuSans-32"/>
      </g>
     </g>
    </g>
    <g id="ytick_4">
     <g id="line2d_9">
      <g>
       <use style="stroke:#000000;stroke-width:0.8;" x="98.059375" xlink:href="#m071d0b9989" y="259.079202"/>
      </g>
     </g>
     <g id="text_10">
      <!-- 0.03 -->
      <g transform="translate(35.395313 268.577249)scale(0.25 -0.25)">
       <defs>
        <path d="M 2597 2516 
Q 3050 2419 3304 2112 
Q 3559 1806 3559 1356 
Q 3559 666 3084 287 
Q 2609 -91 1734 -91 
Q 1441 -91 1130 -33 
Q 819 25 488 141 
L 488 750 
Q 750 597 1062 519 
Q 1375 441 1716 441 
Q 2309 441 2620 675 
Q 2931 909 2931 1356 
Q 2931 1769 2642 2001 
Q 2353 2234 1838 2234 
L 1294 2234 
L 1294 2753 
L 1863 2753 
Q 2328 2753 2575 2939 
Q 2822 3125 2822 3475 
Q 2822 3834 2567 4026 
Q 2313 4219 1838 4219 
Q 1578 4219 1281 4162 
Q 984 4106 628 3988 
L 628 4550 
Q 988 4650 1302 4700 
Q 1616 4750 1894 4750 
Q 2613 4750 3031 4423 
Q 3450 4097 3450 3541 
Q 3450 3153 3228 2886 
Q 3006 2619 2597 2516 
z
" id="DejaVuSans-33" transform="scale(0.015625)"/>
       </defs>
       <use xlink:href="#DejaVuSans-30"/>
       <use x="63.623047" xlink:href="#DejaVuSans-2e"/>
       <use x="95.410156" xlink:href="#DejaVuSans-30"/>
       <use x="159.033203" xlink:href="#DejaVuSans-33"/>
      </g>
     </g>
    </g>
    <g id="ytick_5">
     <g id="line2d_10">
      <g>
       <use style="stroke:#000000;stroke-width:0.8;" x="98.059375" xlink:href="#m071d0b9989" y="189.746905"/>
      </g>
     </g>
     <g id="text_11">
      <!-- 0.04 -->
      <g transform="translate(35.395313 199.244952)scale(0.25 -0.25)">
       <use xlink:href="#DejaVuSans-30"/>
       <use x="63.623047" xlink:href="#DejaVuSans-2e"/>
       <use x="95.410156" xlink:href="#DejaVuSans-30"/>
       <use x="159.033203" xlink:href="#DejaVuSans-34"/>
      </g>
     </g>
    </g>
    <g id="ytick_6">
     <g id="line2d_11">
      <g>
       <use style="stroke:#000000;stroke-width:0.8;" x="98.059375" xlink:href="#m071d0b9989" y="120.414608"/>
      </g>
     </g>
     <g id="text_12">
      <!-- 0.05 -->
      <g transform="translate(35.395313 129.912655)scale(0.25 -0.25)">
       <defs>
        <path d="M 691 4666 
L 3169 4666 
L 3169 4134 
L 1269 4134 
L 1269 2991 
Q 1406 3038 1543 3061 
Q 1681 3084 1819 3084 
Q 2600 3084 3056 2656 
Q 3513 2228 3513 1497 
Q 3513 744 3044 326 
Q 2575 -91 1722 -91 
Q 1428 -91 1123 -41 
Q 819 9 494 109 
L 494 744 
Q 775 591 1075 516 
Q 1375 441 1709 441 
Q 2250 441 2565 725 
Q 2881 1009 2881 1497 
Q 2881 1984 2565 2268 
Q 2250 2553 1709 2553 
Q 1456 2553 1204 2497 
Q 953 2441 691 2322 
L 691 4666 
z
" id="DejaVuSans-35" transform="scale(0.015625)"/>
       </defs>
       <use xlink:href="#DejaVuSans-30"/>
       <use x="63.623047" xlink:href="#DejaVuSans-2e"/>
       <use x="95.410156" xlink:href="#DejaVuSans-30"/>
       <use x="159.033203" xlink:href="#DejaVuSans-35"/>
      </g>
     </g>
    </g>
    <g id="ytick_7">
     <g id="line2d_12">
      <g>
       <use style="stroke:#000000;stroke-width:0.8;" x="98.059375" xlink:href="#m071d0b9989" y="51.082311"/>
      </g>
     </g>
     <g id="text_13">
      <!-- 0.06 -->
      <g transform="translate(35.395313 60.580358)scale(0.25 -0.25)">
       <use xlink:href="#DejaVuSans-30"/>
       <use x="63.623047" xlink:href="#DejaVuSans-2e"/>
       <use x="95.410156" xlink:href="#DejaVuSans-30"/>
       <use x="159.033203" xlink:href="#DejaVuSans-36"/>
      </g>
     </g>
    </g>
    <g id="text_14">
     <!-- Probability -->
     <g transform="translate(26.196094 315.708359)rotate(-90)scale(0.25 -0.25)">
      <defs>
       <path d="M 1259 4147 
L 1259 2394 
L 2053 2394 
Q 2494 2394 2734 2622 
Q 2975 2850 2975 3272 
Q 2975 3691 2734 3919 
Q 2494 4147 2053 4147 
L 1259 4147 
z
M 628 4666 
L 2053 4666 
Q 2838 4666 3239 4311 
Q 3641 3956 3641 3272 
Q 3641 2581 3239 2228 
Q 2838 1875 2053 1875 
L 1259 1875 
L 1259 0 
L 628 0 
L 628 4666 
z
" id="DejaVuSans-50" transform="scale(0.015625)"/>
       <path d="M 2631 2963 
Q 2534 3019 2420 3045 
Q 2306 3072 2169 3072 
Q 1681 3072 1420 2755 
Q 1159 2438 1159 1844 
L 1159 0 
L 581 0 
L 581 3500 
L 1159 3500 
L 1159 2956 
Q 1341 3275 1631 3429 
Q 1922 3584 2338 3584 
Q 2397 3584 2469 3576 
Q 2541 3569 2628 3553 
L 2631 2963 
z
" id="DejaVuSans-72" transform="scale(0.015625)"/>
       <path d="M 1959 3097 
Q 1497 3097 1228 2736 
Q 959 2375 959 1747 
Q 959 1119 1226 758 
Q 1494 397 1959 397 
Q 2419 397 2687 759 
Q 2956 1122 2956 1747 
Q 2956 2369 2687 2733 
Q 2419 3097 1959 3097 
z
M 1959 3584 
Q 2709 3584 3137 3096 
Q 3566 2609 3566 1747 
Q 3566 888 3137 398 
Q 2709 -91 1959 -91 
Q 1206 -91 779 398 
Q 353 888 353 1747 
Q 353 2609 779 3096 
Q 1206 3584 1959 3584 
z
" id="DejaVuSans-6f" transform="scale(0.015625)"/>
       <path d="M 3116 1747 
Q 3116 2381 2855 2742 
Q 2594 3103 2138 3103 
Q 1681 3103 1420 2742 
Q 1159 2381 1159 1747 
Q 1159 1113 1420 752 
Q 1681 391 2138 391 
Q 2594 391 2855 752 
Q 3116 1113 3116 1747 
z
M 1159 2969 
Q 1341 3281 1617 3432 
Q 1894 3584 2278 3584 
Q 2916 3584 3314 3078 
Q 3713 2572 3713 1747 
Q 3713 922 3314 415 
Q 2916 -91 2278 -91 
Q 1894 -91 1617 61 
Q 1341 213 1159 525 
L 1159 0 
L 581 0 
L 581 4863 
L 1159 4863 
L 1159 2969 
z
" id="DejaVuSans-62" transform="scale(0.015625)"/>
       <path d="M 2194 1759 
Q 1497 1759 1228 1600 
Q 959 1441 959 1056 
Q 959 750 1161 570 
Q 1363 391 1709 391 
Q 2188 391 2477 730 
Q 2766 1069 2766 1631 
L 2766 1759 
L 2194 1759 
z
M 3341 1997 
L 3341 0 
L 2766 0 
L 2766 531 
Q 2569 213 2275 61 
Q 1981 -91 1556 -91 
Q 1019 -91 701 211 
Q 384 513 384 1019 
Q 384 1609 779 1909 
Q 1175 2209 1959 2209 
L 2766 2209 
L 2766 2266 
Q 2766 2663 2505 2880 
Q 2244 3097 1772 3097 
Q 1472 3097 1187 3025 
Q 903 2953 641 2809 
L 641 3341 
Q 956 3463 1253 3523 
Q 1550 3584 1831 3584 
Q 2591 3584 2966 3190 
Q 3341 2797 3341 1997 
z
" id="DejaVuSans-61" transform="scale(0.015625)"/>
       <path d="M 603 3500 
L 1178 3500 
L 1178 0 
L 603 0 
L 603 3500 
z
M 603 4863 
L 1178 4863 
L 1178 4134 
L 603 4134 
L 603 4863 
z
" id="DejaVuSans-69" transform="scale(0.015625)"/>
       <path d="M 603 4863 
L 1178 4863 
L 1178 0 
L 603 0 
L 603 4863 
z
" id="DejaVuSans-6c" transform="scale(0.015625)"/>
       <path d="M 1172 4494 
L 1172 3500 
L 2356 3500 
L 2356 3053 
L 1172 3053 
L 1172 1153 
Q 1172 725 1289 603 
Q 1406 481 1766 481 
L 2356 481 
L 2356 0 
L 1766 0 
Q 1100 0 847 248 
Q 594 497 594 1153 
L 594 3053 
L 172 3053 
L 172 3500 
L 594 3500 
L 594 4494 
L 1172 4494 
z
" id="DejaVuSans-74" transform="scale(0.015625)"/>
       <path d="M 2059 -325 
Q 1816 -950 1584 -1140 
Q 1353 -1331 966 -1331 
L 506 -1331 
L 506 -850 
L 844 -850 
Q 1081 -850 1212 -737 
Q 1344 -625 1503 -206 
L 1606 56 
L 191 3500 
L 800 3500 
L 1894 763 
L 2988 3500 
L 3597 3500 
L 2059 -325 
z
" id="DejaVuSans-79" transform="scale(0.015625)"/>
      </defs>
      <use xlink:href="#DejaVuSans-50"/>
      <use x="58.552734" xlink:href="#DejaVuSans-72"/>
      <use x="97.416016" xlink:href="#DejaVuSans-6f"/>
      <use x="158.597656" xlink:href="#DejaVuSans-62"/>
      <use x="222.074219" xlink:href="#DejaVuSans-61"/>
      <use x="283.353516" xlink:href="#DejaVuSans-62"/>
      <use x="346.830078" xlink:href="#DejaVuSans-69"/>
      <use x="374.613281" xlink:href="#DejaVuSans-6c"/>
      <use x="402.396484" xlink:href="#DejaVuSans-69"/>
      <use x="430.179688" xlink:href="#DejaVuSans-74"/>
      <use x="469.388672" xlink:href="#DejaVuSans-79"/>
     </g>
    </g>
   </g>
   <g id="line2d_13">
    <path clip-path="url(#peb2c6fac1b)" d="M 462.279177 467.076094 
L 462.279177 32.196094 
" style="fill:none;stroke:#0000ff;stroke-dasharray:5.55,2.4;stroke-dashoffset:0;stroke-width:1.5;"/>
   </g>
   <g id="line2d_14">
    <path clip-path="url(#peb2c6fac1b)" d="M 123.423011 460.539522 
L 141.098942 457.730297 
L 184.026201 451.125655 
L 191.6016 449.764279 
L 196.651866 448.693638 
L 201.702132 447.429282 
L 206.752398 445.924661 
L 211.802663 444.151832 
L 216.852929 442.109715 
L 221.903195 439.827445 
L 229.478594 436.081912 
L 249.679657 425.805021 
L 259.780189 420.697726 
L 264.830455 417.858495 
L 269.88072 414.607063 
L 272.405853 412.769921 
L 274.930986 410.763038 
L 277.456119 408.56733 
L 279.981252 406.166754 
L 282.506385 403.549101 
L 285.031518 400.706677 
L 287.556651 397.636847 
L 290.081784 394.342415 
L 292.606917 390.831795 
L 297.657183 383.223333 
L 302.707448 374.984406 
L 310.282847 361.975662 
L 317.858246 349.006165 
L 322.908512 340.792107 
L 327.958778 333.117045 
L 333.009043 326.039861 
L 338.059309 319.515551 
L 343.109575 313.405466 
L 355.73524 298.527722 
L 360.785505 292.158 
L 365.835771 285.324997 
L 370.886037 278.008729 
L 375.936303 270.302679 
L 386.036835 254.597878 
L 391.0871 247.198828 
L 393.612233 243.752795 
L 396.137366 240.524481 
L 398.662499 237.545202 
L 401.187632 234.840773 
L 403.712765 232.43068 
L 406.237898 230.327506 
L 408.763031 228.536644 
L 411.288164 227.056288 
L 413.813297 225.877691 
L 416.33843 224.985672 
L 418.863563 224.359331 
L 421.388695 223.972928 
L 423.913828 223.796889 
L 426.438961 223.79888 
L 431.489227 224.20038 
L 439.064626 225.28991 
L 444.114892 225.989828 
L 449.165158 226.454896 
L 454.215423 226.577072 
L 459.265689 226.321307 
L 464.315955 225.723442 
L 469.366221 224.881457 
L 479.466753 223.073312 
L 484.517018 222.455358 
L 487.042151 222.289622 
L 489.567284 222.241151 
L 492.092417 222.322171 
L 494.61755 222.541007 
L 497.142683 222.901716 
L 499.667816 223.403861 
L 502.192949 224.042443 
L 507.243215 225.686807 
L 512.29348 227.711015 
L 527.444278 234.214429 
L 532.494544 235.903984 
L 537.54481 237.156579 
L 542.595075 237.985624 
L 547.645341 238.519234 
L 552.695607 238.999247 
L 555.22074 239.32144 
L 557.745873 239.76194 
L 560.271006 240.371622 
L 562.796139 241.202092 
L 565.321272 242.304067 
L 567.846405 243.725778 
L 570.371538 245.511464 
L 572.89667 247.700026 
L 575.421803 250.323898 
L 577.946936 253.408158 
L 580.472069 256.969929 
L 582.997202 261.018048 
L 585.522335 265.553008 
L 588.047468 270.567143 
L 590.572601 276.04502 
L 593.097734 281.963996 
L 595.622867 288.294895 
L 598.148 295.002759 
L 603.198265 309.385403 
L 608.248531 324.746742 
L 625.924462 380.218608 
L 625.924462 380.218608 
" style="fill:none;stroke:#0000ff;stroke-linecap:square;stroke-width:1.5;"/>
   </g>
   <g id="line2d_15">
    <path clip-path="url(#peb2c6fac1b)" d="M 483.394698 467.076094 
L 483.394698 32.353554 
" style="fill:none;stroke:#ff0000;stroke-dasharray:5.55,2.4;stroke-dashoffset:0;stroke-width:1.5;"/>
   </g>
   <g id="line2d_16">
    <path clip-path="url(#peb2c6fac1b)" d="M 197.827566 463.203892 
L 212.879528 461.830444 
L 219.330368 460.993746 
L 225.781209 459.89784 
L 232.232049 458.561538 
L 251.584571 454.286846 
L 264.486252 451.716936 
L 268.786813 450.580847 
L 270.937093 449.879227 
L 273.087373 449.057832 
L 275.237653 448.092076 
L 277.387934 446.956729 
L 279.538214 445.6265 
L 281.688494 444.076675 
L 283.838774 442.283817 
L 285.989054 440.226516 
L 288.139335 437.886167 
L 290.289615 435.247757 
L 292.439895 432.300648 
L 294.590175 429.039305 
L 296.740455 425.463953 
L 298.890736 421.581118 
L 301.041016 417.404023 
L 305.341576 408.254499 
L 309.642137 398.257837 
L 324.694098 362.051054 
L 326.844378 357.44094 
L 328.994658 353.12085 
L 331.144939 349.128339 
L 333.295219 345.493289 
L 335.445499 342.23701 
L 337.595779 339.371555 
L 339.746059 336.899301 
L 341.89634 334.812761 
L 344.04662 333.094669 
L 346.1969 331.718298 
L 348.34718 330.648021 
L 350.49746 329.840089 
L 352.647741 329.243611 
L 356.948301 328.452889 
L 361.248861 327.773857 
L 363.399141 327.310875 
L 365.549422 326.678667 
L 367.699702 325.815714 
L 369.849982 324.665333 
L 372.000262 323.177154 
L 374.150542 321.308436 
L 376.300823 319.025186 
L 378.451103 316.303044 
L 380.601383 313.127884 
L 382.751663 309.496129 
L 384.901943 305.414748 
L 387.052224 300.900949 
L 389.202504 295.981561 
L 391.352784 290.692162 
L 395.653344 279.182454 
L 399.953905 266.7845 
L 410.705306 234.965495 
L 415.005866 223.063839 
L 419.306427 212.162431 
L 421.456707 207.162149 
L 423.606987 202.490145 
L 425.757267 198.159914 
L 427.907547 194.179188 
L 430.057828 190.550208 
L 432.208108 187.27003 
L 434.358388 184.330855 
L 436.508668 181.720369 
L 438.658948 179.4221 
L 440.809229 177.415788 
L 442.959509 175.677809 
L 445.109789 174.181646 
L 447.260069 172.89844 
L 449.410349 171.797642 
L 453.71091 170.017189 
L 458.01147 168.592853 
L 470.913151 164.606102 
L 479.514272 161.754553 
L 483.814833 160.622335 
L 485.965113 160.229035 
L 488.115393 159.992091 
L 490.265673 159.940913 
L 492.415953 160.102235 
L 494.566234 160.499005 
L 496.716514 161.149463 
L 498.866794 162.066422 
L 501.017074 163.256788 
L 503.167354 164.721314 
L 505.317634 166.45459 
L 507.467915 168.445254 
L 509.618195 170.67642 
L 511.768475 173.126287 
L 516.069035 178.575091 
L 520.369596 184.551329 
L 535.421557 206.108362 
L 539.722118 211.728679 
L 544.022678 216.985535 
L 548.323238 221.910887 
L 552.623799 226.567393 
L 559.074639 233.189427 
L 565.52548 239.500725 
L 574.126601 247.545005 
L 582.727722 255.567775 
L 587.028282 259.962691 
L 589.178562 262.373195 
L 591.328842 264.981653 
L 593.479123 267.83283 
L 595.629403 270.971828 
L 597.779683 274.442238 
L 599.929963 278.284186 
L 602.080243 282.532367 
L 604.230524 287.214171 
L 606.380804 292.347996 
L 608.531084 297.941849 
L 610.681364 303.992313 
L 612.831644 310.483947 
L 614.981925 317.389158 
L 619.282485 332.271861 
L 623.583045 348.20242 
L 625.733326 356.388043 
L 625.733326 356.388043 
" style="fill:none;stroke:#ff0000;stroke-linecap:square;stroke-width:1.5;"/>
   </g>
   <g id="patch_91">
    <path d="M 98.059375 467.076094 
L 98.059375 32.196094 
" style="fill:none;stroke:#000000;stroke-linecap:square;stroke-linejoin:miter;stroke-width:0.8;"/>
   </g>
   <g id="patch_92">
    <path d="M 656.059375 467.076094 
L 656.059375 32.196094 
" style="fill:none;stroke:#000000;stroke-linecap:square;stroke-linejoin:miter;stroke-width:0.8;"/>
   </g>
   <g id="patch_93">
    <path d="M 98.059375 467.076094 
L 656.059375 467.076094 
" style="fill:none;stroke:#000000;stroke-linecap:square;stroke-linejoin:miter;stroke-width:0.8;"/>
   </g>
   <g id="patch_94">
    <path d="M 98.059375 32.196094 
L 656.059375 32.196094 
" style="fill:none;stroke:#000000;stroke-linecap:square;stroke-linejoin:miter;stroke-width:0.8;"/>
   </g>
   <g id="text_15">
    <!-- Histogram of Ω for simmetry p4 -->
    <g transform="translate(178.209766 26.196094)scale(0.25 -0.25)">
     <defs>
      <path d="M 628 4666 
L 1259 4666 
L 1259 2753 
L 3553 2753 
L 3553 4666 
L 4184 4666 
L 4184 0 
L 3553 0 
L 3553 2222 
L 1259 2222 
L 1259 0 
L 628 0 
L 628 4666 
z
" id="DejaVuSans-48" transform="scale(0.015625)"/>
      <path d="M 2834 3397 
L 2834 2853 
Q 2591 2978 2328 3040 
Q 2066 3103 1784 3103 
Q 1356 3103 1142 2972 
Q 928 2841 928 2578 
Q 928 2378 1081 2264 
Q 1234 2150 1697 2047 
L 1894 2003 
Q 2506 1872 2764 1633 
Q 3022 1394 3022 966 
Q 3022 478 2636 193 
Q 2250 -91 1575 -91 
Q 1294 -91 989 -36 
Q 684 19 347 128 
L 347 722 
Q 666 556 975 473 
Q 1284 391 1588 391 
Q 1994 391 2212 530 
Q 2431 669 2431 922 
Q 2431 1156 2273 1281 
Q 2116 1406 1581 1522 
L 1381 1569 
Q 847 1681 609 1914 
Q 372 2147 372 2553 
Q 372 3047 722 3315 
Q 1072 3584 1716 3584 
Q 2034 3584 2315 3537 
Q 2597 3491 2834 3397 
z
" id="DejaVuSans-73" transform="scale(0.015625)"/>
      <path d="M 2906 1791 
Q 2906 2416 2648 2759 
Q 2391 3103 1925 3103 
Q 1463 3103 1205 2759 
Q 947 2416 947 1791 
Q 947 1169 1205 825 
Q 1463 481 1925 481 
Q 2391 481 2648 825 
Q 2906 1169 2906 1791 
z
M 3481 434 
Q 3481 -459 3084 -895 
Q 2688 -1331 1869 -1331 
Q 1566 -1331 1297 -1286 
Q 1028 -1241 775 -1147 
L 775 -588 
Q 1028 -725 1275 -790 
Q 1522 -856 1778 -856 
Q 2344 -856 2625 -561 
Q 2906 -266 2906 331 
L 2906 616 
Q 2728 306 2450 153 
Q 2172 0 1784 0 
Q 1141 0 747 490 
Q 353 981 353 1791 
Q 353 2603 747 3093 
Q 1141 3584 1784 3584 
Q 2172 3584 2450 3431 
Q 2728 3278 2906 2969 
L 2906 3500 
L 3481 3500 
L 3481 434 
z
" id="DejaVuSans-67" transform="scale(0.015625)"/>
      <path d="M 3328 2828 
Q 3544 3216 3844 3400 
Q 4144 3584 4550 3584 
Q 5097 3584 5394 3201 
Q 5691 2819 5691 2113 
L 5691 0 
L 5113 0 
L 5113 2094 
Q 5113 2597 4934 2840 
Q 4756 3084 4391 3084 
Q 3944 3084 3684 2787 
Q 3425 2491 3425 1978 
L 3425 0 
L 2847 0 
L 2847 2094 
Q 2847 2600 2669 2842 
Q 2491 3084 2119 3084 
Q 1678 3084 1418 2786 
Q 1159 2488 1159 1978 
L 1159 0 
L 581 0 
L 581 3500 
L 1159 3500 
L 1159 2956 
Q 1356 3278 1631 3431 
Q 1906 3584 2284 3584 
Q 2666 3584 2933 3390 
Q 3200 3197 3328 2828 
z
" id="DejaVuSans-6d" transform="scale(0.015625)"/>
      <path id="DejaVuSans-20" transform="scale(0.015625)"/>
      <path d="M 2375 4863 
L 2375 4384 
L 1825 4384 
Q 1516 4384 1395 4259 
Q 1275 4134 1275 3809 
L 1275 3500 
L 2222 3500 
L 2222 3053 
L 1275 3053 
L 1275 0 
L 697 0 
L 697 3053 
L 147 3053 
L 147 3500 
L 697 3500 
L 697 3744 
Q 697 4328 969 4595 
Q 1241 4863 1831 4863 
L 2375 4863 
z
" id="DejaVuSans-66" transform="scale(0.015625)"/>
      <path d="M 3597 1894 
L 3597 1613 
L 953 1613 
Q 991 1019 1311 708 
Q 1631 397 2203 397 
Q 2534 397 2845 478 
Q 3156 559 3463 722 
L 3463 178 
Q 3153 47 2828 -22 
Q 2503 -91 2169 -91 
Q 1331 -91 842 396 
Q 353 884 353 1716 
Q 353 2575 817 3079 
Q 1281 3584 2069 3584 
Q 2775 3584 3186 3129 
Q 3597 2675 3597 1894 
z
M 3022 2063 
Q 3016 2534 2758 2815 
Q 2500 3097 2075 3097 
Q 1594 3097 1305 2825 
Q 1016 2553 972 2059 
L 3022 2063 
z
" id="DejaVuSans-65" transform="scale(0.015625)"/>
      <path d="M 1159 525 
L 1159 -1331 
L 581 -1331 
L 581 3500 
L 1159 3500 
L 1159 2969 
Q 1341 3281 1617 3432 
Q 1894 3584 2278 3584 
Q 2916 3584 3314 3078 
Q 3713 2572 3713 1747 
Q 3713 922 3314 415 
Q 2916 -91 2278 -91 
Q 1894 -91 1617 61 
Q 1341 213 1159 525 
z
M 3116 1747 
Q 3116 2381 2855 2742 
Q 2594 3103 2138 3103 
Q 1681 3103 1420 2742 
Q 1159 2381 1159 1747 
Q 1159 1113 1420 752 
Q 1681 391 2138 391 
Q 2594 391 2855 752 
Q 3116 1113 3116 1747 
z
" id="DejaVuSans-70" transform="scale(0.015625)"/>
     </defs>
     <use xlink:href="#DejaVuSans-48"/>
     <use x="75.195312" xlink:href="#DejaVuSans-69"/>
     <use x="102.978516" xlink:href="#DejaVuSans-73"/>
     <use x="155.078125" xlink:href="#DejaVuSans-74"/>
     <use x="194.287109" xlink:href="#DejaVuSans-6f"/>
     <use x="255.46875" xlink:href="#DejaVuSans-67"/>
     <use x="318.945312" xlink:href="#DejaVuSans-72"/>
     <use x="360.058594" xlink:href="#DejaVuSans-61"/>
     <use x="421.337891" xlink:href="#DejaVuSans-6d"/>
     <use x="518.75" xlink:href="#DejaVuSans-20"/>
     <use x="550.537109" xlink:href="#DejaVuSans-6f"/>
     <use x="611.71875" xlink:href="#DejaVuSans-66"/>
     <use x="646.923828" xlink:href="#DejaVuSans-20"/>
     <use x="678.710938" xlink:href="#DejaVuSans-3a9"/>
     <use x="755.126953" xlink:href="#DejaVuSans-20"/>
     <use x="786.914062" xlink:href="#DejaVuSans-66"/>
     <use x="822.119141" xlink:href="#DejaVuSans-6f"/>
     <use x="883.300781" xlink:href="#DejaVuSans-72"/>
     <use x="924.414062" xlink:href="#DejaVuSans-20"/>
     <use x="956.201172" xlink:href="#DejaVuSans-73"/>
     <use x="1008.300781" xlink:href="#DejaVuSans-69"/>
     <use x="1036.083984" xlink:href="#DejaVuSans-6d"/>
     <use x="1133.496094" xlink:href="#DejaVuSans-6d"/>
     <use x="1230.908203" xlink:href="#DejaVuSans-65"/>
     <use x="1292.431641" xlink:href="#DejaVuSans-74"/>
     <use x="1331.640625" xlink:href="#DejaVuSans-72"/>
     <use x="1372.753906" xlink:href="#DejaVuSans-79"/>
     <use x="1431.933594" xlink:href="#DejaVuSans-20"/>
     <use x="1463.720703" xlink:href="#DejaVuSans-70"/>
     <use x="1527.197266" xlink:href="#DejaVuSans-34"/>
    </g>
   </g>
   <g id="legend_1">
    <g id="patch_95">
     <path d="M 108.559375 143.878594 
L 396.890312 143.878594 
Q 399.890312 143.878594 399.890312 140.878594 
L 399.890312 42.696094 
Q 399.890312 39.696094 396.890312 39.696094 
L 108.559375 39.696094 
Q 105.559375 39.696094 105.559375 42.696094 
L 105.559375 140.878594 
Q 105.559375 143.878594 108.559375 143.878594 
z
" style="fill:#ffffff;opacity:0.8;stroke:#cccccc;stroke-linejoin:miter;"/>
    </g>
    <g id="line2d_17">
     <path d="M 111.559375 54.123281 
L 141.559375 54.123281 
" style="fill:none;stroke:#0000ff;stroke-dasharray:5.55,2.4;stroke-dashoffset:0;stroke-width:1.5;"/>
    </g>
    <g id="line2d_18"/>
    <g id="text_16">
     <!-- Median score RTGA = 0.69 -->
     <g transform="translate(153.559375 59.373281)scale(0.18 -0.18)">
      <defs>
       <path d="M 628 4666 
L 1569 4666 
L 2759 1491 
L 3956 4666 
L 4897 4666 
L 4897 0 
L 4281 0 
L 4281 4097 
L 3078 897 
L 2444 897 
L 1241 4097 
L 1241 0 
L 628 0 
L 628 4666 
z
" id="DejaVuSans-4d" transform="scale(0.015625)"/>
       <path d="M 2906 2969 
L 2906 4863 
L 3481 4863 
L 3481 0 
L 2906 0 
L 2906 525 
Q 2725 213 2448 61 
Q 2172 -91 1784 -91 
Q 1150 -91 751 415 
Q 353 922 353 1747 
Q 353 2572 751 3078 
Q 1150 3584 1784 3584 
Q 2172 3584 2448 3432 
Q 2725 3281 2906 2969 
z
M 947 1747 
Q 947 1113 1208 752 
Q 1469 391 1925 391 
Q 2381 391 2643 752 
Q 2906 1113 2906 1747 
Q 2906 2381 2643 2742 
Q 2381 3103 1925 3103 
Q 1469 3103 1208 2742 
Q 947 2381 947 1747 
z
" id="DejaVuSans-64" transform="scale(0.015625)"/>
       <path d="M 3513 2113 
L 3513 0 
L 2938 0 
L 2938 2094 
Q 2938 2591 2744 2837 
Q 2550 3084 2163 3084 
Q 1697 3084 1428 2787 
Q 1159 2491 1159 1978 
L 1159 0 
L 581 0 
L 581 3500 
L 1159 3500 
L 1159 2956 
Q 1366 3272 1645 3428 
Q 1925 3584 2291 3584 
Q 2894 3584 3203 3211 
Q 3513 2838 3513 2113 
z
" id="DejaVuSans-6e" transform="scale(0.015625)"/>
       <path d="M 3122 3366 
L 3122 2828 
Q 2878 2963 2633 3030 
Q 2388 3097 2138 3097 
Q 1578 3097 1268 2742 
Q 959 2388 959 1747 
Q 959 1106 1268 751 
Q 1578 397 2138 397 
Q 2388 397 2633 464 
Q 2878 531 3122 666 
L 3122 134 
Q 2881 22 2623 -34 
Q 2366 -91 2075 -91 
Q 1284 -91 818 406 
Q 353 903 353 1747 
Q 353 2603 823 3093 
Q 1294 3584 2113 3584 
Q 2378 3584 2631 3529 
Q 2884 3475 3122 3366 
z
" id="DejaVuSans-63" transform="scale(0.015625)"/>
       <path d="M 2841 2188 
Q 3044 2119 3236 1894 
Q 3428 1669 3622 1275 
L 4263 0 
L 3584 0 
L 2988 1197 
Q 2756 1666 2539 1819 
Q 2322 1972 1947 1972 
L 1259 1972 
L 1259 0 
L 628 0 
L 628 4666 
L 2053 4666 
Q 2853 4666 3247 4331 
Q 3641 3997 3641 3322 
Q 3641 2881 3436 2590 
Q 3231 2300 2841 2188 
z
M 1259 4147 
L 1259 2491 
L 2053 2491 
Q 2509 2491 2742 2702 
Q 2975 2913 2975 3322 
Q 2975 3731 2742 3939 
Q 2509 4147 2053 4147 
L 1259 4147 
z
" id="DejaVuSans-52" transform="scale(0.015625)"/>
       <path d="M -19 4666 
L 3928 4666 
L 3928 4134 
L 2272 4134 
L 2272 0 
L 1638 0 
L 1638 4134 
L -19 4134 
L -19 4666 
z
" id="DejaVuSans-54" transform="scale(0.015625)"/>
       <path d="M 3809 666 
L 3809 1919 
L 2778 1919 
L 2778 2438 
L 4434 2438 
L 4434 434 
Q 4069 175 3628 42 
Q 3188 -91 2688 -91 
Q 1594 -91 976 548 
Q 359 1188 359 2328 
Q 359 3472 976 4111 
Q 1594 4750 2688 4750 
Q 3144 4750 3555 4637 
Q 3966 4525 4313 4306 
L 4313 3634 
Q 3963 3931 3569 4081 
Q 3175 4231 2741 4231 
Q 1884 4231 1454 3753 
Q 1025 3275 1025 2328 
Q 1025 1384 1454 906 
Q 1884 428 2741 428 
Q 3075 428 3337 486 
Q 3600 544 3809 666 
z
" id="DejaVuSans-47" transform="scale(0.015625)"/>
       <path d="M 2188 4044 
L 1331 1722 
L 3047 1722 
L 2188 4044 
z
M 1831 4666 
L 2547 4666 
L 4325 0 
L 3669 0 
L 3244 1197 
L 1141 1197 
L 716 0 
L 50 0 
L 1831 4666 
z
" id="DejaVuSans-41" transform="scale(0.015625)"/>
       <path d="M 678 2906 
L 4684 2906 
L 4684 2381 
L 678 2381 
L 678 2906 
z
M 678 1631 
L 4684 1631 
L 4684 1100 
L 678 1100 
L 678 1631 
z
" id="DejaVuSans-3d" transform="scale(0.015625)"/>
       <path d="M 703 97 
L 703 672 
Q 941 559 1184 500 
Q 1428 441 1663 441 
Q 2288 441 2617 861 
Q 2947 1281 2994 2138 
Q 2813 1869 2534 1725 
Q 2256 1581 1919 1581 
Q 1219 1581 811 2004 
Q 403 2428 403 3163 
Q 403 3881 828 4315 
Q 1253 4750 1959 4750 
Q 2769 4750 3195 4129 
Q 3622 3509 3622 2328 
Q 3622 1225 3098 567 
Q 2575 -91 1691 -91 
Q 1453 -91 1209 -44 
Q 966 3 703 97 
z
M 1959 2075 
Q 2384 2075 2632 2365 
Q 2881 2656 2881 3163 
Q 2881 3666 2632 3958 
Q 2384 4250 1959 4250 
Q 1534 4250 1286 3958 
Q 1038 3666 1038 3163 
Q 1038 2656 1286 2365 
Q 1534 2075 1959 2075 
z
" id="DejaVuSans-39" transform="scale(0.015625)"/>
      </defs>
      <use xlink:href="#DejaVuSans-4d"/>
      <use x="86.279297" xlink:href="#DejaVuSans-65"/>
      <use x="147.802734" xlink:href="#DejaVuSans-64"/>
      <use x="211.279297" xlink:href="#DejaVuSans-69"/>
      <use x="239.0625" xlink:href="#DejaVuSans-61"/>
      <use x="300.341797" xlink:href="#DejaVuSans-6e"/>
      <use x="363.720703" xlink:href="#DejaVuSans-20"/>
      <use x="395.507812" xlink:href="#DejaVuSans-73"/>
      <use x="447.607422" xlink:href="#DejaVuSans-63"/>
      <use x="502.587891" xlink:href="#DejaVuSans-6f"/>
      <use x="563.769531" xlink:href="#DejaVuSans-72"/>
      <use x="602.632812" xlink:href="#DejaVuSans-65"/>
      <use x="664.15625" xlink:href="#DejaVuSans-20"/>
      <use x="695.943359" xlink:href="#DejaVuSans-52"/>
      <use x="758.175781" xlink:href="#DejaVuSans-54"/>
      <use x="819.259766" xlink:href="#DejaVuSans-47"/>
      <use x="896.75" xlink:href="#DejaVuSans-41"/>
      <use x="965.158203" xlink:href="#DejaVuSans-20"/>
      <use x="996.945312" xlink:href="#DejaVuSans-3d"/>
      <use x="1080.734375" xlink:href="#DejaVuSans-20"/>
      <use x="1112.521484" xlink:href="#DejaVuSans-30"/>
      <use x="1176.144531" xlink:href="#DejaVuSans-2e"/>
      <use x="1207.931641" xlink:href="#DejaVuSans-36"/>
      <use x="1271.554688" xlink:href="#DejaVuSans-39"/>
     </g>
    </g>
    <g id="line2d_19">
     <path d="M 111.559375 79.043906 
L 141.559375 79.043906 
" style="fill:none;stroke:#0000ff;stroke-linecap:square;stroke-width:1.5;"/>
    </g>
    <g id="line2d_20"/>
    <g id="text_17">
     <!-- RTGA -->
     <g transform="translate(153.559375 84.293906)scale(0.18 -0.18)">
      <use xlink:href="#DejaVuSans-52"/>
      <use x="62.232422" xlink:href="#DejaVuSans-54"/>
      <use x="123.316406" xlink:href="#DejaVuSans-47"/>
      <use x="200.806641" xlink:href="#DejaVuSans-41"/>
     </g>
    </g>
    <g id="line2d_21">
     <path d="M 111.559375 103.964531 
L 141.559375 103.964531 
" style="fill:none;stroke:#ff0000;stroke-dasharray:5.55,2.4;stroke-dashoffset:0;stroke-width:1.5;"/>
    </g>
    <g id="line2d_22"/>
    <g id="text_18">
     <!-- Median score GAN = 0.73 -->
     <g transform="translate(153.559375 109.214531)scale(0.18 -0.18)">
      <defs>
       <path d="M 628 4666 
L 1478 4666 
L 3547 763 
L 3547 4666 
L 4159 4666 
L 4159 0 
L 3309 0 
L 1241 3903 
L 1241 0 
L 628 0 
L 628 4666 
z
" id="DejaVuSans-4e" transform="scale(0.015625)"/>
       <path d="M 525 4666 
L 3525 4666 
L 3525 4397 
L 1831 0 
L 1172 0 
L 2766 4134 
L 525 4134 
L 525 4666 
z
" id="DejaVuSans-37" transform="scale(0.015625)"/>
      </defs>
      <use xlink:href="#DejaVuSans-4d"/>
      <use x="86.279297" xlink:href="#DejaVuSans-65"/>
      <use x="147.802734" xlink:href="#DejaVuSans-64"/>
      <use x="211.279297" xlink:href="#DejaVuSans-69"/>
      <use x="239.0625" xlink:href="#DejaVuSans-61"/>
      <use x="300.341797" xlink:href="#DejaVuSans-6e"/>
      <use x="363.720703" xlink:href="#DejaVuSans-20"/>
      <use x="395.507812" xlink:href="#DejaVuSans-73"/>
      <use x="447.607422" xlink:href="#DejaVuSans-63"/>
      <use x="502.587891" xlink:href="#DejaVuSans-6f"/>
      <use x="563.769531" xlink:href="#DejaVuSans-72"/>
      <use x="602.632812" xlink:href="#DejaVuSans-65"/>
      <use x="664.15625" xlink:href="#DejaVuSans-20"/>
      <use x="695.943359" xlink:href="#DejaVuSans-47"/>
      <use x="773.433594" xlink:href="#DejaVuSans-41"/>
      <use x="841.841797" xlink:href="#DejaVuSans-4e"/>
      <use x="916.646484" xlink:href="#DejaVuSans-20"/>
      <use x="948.433594" xlink:href="#DejaVuSans-3d"/>
      <use x="1032.222656" xlink:href="#DejaVuSans-20"/>
      <use x="1064.009766" xlink:href="#DejaVuSans-30"/>
      <use x="1127.632812" xlink:href="#DejaVuSans-2e"/>
      <use x="1159.419922" xlink:href="#DejaVuSans-37"/>
      <use x="1223.042969" xlink:href="#DejaVuSans-33"/>
     </g>
    </g>
    <g id="line2d_23">
     <path d="M 111.559375 128.885156 
L 141.559375 128.885156 
" style="fill:none;stroke:#ff0000;stroke-linecap:square;stroke-width:1.5;"/>
    </g>
    <g id="line2d_24"/>
    <g id="text_19">
     <!-- GAN -->
     <g transform="translate(153.559375 134.135156)scale(0.18 -0.18)">
      <use xlink:href="#DejaVuSans-47"/>
      <use x="77.490234" xlink:href="#DejaVuSans-41"/>
      <use x="145.898438" xlink:href="#DejaVuSans-4e"/>
     </g>
    </g>
   </g>
  </g>
 </g>
 <defs>
  <clipPath id="peb2c6fac1b">
   <rect height="434.88" width="558" x="98.059375" y="32.196094"/>
  </clipPath>
 </defs>
</svg>
