<?xml version="1.0" encoding="utf-8" standalone="no"?>
<!DOCTYPE svg PUBLIC "-//W3C//DTD SVG 1.1//EN"
  "http://www.w3.org/Graphics/SVG/1.1/DTD/svg11.dtd">
<svg height="533.666719pt" version="1.1" viewBox="0 0 665.871011 533.666719" width="665.871011pt" xmlns="http://www.w3.org/2000/svg" xmlns:xlink="http://www.w3.org/1999/xlink">
 <metadata>
  <rdf:RDF xmlns:cc="http://creativecommons.org/ns#" xmlns:dc="http://purl.org/dc/elements/1.1/" xmlns:rdf="http://www.w3.org/1999/02/22-rdf-syntax-ns#">
   <cc:Work>
    <dc:type rdf:resource="http://purl.org/dc/dcmitype/StillImage"/>
    <dc:date>2022-03-18T22:46:25.916876</dc:date>
    <dc:format>image/svg+xml</dc:format>
    <dc:creator>
     <cc:Agent>
      <dc:title>Matplotlib v3.4.3, https://matplotlib.org/</dc:title>
     </cc:Agent>
    </dc:creator>
   </cc:Work>
  </rdf:RDF>
 </metadata>
 <defs>
  <style type="text/css">*{stroke-linecap:butt;stroke-linejoin:round;}</style>
 </defs>
 <g id="figure_1">
  <g id="axes_1">
   <g id="patch_1">
    <path d="M 98.059375 467.076094 
L 656.059375 467.076094 
L 656.059375 32.196094 
L 98.059375 32.196094 
z
" style="fill:#ffffff;"/>
   </g>
   <g id="patch_2">
    <path clip-path="url(#pfc451741a2)" d="M 123.423011 467.076094 
L 133.991193 467.076094 
L 133.991193 451.032855 
L 123.423011 451.032855 
z
" style="fill:#0000ff;fill-opacity:0.5;stroke:#000000;stroke-linejoin:miter;"/>
   </g>
   <g id="patch_3">
    <path clip-path="url(#pfc451741a2)" d="M 133.991193 467.076094 
L 144.559375 467.076094 
L 144.559375 461.728347 
L 133.991193 461.728347 
z
" style="fill:#0000ff;fill-opacity:0.5;stroke:#000000;stroke-linejoin:miter;"/>
   </g>
   <g id="patch_4">
    <path clip-path="url(#pfc451741a2)" d="M 144.559375 467.076094 
L 155.127557 467.076094 
L 155.127557 434.989616 
L 144.559375 434.989616 
z
" style="fill:#0000ff;fill-opacity:0.5;stroke:#000000;stroke-linejoin:miter;"/>
   </g>
   <g id="patch_5">
    <path clip-path="url(#pfc451741a2)" d="M 155.127557 467.076094 
L 165.695739 467.076094 
L 165.695739 424.294124 
L 155.127557 424.294124 
z
" style="fill:#0000ff;fill-opacity:0.5;stroke:#000000;stroke-linejoin:miter;"/>
   </g>
   <g id="patch_6">
    <path clip-path="url(#pfc451741a2)" d="M 165.695739 467.076094 
L 176.26392 467.076094 
L 176.26392 456.380601 
L 165.695739 456.380601 
z
" style="fill:#0000ff;fill-opacity:0.5;stroke:#000000;stroke-linejoin:miter;"/>
   </g>
   <g id="patch_7">
    <path clip-path="url(#pfc451741a2)" d="M 176.26392 467.076094 
L 186.832102 467.076094 
L 186.832102 434.989616 
L 176.26392 434.989616 
z
" style="fill:#0000ff;fill-opacity:0.5;stroke:#000000;stroke-linejoin:miter;"/>
   </g>
   <g id="patch_8">
    <path clip-path="url(#pfc451741a2)" d="M 186.832102 467.076094 
L 197.400284 467.076094 
L 197.400284 429.64187 
L 186.832102 429.64187 
z
" style="fill:#0000ff;fill-opacity:0.5;stroke:#000000;stroke-linejoin:miter;"/>
   </g>
   <g id="patch_9">
    <path clip-path="url(#pfc451741a2)" d="M 197.400284 467.076094 
L 207.968466 467.076094 
L 207.968466 408.250885 
L 197.400284 408.250885 
z
" style="fill:#0000ff;fill-opacity:0.5;stroke:#000000;stroke-linejoin:miter;"/>
   </g>
   <g id="patch_10">
    <path clip-path="url(#pfc451741a2)" d="M 207.968466 467.076094 
L 218.536648 467.076094 
L 218.536648 445.685109 
L 207.968466 445.685109 
z
" style="fill:#0000ff;fill-opacity:0.5;stroke:#000000;stroke-linejoin:miter;"/>
   </g>
   <g id="patch_11">
    <path clip-path="url(#pfc451741a2)" d="M 218.536648 467.076094 
L 229.10483 467.076094 
L 229.10483 413.598631 
L 218.536648 413.598631 
z
" style="fill:#0000ff;fill-opacity:0.5;stroke:#000000;stroke-linejoin:miter;"/>
   </g>
   <g id="patch_12">
    <path clip-path="url(#pfc451741a2)" d="M 229.10483 467.076094 
L 239.673011 467.076094 
L 239.673011 376.164407 
L 229.10483 376.164407 
z
" style="fill:#0000ff;fill-opacity:0.5;stroke:#000000;stroke-linejoin:miter;"/>
   </g>
   <g id="patch_13">
    <path clip-path="url(#pfc451741a2)" d="M 239.673011 467.076094 
L 250.241193 467.076094 
L 250.241193 402.903139 
L 239.673011 402.903139 
z
" style="fill:#0000ff;fill-opacity:0.5;stroke:#000000;stroke-linejoin:miter;"/>
   </g>
   <g id="patch_14">
    <path clip-path="url(#pfc451741a2)" d="M 250.241193 467.076094 
L 260.809375 467.076094 
L 260.809375 365.468915 
L 250.241193 365.468915 
z
" style="fill:#0000ff;fill-opacity:0.5;stroke:#000000;stroke-linejoin:miter;"/>
   </g>
   <g id="patch_15">
    <path clip-path="url(#pfc451741a2)" d="M 260.809375 467.076094 
L 271.377557 467.076094 
L 271.377557 349.425676 
L 260.809375 349.425676 
z
" style="fill:#0000ff;fill-opacity:0.5;stroke:#000000;stroke-linejoin:miter;"/>
   </g>
   <g id="patch_16">
    <path clip-path="url(#pfc451741a2)" d="M 271.377557 467.076094 
L 281.945739 467.076094 
L 281.945739 365.468915 
L 271.377557 365.468915 
z
" style="fill:#0000ff;fill-opacity:0.5;stroke:#000000;stroke-linejoin:miter;"/>
   </g>
   <g id="patch_17">
    <path clip-path="url(#pfc451741a2)" d="M 281.945739 467.076094 
L 292.51392 467.076094 
L 292.51392 311.991452 
L 281.945739 311.991452 
z
" style="fill:#0000ff;fill-opacity:0.5;stroke:#000000;stroke-linejoin:miter;"/>
   </g>
   <g id="patch_18">
    <path clip-path="url(#pfc451741a2)" d="M 292.51392 467.076094 
L 303.082102 467.076094 
L 303.082102 338.730183 
L 292.51392 338.730183 
z
" style="fill:#0000ff;fill-opacity:0.5;stroke:#000000;stroke-linejoin:miter;"/>
   </g>
   <g id="patch_19">
    <path clip-path="url(#pfc451741a2)" d="M 303.082102 467.076094 
L 313.650284 467.076094 
L 313.650284 295.948213 
L 303.082102 295.948213 
z
" style="fill:#0000ff;fill-opacity:0.5;stroke:#000000;stroke-linejoin:miter;"/>
   </g>
   <g id="patch_20">
    <path clip-path="url(#pfc451741a2)" d="M 313.650284 467.076094 
L 324.218466 467.076094 
L 324.218466 301.295959 
L 313.650284 301.295959 
z
" style="fill:#0000ff;fill-opacity:0.5;stroke:#000000;stroke-linejoin:miter;"/>
   </g>
   <g id="patch_21">
    <path clip-path="url(#pfc451741a2)" d="M 324.218466 467.076094 
L 334.786648 467.076094 
L 334.786648 311.991452 
L 324.218466 311.991452 
z
" style="fill:#0000ff;fill-opacity:0.5;stroke:#000000;stroke-linejoin:miter;"/>
   </g>
   <g id="patch_22">
    <path clip-path="url(#pfc451741a2)" d="M 334.786648 467.076094 
L 345.35483 467.076094 
L 345.35483 301.295959 
L 334.786648 301.295959 
z
" style="fill:#0000ff;fill-opacity:0.5;stroke:#000000;stroke-linejoin:miter;"/>
   </g>
   <g id="patch_23">
    <path clip-path="url(#pfc451741a2)" d="M 345.35483 467.076094 
L 355.923011 467.076094 
L 355.923011 263.861735 
L 345.35483 263.861735 
z
" style="fill:#0000ff;fill-opacity:0.5;stroke:#000000;stroke-linejoin:miter;"/>
   </g>
   <g id="patch_24">
    <path clip-path="url(#pfc451741a2)" d="M 355.923011 467.076094 
L 366.491193 467.076094 
L 366.491193 301.295959 
L 355.923011 301.295959 
z
" style="fill:#0000ff;fill-opacity:0.5;stroke:#000000;stroke-linejoin:miter;"/>
   </g>
   <g id="patch_25">
    <path clip-path="url(#pfc451741a2)" d="M 366.491193 467.076094 
L 377.059375 467.076094 
L 377.059375 258.513989 
L 366.491193 258.513989 
z
" style="fill:#0000ff;fill-opacity:0.5;stroke:#000000;stroke-linejoin:miter;"/>
   </g>
   <g id="patch_26">
    <path clip-path="url(#pfc451741a2)" d="M 377.059375 467.076094 
L 387.627557 467.076094 
L 387.627557 279.904974 
L 377.059375 279.904974 
z
" style="fill:#0000ff;fill-opacity:0.5;stroke:#000000;stroke-linejoin:miter;"/>
   </g>
   <g id="patch_27">
    <path clip-path="url(#pfc451741a2)" d="M 387.627557 467.076094 
L 398.195739 467.076094 
L 398.195739 226.427512 
L 387.627557 226.427512 
z
" style="fill:#0000ff;fill-opacity:0.5;stroke:#000000;stroke-linejoin:miter;"/>
   </g>
   <g id="patch_28">
    <path clip-path="url(#pfc451741a2)" d="M 398.195739 467.076094 
L 408.76392 467.076094 
L 408.76392 263.861735 
L 398.195739 263.861735 
z
" style="fill:#0000ff;fill-opacity:0.5;stroke:#000000;stroke-linejoin:miter;"/>
   </g>
   <g id="patch_29">
    <path clip-path="url(#pfc451741a2)" d="M 408.76392 467.076094 
L 419.332102 467.076094 
L 419.332102 317.339198 
L 408.76392 317.339198 
z
" style="fill:#0000ff;fill-opacity:0.5;stroke:#000000;stroke-linejoin:miter;"/>
   </g>
   <g id="patch_30">
    <path clip-path="url(#pfc451741a2)" d="M 419.332102 467.076094 
L 429.900284 467.076094 
L 429.900284 328.034691 
L 419.332102 328.034691 
z
" style="fill:#0000ff;fill-opacity:0.5;stroke:#000000;stroke-linejoin:miter;"/>
   </g>
   <g id="patch_31">
    <path clip-path="url(#pfc451741a2)" d="M 429.900284 467.076094 
L 440.468466 467.076094 
L 440.468466 269.209482 
L 429.900284 269.209482 
z
" style="fill:#0000ff;fill-opacity:0.5;stroke:#000000;stroke-linejoin:miter;"/>
   </g>
   <g id="patch_32">
    <path clip-path="url(#pfc451741a2)" d="M 440.468466 467.076094 
L 451.036648 467.076094 
L 451.036648 360.121168 
L 440.468466 360.121168 
z
" style="fill:#0000ff;fill-opacity:0.5;stroke:#000000;stroke-linejoin:miter;"/>
   </g>
   <g id="patch_33">
    <path clip-path="url(#pfc451741a2)" d="M 451.036648 467.076094 
L 461.60483 467.076094 
L 461.60483 333.382437 
L 451.036648 333.382437 
z
" style="fill:#0000ff;fill-opacity:0.5;stroke:#000000;stroke-linejoin:miter;"/>
   </g>
   <g id="patch_34">
    <path clip-path="url(#pfc451741a2)" d="M 461.60483 467.076094 
L 472.173011 467.076094 
L 472.173011 279.904974 
L 461.60483 279.904974 
z
" style="fill:#0000ff;fill-opacity:0.5;stroke:#000000;stroke-linejoin:miter;"/>
   </g>
   <g id="patch_35">
    <path clip-path="url(#pfc451741a2)" d="M 472.173011 467.076094 
L 482.741193 467.076094 
L 482.741193 333.382437 
L 472.173011 333.382437 
z
" style="fill:#0000ff;fill-opacity:0.5;stroke:#000000;stroke-linejoin:miter;"/>
   </g>
   <g id="patch_36">
    <path clip-path="url(#pfc451741a2)" d="M 482.741193 467.076094 
L 493.309375 467.076094 
L 493.309375 349.425676 
L 482.741193 349.425676 
z
" style="fill:#0000ff;fill-opacity:0.5;stroke:#000000;stroke-linejoin:miter;"/>
   </g>
   <g id="patch_37">
    <path clip-path="url(#pfc451741a2)" d="M 493.309375 467.076094 
L 503.877557 467.076094 
L 503.877557 386.8599 
L 493.309375 386.8599 
z
" style="fill:#0000ff;fill-opacity:0.5;stroke:#000000;stroke-linejoin:miter;"/>
   </g>
   <g id="patch_38">
    <path clip-path="url(#pfc451741a2)" d="M 503.877557 467.076094 
L 514.445739 467.076094 
L 514.445739 408.250885 
L 503.877557 408.250885 
z
" style="fill:#0000ff;fill-opacity:0.5;stroke:#000000;stroke-linejoin:miter;"/>
   </g>
   <g id="patch_39">
    <path clip-path="url(#pfc451741a2)" d="M 514.445739 467.076094 
L 525.01392 467.076094 
L 525.01392 413.598631 
L 514.445739 413.598631 
z
" style="fill:#0000ff;fill-opacity:0.5;stroke:#000000;stroke-linejoin:miter;"/>
   </g>
   <g id="patch_40">
    <path clip-path="url(#pfc451741a2)" d="M 525.01392 467.076094 
L 535.582102 467.076094 
L 535.582102 434.989616 
L 525.01392 434.989616 
z
" style="fill:#0000ff;fill-opacity:0.5;stroke:#000000;stroke-linejoin:miter;"/>
   </g>
   <g id="patch_41">
    <path clip-path="url(#pfc451741a2)" d="M 535.582102 467.076094 
L 546.150284 467.076094 
L 546.150284 440.337362 
L 535.582102 440.337362 
z
" style="fill:#0000ff;fill-opacity:0.5;stroke:#000000;stroke-linejoin:miter;"/>
   </g>
   <g id="patch_42">
    <path clip-path="url(#pfc451741a2)" d="M 546.150284 467.076094 
L 556.718466 467.076094 
L 556.718466 440.337362 
L 546.150284 440.337362 
z
" style="fill:#0000ff;fill-opacity:0.5;stroke:#000000;stroke-linejoin:miter;"/>
   </g>
   <g id="patch_43">
    <path clip-path="url(#pfc451741a2)" d="M 556.718466 467.076094 
L 567.286648 467.076094 
L 567.286648 461.728347 
L 556.718466 461.728347 
z
" style="fill:#0000ff;fill-opacity:0.5;stroke:#000000;stroke-linejoin:miter;"/>
   </g>
   <g id="patch_44">
    <path clip-path="url(#pfc451741a2)" d="M 567.286648 467.076094 
L 577.85483 467.076094 
L 577.85483 461.728347 
L 567.286648 461.728347 
z
" style="fill:#0000ff;fill-opacity:0.5;stroke:#000000;stroke-linejoin:miter;"/>
   </g>
   <g id="patch_45">
    <path clip-path="url(#pfc451741a2)" d="M 577.85483 467.076094 
L 588.423011 467.076094 
L 588.423011 467.076094 
L 577.85483 467.076094 
z
" style="fill:#0000ff;fill-opacity:0.5;stroke:#000000;stroke-linejoin:miter;"/>
   </g>
   <g id="patch_46">
    <path clip-path="url(#pfc451741a2)" d="M 588.423011 467.076094 
L 598.991193 467.076094 
L 598.991193 461.728347 
L 588.423011 461.728347 
z
" style="fill:#0000ff;fill-opacity:0.5;stroke:#000000;stroke-linejoin:miter;"/>
   </g>
   <g id="patch_47">
    <path clip-path="url(#pfc451741a2)" d="M 598.991193 467.076094 
L 609.559375 467.076094 
L 609.559375 467.076094 
L 598.991193 467.076094 
z
" style="fill:#0000ff;fill-opacity:0.5;stroke:#000000;stroke-linejoin:miter;"/>
   </g>
   <g id="patch_48">
    <path clip-path="url(#pfc451741a2)" d="M 609.559375 467.076094 
L 620.127557 467.076094 
L 620.127557 467.076094 
L 609.559375 467.076094 
z
" style="fill:#0000ff;fill-opacity:0.5;stroke:#000000;stroke-linejoin:miter;"/>
   </g>
   <g id="patch_49">
    <path clip-path="url(#pfc451741a2)" d="M 620.127557 467.076094 
L 630.695739 467.076094 
L 630.695739 461.728347 
L 620.127557 461.728347 
z
" style="fill:#0000ff;fill-opacity:0.5;stroke:#000000;stroke-linejoin:miter;"/>
   </g>
   <g id="patch_50">
    <path clip-path="url(#pfc451741a2)" d="M 159.16202 467.076094 
L 169.730202 467.076094 
L 169.730202 462.086077 
L 159.16202 462.086077 
z
" style="fill:#ff0000;fill-opacity:0.5;stroke:#000000;stroke-linejoin:miter;"/>
   </g>
   <g id="patch_51">
    <path clip-path="url(#pfc451741a2)" d="M 169.730202 467.076094 
L 180.298384 467.076094 
L 180.298384 467.076094 
L 169.730202 467.076094 
z
" style="fill:#ff0000;fill-opacity:0.5;stroke:#000000;stroke-linejoin:miter;"/>
   </g>
   <g id="patch_52">
    <path clip-path="url(#pfc451741a2)" d="M 180.298384 467.076094 
L 190.866566 467.076094 
L 190.866566 467.076094 
L 180.298384 467.076094 
z
" style="fill:#ff0000;fill-opacity:0.5;stroke:#000000;stroke-linejoin:miter;"/>
   </g>
   <g id="patch_53">
    <path clip-path="url(#pfc451741a2)" d="M 190.866566 467.076094 
L 201.434747 467.076094 
L 201.434747 467.076094 
L 190.866566 467.076094 
z
" style="fill:#ff0000;fill-opacity:0.5;stroke:#000000;stroke-linejoin:miter;"/>
   </g>
   <g id="patch_54">
    <path clip-path="url(#pfc451741a2)" d="M 201.434747 467.076094 
L 212.002929 467.076094 
L 212.002929 462.086077 
L 201.434747 462.086077 
z
" style="fill:#ff0000;fill-opacity:0.5;stroke:#000000;stroke-linejoin:miter;"/>
   </g>
   <g id="patch_55">
    <path clip-path="url(#pfc451741a2)" d="M 212.002929 467.076094 
L 222.571111 467.076094 
L 222.571111 467.076094 
L 212.002929 467.076094 
z
" style="fill:#ff0000;fill-opacity:0.5;stroke:#000000;stroke-linejoin:miter;"/>
   </g>
   <g id="patch_56">
    <path clip-path="url(#pfc451741a2)" d="M 222.571111 467.076094 
L 233.139293 467.076094 
L 233.139293 447.116025 
L 222.571111 447.116025 
z
" style="fill:#ff0000;fill-opacity:0.5;stroke:#000000;stroke-linejoin:miter;"/>
   </g>
   <g id="patch_57">
    <path clip-path="url(#pfc451741a2)" d="M 233.139293 467.076094 
L 243.707475 467.076094 
L 243.707475 447.116025 
L 233.139293 447.116025 
z
" style="fill:#ff0000;fill-opacity:0.5;stroke:#000000;stroke-linejoin:miter;"/>
   </g>
   <g id="patch_58">
    <path clip-path="url(#pfc451741a2)" d="M 243.707475 467.076094 
L 254.275657 467.076094 
L 254.275657 367.27575 
L 243.707475 367.27575 
z
" style="fill:#ff0000;fill-opacity:0.5;stroke:#000000;stroke-linejoin:miter;"/>
   </g>
   <g id="patch_59">
    <path clip-path="url(#pfc451741a2)" d="M 254.275657 467.076094 
L 264.843838 467.076094 
L 264.843838 317.375577 
L 254.275657 317.375577 
z
" style="fill:#ff0000;fill-opacity:0.5;stroke:#000000;stroke-linejoin:miter;"/>
   </g>
   <g id="patch_60">
    <path clip-path="url(#pfc451741a2)" d="M 264.843838 467.076094 
L 275.41202 467.076094 
L 275.41202 252.505354 
L 264.843838 252.505354 
z
" style="fill:#ff0000;fill-opacity:0.5;stroke:#000000;stroke-linejoin:miter;"/>
   </g>
   <g id="patch_61">
    <path clip-path="url(#pfc451741a2)" d="M 275.41202 467.076094 
L 285.980202 467.076094 
L 285.980202 147.714992 
L 275.41202 147.714992 
z
" style="fill:#ff0000;fill-opacity:0.5;stroke:#000000;stroke-linejoin:miter;"/>
   </g>
   <g id="patch_62">
    <path clip-path="url(#pfc451741a2)" d="M 285.980202 467.076094 
L 296.548384 467.076094 
L 296.548384 92.824803 
L 285.980202 92.824803 
z
" style="fill:#ff0000;fill-opacity:0.5;stroke:#000000;stroke-linejoin:miter;"/>
   </g>
   <g id="patch_63">
    <path clip-path="url(#pfc451741a2)" d="M 296.548384 467.076094 
L 307.116566 467.076094 
L 307.116566 52.904665 
L 296.548384 52.904665 
z
" style="fill:#ff0000;fill-opacity:0.5;stroke:#000000;stroke-linejoin:miter;"/>
   </g>
   <g id="patch_64">
    <path clip-path="url(#pfc451741a2)" d="M 307.116566 467.076094 
L 317.684747 467.076094 
L 317.684747 132.744941 
L 307.116566 132.744941 
z
" style="fill:#ff0000;fill-opacity:0.5;stroke:#000000;stroke-linejoin:miter;"/>
   </g>
   <g id="patch_65">
    <path clip-path="url(#pfc451741a2)" d="M 317.684747 467.076094 
L 328.252929 467.076094 
L 328.252929 132.744941 
L 317.684747 132.744941 
z
" style="fill:#ff0000;fill-opacity:0.5;stroke:#000000;stroke-linejoin:miter;"/>
   </g>
   <g id="patch_66">
    <path clip-path="url(#pfc451741a2)" d="M 328.252929 467.076094 
L 338.821111 467.076094 
L 338.821111 207.595199 
L 328.252929 207.595199 
z
" style="fill:#ff0000;fill-opacity:0.5;stroke:#000000;stroke-linejoin:miter;"/>
   </g>
   <g id="patch_67">
    <path clip-path="url(#pfc451741a2)" d="M 338.821111 467.076094 
L 349.389293 467.076094 
L 349.389293 292.425491 
L 338.821111 292.425491 
z
" style="fill:#ff0000;fill-opacity:0.5;stroke:#000000;stroke-linejoin:miter;"/>
   </g>
   <g id="patch_68">
    <path clip-path="url(#pfc451741a2)" d="M 349.389293 467.076094 
L 359.957475 467.076094 
L 359.957475 277.45544 
L 349.389293 277.45544 
z
" style="fill:#ff0000;fill-opacity:0.5;stroke:#000000;stroke-linejoin:miter;"/>
   </g>
   <g id="patch_69">
    <path clip-path="url(#pfc451741a2)" d="M 359.957475 467.076094 
L 370.525657 467.076094 
L 370.525657 302.405526 
L 359.957475 302.405526 
z
" style="fill:#ff0000;fill-opacity:0.5;stroke:#000000;stroke-linejoin:miter;"/>
   </g>
   <g id="patch_70">
    <path clip-path="url(#pfc451741a2)" d="M 370.525657 467.076094 
L 381.093838 467.076094 
L 381.093838 312.38556 
L 370.525657 312.38556 
z
" style="fill:#ff0000;fill-opacity:0.5;stroke:#000000;stroke-linejoin:miter;"/>
   </g>
   <g id="patch_71">
    <path clip-path="url(#pfc451741a2)" d="M 381.093838 467.076094 
L 391.66202 467.076094 
L 391.66202 342.325663 
L 381.093838 342.325663 
z
" style="fill:#ff0000;fill-opacity:0.5;stroke:#000000;stroke-linejoin:miter;"/>
   </g>
   <g id="patch_72">
    <path clip-path="url(#pfc451741a2)" d="M 391.66202 467.076094 
L 402.230202 467.076094 
L 402.230202 272.465422 
L 391.66202 272.465422 
z
" style="fill:#ff0000;fill-opacity:0.5;stroke:#000000;stroke-linejoin:miter;"/>
   </g>
   <g id="patch_73">
    <path clip-path="url(#pfc451741a2)" d="M 402.230202 467.076094 
L 412.798384 467.076094 
L 412.798384 352.305698 
L 402.230202 352.305698 
z
" style="fill:#ff0000;fill-opacity:0.5;stroke:#000000;stroke-linejoin:miter;"/>
   </g>
   <g id="patch_74">
    <path clip-path="url(#pfc451741a2)" d="M 412.798384 467.076094 
L 423.366566 467.076094 
L 423.366566 347.315681 
L 412.798384 347.315681 
z
" style="fill:#ff0000;fill-opacity:0.5;stroke:#000000;stroke-linejoin:miter;"/>
   </g>
   <g id="patch_75">
    <path clip-path="url(#pfc451741a2)" d="M 423.366566 467.076094 
L 433.934747 467.076094 
L 433.934747 372.265767 
L 423.366566 372.265767 
z
" style="fill:#ff0000;fill-opacity:0.5;stroke:#000000;stroke-linejoin:miter;"/>
   </g>
   <g id="patch_76">
    <path clip-path="url(#pfc451741a2)" d="M 433.934747 467.076094 
L 444.502929 467.076094 
L 444.502929 377.255784 
L 433.934747 377.255784 
z
" style="fill:#ff0000;fill-opacity:0.5;stroke:#000000;stroke-linejoin:miter;"/>
   </g>
   <g id="patch_77">
    <path clip-path="url(#pfc451741a2)" d="M 444.502929 467.076094 
L 455.071111 467.076094 
L 455.071111 377.255784 
L 444.502929 377.255784 
z
" style="fill:#ff0000;fill-opacity:0.5;stroke:#000000;stroke-linejoin:miter;"/>
   </g>
   <g id="patch_78">
    <path clip-path="url(#pfc451741a2)" d="M 455.071111 467.076094 
L 465.639293 467.076094 
L 465.639293 372.265767 
L 455.071111 372.265767 
z
" style="fill:#ff0000;fill-opacity:0.5;stroke:#000000;stroke-linejoin:miter;"/>
   </g>
   <g id="patch_79">
    <path clip-path="url(#pfc451741a2)" d="M 465.639293 467.076094 
L 476.207475 467.076094 
L 476.207475 387.235818 
L 465.639293 387.235818 
z
" style="fill:#ff0000;fill-opacity:0.5;stroke:#000000;stroke-linejoin:miter;"/>
   </g>
   <g id="patch_80">
    <path clip-path="url(#pfc451741a2)" d="M 476.207475 467.076094 
L 486.775657 467.076094 
L 486.775657 437.13599 
L 476.207475 437.13599 
z
" style="fill:#ff0000;fill-opacity:0.5;stroke:#000000;stroke-linejoin:miter;"/>
   </g>
   <g id="patch_81">
    <path clip-path="url(#pfc451741a2)" d="M 486.775657 467.076094 
L 497.343838 467.076094 
L 497.343838 437.13599 
L 486.775657 437.13599 
z
" style="fill:#ff0000;fill-opacity:0.5;stroke:#000000;stroke-linejoin:miter;"/>
   </g>
   <g id="patch_82">
    <path clip-path="url(#pfc451741a2)" d="M 497.343838 467.076094 
L 507.91202 467.076094 
L 507.91202 462.086077 
L 497.343838 462.086077 
z
" style="fill:#ff0000;fill-opacity:0.5;stroke:#000000;stroke-linejoin:miter;"/>
   </g>
   <g id="patch_83">
    <path clip-path="url(#pfc451741a2)" d="M 507.91202 467.076094 
L 518.480202 467.076094 
L 518.480202 442.126008 
L 507.91202 442.126008 
z
" style="fill:#ff0000;fill-opacity:0.5;stroke:#000000;stroke-linejoin:miter;"/>
   </g>
   <g id="patch_84">
    <path clip-path="url(#pfc451741a2)" d="M 518.480202 467.076094 
L 529.048384 467.076094 
L 529.048384 412.185904 
L 518.480202 412.185904 
z
" style="fill:#ff0000;fill-opacity:0.5;stroke:#000000;stroke-linejoin:miter;"/>
   </g>
   <g id="patch_85">
    <path clip-path="url(#pfc451741a2)" d="M 529.048384 467.076094 
L 539.616566 467.076094 
L 539.616566 467.076094 
L 529.048384 467.076094 
z
" style="fill:#ff0000;fill-opacity:0.5;stroke:#000000;stroke-linejoin:miter;"/>
   </g>
   <g id="patch_86">
    <path clip-path="url(#pfc451741a2)" d="M 539.616566 467.076094 
L 550.184747 467.076094 
L 550.184747 467.076094 
L 539.616566 467.076094 
z
" style="fill:#ff0000;fill-opacity:0.5;stroke:#000000;stroke-linejoin:miter;"/>
   </g>
   <g id="patch_87">
    <path clip-path="url(#pfc451741a2)" d="M 550.184747 467.076094 
L 560.752929 467.076094 
L 560.752929 467.076094 
L 550.184747 467.076094 
z
" style="fill:#ff0000;fill-opacity:0.5;stroke:#000000;stroke-linejoin:miter;"/>
   </g>
   <g id="patch_88">
    <path clip-path="url(#pfc451741a2)" d="M 560.752929 467.076094 
L 571.321111 467.076094 
L 571.321111 462.086077 
L 560.752929 462.086077 
z
" style="fill:#ff0000;fill-opacity:0.5;stroke:#000000;stroke-linejoin:miter;"/>
   </g>
   <g id="patch_89">
    <path clip-path="url(#pfc451741a2)" d="M 571.321111 467.076094 
L 581.889293 467.076094 
L 581.889293 452.106042 
L 571.321111 452.106042 
z
" style="fill:#ff0000;fill-opacity:0.5;stroke:#000000;stroke-linejoin:miter;"/>
   </g>
   <g id="matplotlib.axis_1">
    <g id="xtick_1">
     <g id="line2d_1">
      <defs>
       <path d="M 0 0 
L 0 3.5 
" id="mf3f4216d34" style="stroke:#000000;stroke-width:0.8;"/>
      </defs>
      <g>
       <use style="stroke:#000000;stroke-width:0.8;" x="110.383014" xlink:href="#mf3f4216d34" y="467.076094"/>
      </g>
     </g>
     <g id="text_1">
      <!-- 0.0 -->
      <g transform="translate(90.504108 493.072187)scale(0.25 -0.25)">
       <defs>
        <path d="M 2034 4250 
Q 1547 4250 1301 3770 
Q 1056 3291 1056 2328 
Q 1056 1369 1301 889 
Q 1547 409 2034 409 
Q 2525 409 2770 889 
Q 3016 1369 3016 2328 
Q 3016 3291 2770 3770 
Q 2525 4250 2034 4250 
z
M 2034 4750 
Q 2819 4750 3233 4129 
Q 3647 3509 3647 2328 
Q 3647 1150 3233 529 
Q 2819 -91 2034 -91 
Q 1250 -91 836 529 
Q 422 1150 422 2328 
Q 422 3509 836 4129 
Q 1250 4750 2034 4750 
z
" id="DejaVuSans-30" transform="scale(0.015625)"/>
        <path d="M 684 794 
L 1344 794 
L 1344 0 
L 684 0 
L 684 794 
z
" id="DejaVuSans-2e" transform="scale(0.015625)"/>
       </defs>
       <use xlink:href="#DejaVuSans-30"/>
       <use x="63.623047" xlink:href="#DejaVuSans-2e"/>
       <use x="95.410156" xlink:href="#DejaVuSans-30"/>
      </g>
     </g>
    </g>
    <g id="xtick_2">
     <g id="line2d_2">
      <g>
       <use style="stroke:#000000;stroke-width:0.8;" x="216.064832" xlink:href="#mf3f4216d34" y="467.076094"/>
      </g>
     </g>
     <g id="text_2">
      <!-- 0.2 -->
      <g transform="translate(196.185926 493.072187)scale(0.25 -0.25)">
       <defs>
        <path d="M 1228 531 
L 3431 531 
L 3431 0 
L 469 0 
L 469 531 
Q 828 903 1448 1529 
Q 2069 2156 2228 2338 
Q 2531 2678 2651 2914 
Q 2772 3150 2772 3378 
Q 2772 3750 2511 3984 
Q 2250 4219 1831 4219 
Q 1534 4219 1204 4116 
Q 875 4013 500 3803 
L 500 4441 
Q 881 4594 1212 4672 
Q 1544 4750 1819 4750 
Q 2544 4750 2975 4387 
Q 3406 4025 3406 3419 
Q 3406 3131 3298 2873 
Q 3191 2616 2906 2266 
Q 2828 2175 2409 1742 
Q 1991 1309 1228 531 
z
" id="DejaVuSans-32" transform="scale(0.015625)"/>
       </defs>
       <use xlink:href="#DejaVuSans-30"/>
       <use x="63.623047" xlink:href="#DejaVuSans-2e"/>
       <use x="95.410156" xlink:href="#DejaVuSans-32"/>
      </g>
     </g>
    </g>
    <g id="xtick_3">
     <g id="line2d_3">
      <g>
       <use style="stroke:#000000;stroke-width:0.8;" x="321.746651" xlink:href="#mf3f4216d34" y="467.076094"/>
      </g>
     </g>
     <g id="text_3">
      <!-- 0.4 -->
      <g transform="translate(301.867744 493.072187)scale(0.25 -0.25)">
       <defs>
        <path d="M 2419 4116 
L 825 1625 
L 2419 1625 
L 2419 4116 
z
M 2253 4666 
L 3047 4666 
L 3047 1625 
L 3713 1625 
L 3713 1100 
L 3047 1100 
L 3047 0 
L 2419 0 
L 2419 1100 
L 313 1100 
L 313 1709 
L 2253 4666 
z
" id="DejaVuSans-34" transform="scale(0.015625)"/>
       </defs>
       <use xlink:href="#DejaVuSans-30"/>
       <use x="63.623047" xlink:href="#DejaVuSans-2e"/>
       <use x="95.410156" xlink:href="#DejaVuSans-34"/>
      </g>
     </g>
    </g>
    <g id="xtick_4">
     <g id="line2d_4">
      <g>
       <use style="stroke:#000000;stroke-width:0.8;" x="427.428469" xlink:href="#mf3f4216d34" y="467.076094"/>
      </g>
     </g>
     <g id="text_4">
      <!-- 0.6 -->
      <g transform="translate(407.549563 493.072187)scale(0.25 -0.25)">
       <defs>
        <path d="M 2113 2584 
Q 1688 2584 1439 2293 
Q 1191 2003 1191 1497 
Q 1191 994 1439 701 
Q 1688 409 2113 409 
Q 2538 409 2786 701 
Q 3034 994 3034 1497 
Q 3034 2003 2786 2293 
Q 2538 2584 2113 2584 
z
M 3366 4563 
L 3366 3988 
Q 3128 4100 2886 4159 
Q 2644 4219 2406 4219 
Q 1781 4219 1451 3797 
Q 1122 3375 1075 2522 
Q 1259 2794 1537 2939 
Q 1816 3084 2150 3084 
Q 2853 3084 3261 2657 
Q 3669 2231 3669 1497 
Q 3669 778 3244 343 
Q 2819 -91 2113 -91 
Q 1303 -91 875 529 
Q 447 1150 447 2328 
Q 447 3434 972 4092 
Q 1497 4750 2381 4750 
Q 2619 4750 2861 4703 
Q 3103 4656 3366 4563 
z
" id="DejaVuSans-36" transform="scale(0.015625)"/>
       </defs>
       <use xlink:href="#DejaVuSans-30"/>
       <use x="63.623047" xlink:href="#DejaVuSans-2e"/>
       <use x="95.410156" xlink:href="#DejaVuSans-36"/>
      </g>
     </g>
    </g>
    <g id="xtick_5">
     <g id="line2d_5">
      <g>
       <use style="stroke:#000000;stroke-width:0.8;" x="533.110287" xlink:href="#mf3f4216d34" y="467.076094"/>
      </g>
     </g>
     <g id="text_5">
      <!-- 0.8 -->
      <g transform="translate(513.231381 493.072187)scale(0.25 -0.25)">
       <defs>
        <path d="M 2034 2216 
Q 1584 2216 1326 1975 
Q 1069 1734 1069 1313 
Q 1069 891 1326 650 
Q 1584 409 2034 409 
Q 2484 409 2743 651 
Q 3003 894 3003 1313 
Q 3003 1734 2745 1975 
Q 2488 2216 2034 2216 
z
M 1403 2484 
Q 997 2584 770 2862 
Q 544 3141 544 3541 
Q 544 4100 942 4425 
Q 1341 4750 2034 4750 
Q 2731 4750 3128 4425 
Q 3525 4100 3525 3541 
Q 3525 3141 3298 2862 
Q 3072 2584 2669 2484 
Q 3125 2378 3379 2068 
Q 3634 1759 3634 1313 
Q 3634 634 3220 271 
Q 2806 -91 2034 -91 
Q 1263 -91 848 271 
Q 434 634 434 1313 
Q 434 1759 690 2068 
Q 947 2378 1403 2484 
z
M 1172 3481 
Q 1172 3119 1398 2916 
Q 1625 2713 2034 2713 
Q 2441 2713 2670 2916 
Q 2900 3119 2900 3481 
Q 2900 3844 2670 4047 
Q 2441 4250 2034 4250 
Q 1625 4250 1398 4047 
Q 1172 3844 1172 3481 
z
" id="DejaVuSans-38" transform="scale(0.015625)"/>
       </defs>
       <use xlink:href="#DejaVuSans-30"/>
       <use x="63.623047" xlink:href="#DejaVuSans-2e"/>
       <use x="95.410156" xlink:href="#DejaVuSans-38"/>
      </g>
     </g>
    </g>
    <g id="xtick_6">
     <g id="line2d_6">
      <g>
       <use style="stroke:#000000;stroke-width:0.8;" x="638.792105" xlink:href="#mf3f4216d34" y="467.076094"/>
      </g>
     </g>
     <g id="text_6">
      <!-- 1.0 -->
      <g transform="translate(618.913199 493.072187)scale(0.25 -0.25)">
       <defs>
        <path d="M 794 531 
L 1825 531 
L 1825 4091 
L 703 3866 
L 703 4441 
L 1819 4666 
L 2450 4666 
L 2450 531 
L 3481 531 
L 3481 0 
L 794 0 
L 794 531 
z
" id="DejaVuSans-31" transform="scale(0.015625)"/>
       </defs>
       <use xlink:href="#DejaVuSans-31"/>
       <use x="63.623047" xlink:href="#DejaVuSans-2e"/>
       <use x="95.410156" xlink:href="#DejaVuSans-30"/>
      </g>
     </g>
    </g>
    <g id="text_7">
     <!-- HS -->
     <g transform="translate(359.723437 521.2675)scale(0.25 -0.25)">
      <defs>
       <path d="M 628 4666 
L 1259 4666 
L 1259 2753 
L 3553 2753 
L 3553 4666 
L 4184 4666 
L 4184 0 
L 3553 0 
L 3553 2222 
L 1259 2222 
L 1259 0 
L 628 0 
L 628 4666 
z
" id="DejaVuSans-48" transform="scale(0.015625)"/>
       <path d="M 3425 4513 
L 3425 3897 
Q 3066 4069 2747 4153 
Q 2428 4238 2131 4238 
Q 1616 4238 1336 4038 
Q 1056 3838 1056 3469 
Q 1056 3159 1242 3001 
Q 1428 2844 1947 2747 
L 2328 2669 
Q 3034 2534 3370 2195 
Q 3706 1856 3706 1288 
Q 3706 609 3251 259 
Q 2797 -91 1919 -91 
Q 1588 -91 1214 -16 
Q 841 59 441 206 
L 441 856 
Q 825 641 1194 531 
Q 1563 422 1919 422 
Q 2459 422 2753 634 
Q 3047 847 3047 1241 
Q 3047 1584 2836 1778 
Q 2625 1972 2144 2069 
L 1759 2144 
Q 1053 2284 737 2584 
Q 422 2884 422 3419 
Q 422 4038 858 4394 
Q 1294 4750 2059 4750 
Q 2388 4750 2728 4690 
Q 3069 4631 3425 4513 
z
" id="DejaVuSans-53" transform="scale(0.015625)"/>
      </defs>
      <use xlink:href="#DejaVuSans-48"/>
      <use x="75.195312" xlink:href="#DejaVuSans-53"/>
     </g>
    </g>
   </g>
   <g id="matplotlib.axis_2">
    <g id="ytick_1">
     <g id="line2d_7">
      <defs>
       <path d="M 0 0 
L -3.5 0 
" id="m600a4eb431" style="stroke:#000000;stroke-width:0.8;"/>
      </defs>
      <g>
       <use style="stroke:#000000;stroke-width:0.8;" x="98.059375" xlink:href="#m600a4eb431" y="467.076094"/>
      </g>
     </g>
     <g id="text_8">
      <!-- 0.0 -->
      <g transform="translate(51.301563 476.574141)scale(0.25 -0.25)">
       <use xlink:href="#DejaVuSans-30"/>
       <use x="63.623047" xlink:href="#DejaVuSans-2e"/>
       <use x="95.410156" xlink:href="#DejaVuSans-30"/>
      </g>
     </g>
    </g>
    <g id="ytick_2">
     <g id="line2d_8">
      <g>
       <use style="stroke:#000000;stroke-width:0.8;" x="98.059375" xlink:href="#m600a4eb431" y="379.05219"/>
      </g>
     </g>
     <g id="text_9">
      <!-- 0.02 -->
      <g transform="translate(35.395313 388.550237)scale(0.25 -0.25)">
       <use xlink:href="#DejaVuSans-30"/>
       <use x="63.623047" xlink:href="#DejaVuSans-2e"/>
       <use x="95.410156" xlink:href="#DejaVuSans-30"/>
       <use x="159.033203" xlink:href="#DejaVuSans-32"/>
      </g>
     </g>
    </g>
    <g id="ytick_3">
     <g id="line2d_9">
      <g>
       <use style="stroke:#000000;stroke-width:0.8;" x="98.059375" xlink:href="#m600a4eb431" y="291.028287"/>
      </g>
     </g>
     <g id="text_10">
      <!-- 0.04 -->
      <g transform="translate(35.395313 300.526333)scale(0.25 -0.25)">
       <use xlink:href="#DejaVuSans-30"/>
       <use x="63.623047" xlink:href="#DejaVuSans-2e"/>
       <use x="95.410156" xlink:href="#DejaVuSans-30"/>
       <use x="159.033203" xlink:href="#DejaVuSans-34"/>
      </g>
     </g>
    </g>
    <g id="ytick_4">
     <g id="line2d_10">
      <g>
       <use style="stroke:#000000;stroke-width:0.8;" x="98.059375" xlink:href="#m600a4eb431" y="203.004383"/>
      </g>
     </g>
     <g id="text_11">
      <!-- 0.06 -->
      <g transform="translate(35.395313 212.50243)scale(0.25 -0.25)">
       <use xlink:href="#DejaVuSans-30"/>
       <use x="63.623047" xlink:href="#DejaVuSans-2e"/>
       <use x="95.410156" xlink:href="#DejaVuSans-30"/>
       <use x="159.033203" xlink:href="#DejaVuSans-36"/>
      </g>
     </g>
    </g>
    <g id="ytick_5">
     <g id="line2d_11">
      <g>
       <use style="stroke:#000000;stroke-width:0.8;" x="98.059375" xlink:href="#m600a4eb431" y="114.980479"/>
      </g>
     </g>
     <g id="text_12">
      <!-- 0.08 -->
      <g transform="translate(35.395313 124.478526)scale(0.25 -0.25)">
       <use xlink:href="#DejaVuSans-30"/>
       <use x="63.623047" xlink:href="#DejaVuSans-2e"/>
       <use x="95.410156" xlink:href="#DejaVuSans-30"/>
       <use x="159.033203" xlink:href="#DejaVuSans-38"/>
      </g>
     </g>
    </g>
    <g id="text_13">
     <!-- Probability -->
     <g transform="translate(26.196094 315.708359)rotate(-90)scale(0.25 -0.25)">
      <defs>
       <path d="M 1259 4147 
L 1259 2394 
L 2053 2394 
Q 2494 2394 2734 2622 
Q 2975 2850 2975 3272 
Q 2975 3691 2734 3919 
Q 2494 4147 2053 4147 
L 1259 4147 
z
M 628 4666 
L 2053 4666 
Q 2838 4666 3239 4311 
Q 3641 3956 3641 3272 
Q 3641 2581 3239 2228 
Q 2838 1875 2053 1875 
L 1259 1875 
L 1259 0 
L 628 0 
L 628 4666 
z
" id="DejaVuSans-50" transform="scale(0.015625)"/>
       <path d="M 2631 2963 
Q 2534 3019 2420 3045 
Q 2306 3072 2169 3072 
Q 1681 3072 1420 2755 
Q 1159 2438 1159 1844 
L 1159 0 
L 581 0 
L 581 3500 
L 1159 3500 
L 1159 2956 
Q 1341 3275 1631 3429 
Q 1922 3584 2338 3584 
Q 2397 3584 2469 3576 
Q 2541 3569 2628 3553 
L 2631 2963 
z
" id="DejaVuSans-72" transform="scale(0.015625)"/>
       <path d="M 1959 3097 
Q 1497 3097 1228 2736 
Q 959 2375 959 1747 
Q 959 1119 1226 758 
Q 1494 397 1959 397 
Q 2419 397 2687 759 
Q 2956 1122 2956 1747 
Q 2956 2369 2687 2733 
Q 2419 3097 1959 3097 
z
M 1959 3584 
Q 2709 3584 3137 3096 
Q 3566 2609 3566 1747 
Q 3566 888 3137 398 
Q 2709 -91 1959 -91 
Q 1206 -91 779 398 
Q 353 888 353 1747 
Q 353 2609 779 3096 
Q 1206 3584 1959 3584 
z
" id="DejaVuSans-6f" transform="scale(0.015625)"/>
       <path d="M 3116 1747 
Q 3116 2381 2855 2742 
Q 2594 3103 2138 3103 
Q 1681 3103 1420 2742 
Q 1159 2381 1159 1747 
Q 1159 1113 1420 752 
Q 1681 391 2138 391 
Q 2594 391 2855 752 
Q 3116 1113 3116 1747 
z
M 1159 2969 
Q 1341 3281 1617 3432 
Q 1894 3584 2278 3584 
Q 2916 3584 3314 3078 
Q 3713 2572 3713 1747 
Q 3713 922 3314 415 
Q 2916 -91 2278 -91 
Q 1894 -91 1617 61 
Q 1341 213 1159 525 
L 1159 0 
L 581 0 
L 581 4863 
L 1159 4863 
L 1159 2969 
z
" id="DejaVuSans-62" transform="scale(0.015625)"/>
       <path d="M 2194 1759 
Q 1497 1759 1228 1600 
Q 959 1441 959 1056 
Q 959 750 1161 570 
Q 1363 391 1709 391 
Q 2188 391 2477 730 
Q 2766 1069 2766 1631 
L 2766 1759 
L 2194 1759 
z
M 3341 1997 
L 3341 0 
L 2766 0 
L 2766 531 
Q 2569 213 2275 61 
Q 1981 -91 1556 -91 
Q 1019 -91 701 211 
Q 384 513 384 1019 
Q 384 1609 779 1909 
Q 1175 2209 1959 2209 
L 2766 2209 
L 2766 2266 
Q 2766 2663 2505 2880 
Q 2244 3097 1772 3097 
Q 1472 3097 1187 3025 
Q 903 2953 641 2809 
L 641 3341 
Q 956 3463 1253 3523 
Q 1550 3584 1831 3584 
Q 2591 3584 2966 3190 
Q 3341 2797 3341 1997 
z
" id="DejaVuSans-61" transform="scale(0.015625)"/>
       <path d="M 603 3500 
L 1178 3500 
L 1178 0 
L 603 0 
L 603 3500 
z
M 603 4863 
L 1178 4863 
L 1178 4134 
L 603 4134 
L 603 4863 
z
" id="DejaVuSans-69" transform="scale(0.015625)"/>
       <path d="M 603 4863 
L 1178 4863 
L 1178 0 
L 603 0 
L 603 4863 
z
" id="DejaVuSans-6c" transform="scale(0.015625)"/>
       <path d="M 1172 4494 
L 1172 3500 
L 2356 3500 
L 2356 3053 
L 1172 3053 
L 1172 1153 
Q 1172 725 1289 603 
Q 1406 481 1766 481 
L 2356 481 
L 2356 0 
L 1766 0 
Q 1100 0 847 248 
Q 594 497 594 1153 
L 594 3053 
L 172 3053 
L 172 3500 
L 594 3500 
L 594 4494 
L 1172 4494 
z
" id="DejaVuSans-74" transform="scale(0.015625)"/>
       <path d="M 2059 -325 
Q 1816 -950 1584 -1140 
Q 1353 -1331 966 -1331 
L 506 -1331 
L 506 -850 
L 844 -850 
Q 1081 -850 1212 -737 
Q 1344 -625 1503 -206 
L 1606 56 
L 191 3500 
L 800 3500 
L 1894 763 
L 2988 3500 
L 3597 3500 
L 2059 -325 
z
" id="DejaVuSans-79" transform="scale(0.015625)"/>
      </defs>
      <use xlink:href="#DejaVuSans-50"/>
      <use x="58.552734" xlink:href="#DejaVuSans-72"/>
      <use x="97.416016" xlink:href="#DejaVuSans-6f"/>
      <use x="158.597656" xlink:href="#DejaVuSans-62"/>
      <use x="222.074219" xlink:href="#DejaVuSans-61"/>
      <use x="283.353516" xlink:href="#DejaVuSans-62"/>
      <use x="346.830078" xlink:href="#DejaVuSans-69"/>
      <use x="374.613281" xlink:href="#DejaVuSans-6c"/>
      <use x="402.396484" xlink:href="#DejaVuSans-69"/>
      <use x="430.179688" xlink:href="#DejaVuSans-74"/>
      <use x="469.388672" xlink:href="#DejaVuSans-79"/>
     </g>
    </g>
   </g>
   <g id="line2d_12">
    <path clip-path="url(#pfc451741a2)" d="M 374.58756 467.076094 
L 374.58756 46.662936 
" style="fill:none;stroke:#0000ff;stroke-dasharray:5.55,2.4;stroke-dashoffset:0;stroke-width:1.5;"/>
   </g>
   <g id="line2d_13">
    <path clip-path="url(#pfc451741a2)" d="M 123.423011 457.510776 
L 128.425935 455.340755 
L 135.93032 451.824664 
L 148.437629 445.898543 
L 155.942014 442.659633 
L 163.446399 439.758545 
L 173.452246 436.247181 
L 183.458093 432.71303 
L 188.461017 430.772034 
L 193.46394 428.627906 
L 198.466864 426.214986 
L 203.469787 423.46762 
L 208.472711 420.324582 
L 213.475634 416.737246 
L 218.478558 412.678978 
L 223.481481 408.151963 
L 228.484404 403.188304 
L 233.487328 397.844376 
L 238.490251 392.190112 
L 245.994637 383.280952 
L 256.000484 370.906362 
L 278.513639 342.776541 
L 283.516563 336.881215 
L 288.519486 331.285986 
L 293.52241 326.063897 
L 298.525333 321.266644 
L 303.528257 316.916162 
L 308.53118 313.001036 
L 313.534104 309.478422 
L 318.537027 306.280773 
L 323.539951 303.325435 
L 333.545798 297.795634 
L 343.551645 292.283632 
L 353.557492 286.489433 
L 363.563338 280.68557 
L 368.566262 278.078386 
L 371.067724 276.928962 
L 373.569185 275.917852 
L 376.070647 275.07208 
L 378.572109 274.417683 
L 381.073571 273.97858 
L 383.575032 273.775466 
L 386.076494 273.824801 
L 388.577956 274.137956 
L 391.079418 274.720581 
L 393.580879 275.57223 
L 396.082341 276.686269 
L 398.583803 278.050073 
L 401.085265 279.645487 
L 403.586726 281.449531 
L 406.088188 283.43528 
L 411.091112 287.830615 
L 418.595497 295.001964 
L 426.099882 302.148485 
L 431.102805 306.5886 
L 436.105729 310.645473 
L 441.108652 314.300522 
L 446.111576 317.619239 
L 458.618885 325.575142 
L 461.120346 327.34912 
L 463.621808 329.260692 
L 466.12327 331.339833 
L 468.624732 333.612571 
L 471.126193 336.09977 
L 473.627655 338.816124 
L 476.129117 341.769463 
L 478.630579 344.960382 
L 481.13204 348.382232 
L 483.633502 352.021456 
L 488.636426 359.86746 
L 493.639349 368.282728 
L 508.648119 394.306451 
L 513.651043 402.445059 
L 518.653966 410.03958 
L 523.65689 417.013202 
L 528.659813 423.341576 
L 533.662737 429.040682 
L 538.66566 434.15284 
L 543.668584 438.732927 
L 548.671507 442.836423 
L 553.674431 446.510603 
L 558.677354 449.789834 
L 563.680278 452.695262 
L 568.683201 455.238278 
L 573.686125 457.42636 
L 578.689048 459.269366 
L 583.691972 460.78451 
L 588.694895 461.998842 
L 593.697819 462.948941 
L 598.700742 463.678299 
L 606.205127 464.459796 
L 613.709513 464.996107 
L 621.213898 465.402816 
L 621.213898 465.402816 
" style="fill:none;stroke:#0000ff;stroke-linecap:square;stroke-width:1.5;"/>
   </g>
   <g id="line2d_14">
    <path clip-path="url(#pfc451741a2)" d="M 327.030741 467.076094 
L 327.030741 79.239303 
" style="fill:none;stroke:#ff0000;stroke-dasharray:5.55,2.4;stroke-dashoffset:0;stroke-width:1.5;"/>
   </g>
   <g id="line2d_15">
    <path clip-path="url(#pfc451741a2)" d="M 159.16202 465.837932 
L 167.653866 465.931535 
L 180.391636 466.126928 
L 184.637559 466.030666 
L 188.883482 465.766029 
L 193.129405 465.272018 
L 197.375328 464.474274 
L 201.621252 463.275803 
L 203.744213 462.487265 
L 205.867175 461.546767 
L 207.990136 460.431502 
L 210.113098 459.115736 
L 212.236059 457.57084 
L 214.359021 455.765468 
L 216.481983 453.665906 
L 218.604944 451.23661 
L 220.727906 448.440921 
L 222.850867 445.241938 
L 224.973829 441.60353 
L 227.09679 437.491412 
L 229.219752 432.874228 
L 231.342714 427.72457 
L 233.465675 422.019842 
L 235.588637 415.742903 
L 237.711598 408.882451 
L 239.83456 401.433128 
L 241.957521 393.39535 
L 244.080483 384.774957 
L 246.203445 375.582747 
L 248.326406 365.834041 
L 252.572329 344.749618 
L 256.818252 321.731611 
L 261.064176 297.079157 
L 267.43306 258.021413 
L 273.801945 218.51821 
L 278.047868 193.484254 
L 280.17083 181.766752 
L 282.293791 170.769035 
L 284.416753 160.624386 
L 286.539714 151.454453 
L 288.662676 143.364375 
L 290.785638 136.438615 
L 292.908599 130.737813 
L 295.031561 126.296942 
L 297.154522 123.124909 
L 299.277484 121.205618 
L 301.400445 120.500388 
L 303.523407 120.951454 
L 305.646369 122.486223 
L 307.76933 125.02184 
L 309.892292 128.46965 
L 312.015253 132.739151 
L 314.138215 137.741126 
L 316.261176 143.38977 
L 318.384138 149.603752 
L 320.5071 156.306306 
L 324.753023 170.888362 
L 328.998946 186.577898 
L 341.736715 234.758938 
L 345.982638 249.411932 
L 348.1056 256.223451 
L 350.228562 262.64143 
L 352.351523 268.639508 
L 354.474485 274.200375 
L 356.597446 279.315379 
L 358.720408 283.983921 
L 360.843369 288.212765 
L 362.966331 292.015366 
L 365.089293 295.411303 
L 367.212254 298.425847 
L 369.335216 301.089653 
L 371.458177 303.438523 
L 373.581139 305.513145 
L 375.7041 307.358705 
L 379.950024 310.561843 
L 388.44187 316.493107 
L 390.564831 318.16501 
L 392.687793 319.98991 
L 394.810755 321.991088 
L 396.933716 324.180883 
L 399.056678 326.560244 
L 403.302601 331.83675 
L 407.548524 337.626966 
L 416.04037 349.536122 
L 420.286293 355.046226 
L 424.532217 359.968243 
L 426.655178 362.176476 
L 428.77814 364.212664 
L 430.901101 366.082197 
L 435.147024 369.371658 
L 439.392948 372.195457 
L 450.007755 378.743023 
L 452.130717 380.234032 
L 454.253679 381.861813 
L 456.37664 383.653139 
L 458.499602 385.629384 
L 460.622563 387.805273 
L 462.745525 390.187825 
L 464.868486 392.775591 
L 469.11441 398.516601 
L 473.360333 404.842536 
L 481.852179 417.968868 
L 486.098102 424.016652 
L 488.221064 426.760004 
L 490.344025 429.273484 
L 492.466987 431.535551 
L 494.589948 433.534356 
L 496.71291 435.26824 
L 498.835872 436.745761 
L 500.958833 437.985225 
L 503.081795 439.013742 
L 505.204756 439.865818 
L 509.450679 441.204432 
L 515.819564 442.952687 
L 520.065487 444.389362 
L 524.31141 446.254693 
L 528.557334 448.561388 
L 534.926218 452.532947 
L 539.172141 455.171941 
L 543.418065 457.512682 
L 545.541026 458.510916 
L 547.663988 459.374539 
L 549.786949 460.097487 
L 551.909911 460.680724 
L 554.032872 461.131676 
L 558.278796 461.692894 
L 562.524719 461.928544 
L 575.262488 462.293922 
L 579.508411 462.654272 
L 581.631373 462.895154 
L 581.631373 462.895154 
" style="fill:none;stroke:#ff0000;stroke-linecap:square;stroke-width:1.5;"/>
   </g>
   <g id="patch_90">
    <path d="M 98.059375 467.076094 
L 98.059375 32.196094 
" style="fill:none;stroke:#000000;stroke-linecap:square;stroke-linejoin:miter;stroke-width:0.8;"/>
   </g>
   <g id="patch_91">
    <path d="M 656.059375 467.076094 
L 656.059375 32.196094 
" style="fill:none;stroke:#000000;stroke-linecap:square;stroke-linejoin:miter;stroke-width:0.8;"/>
   </g>
   <g id="patch_92">
    <path d="M 98.059375 467.076094 
L 656.059375 467.076094 
" style="fill:none;stroke:#000000;stroke-linecap:square;stroke-linejoin:miter;stroke-width:0.8;"/>
   </g>
   <g id="patch_93">
    <path d="M 98.059375 32.196094 
L 656.059375 32.196094 
" style="fill:none;stroke:#000000;stroke-linecap:square;stroke-linejoin:miter;stroke-width:0.8;"/>
   </g>
   <g id="text_14">
    <!-- Histogram of HS for simmetry p4 -->
    <g transform="translate(170.426562 26.196094)scale(0.25 -0.25)">
     <defs>
      <path d="M 2834 3397 
L 2834 2853 
Q 2591 2978 2328 3040 
Q 2066 3103 1784 3103 
Q 1356 3103 1142 2972 
Q 928 2841 928 2578 
Q 928 2378 1081 2264 
Q 1234 2150 1697 2047 
L 1894 2003 
Q 2506 1872 2764 1633 
Q 3022 1394 3022 966 
Q 3022 478 2636 193 
Q 2250 -91 1575 -91 
Q 1294 -91 989 -36 
Q 684 19 347 128 
L 347 722 
Q 666 556 975 473 
Q 1284 391 1588 391 
Q 1994 391 2212 530 
Q 2431 669 2431 922 
Q 2431 1156 2273 1281 
Q 2116 1406 1581 1522 
L 1381 1569 
Q 847 1681 609 1914 
Q 372 2147 372 2553 
Q 372 3047 722 3315 
Q 1072 3584 1716 3584 
Q 2034 3584 2315 3537 
Q 2597 3491 2834 3397 
z
" id="DejaVuSans-73" transform="scale(0.015625)"/>
      <path d="M 2906 1791 
Q 2906 2416 2648 2759 
Q 2391 3103 1925 3103 
Q 1463 3103 1205 2759 
Q 947 2416 947 1791 
Q 947 1169 1205 825 
Q 1463 481 1925 481 
Q 2391 481 2648 825 
Q 2906 1169 2906 1791 
z
M 3481 434 
Q 3481 -459 3084 -895 
Q 2688 -1331 1869 -1331 
Q 1566 -1331 1297 -1286 
Q 1028 -1241 775 -1147 
L 775 -588 
Q 1028 -725 1275 -790 
Q 1522 -856 1778 -856 
Q 2344 -856 2625 -561 
Q 2906 -266 2906 331 
L 2906 616 
Q 2728 306 2450 153 
Q 2172 0 1784 0 
Q 1141 0 747 490 
Q 353 981 353 1791 
Q 353 2603 747 3093 
Q 1141 3584 1784 3584 
Q 2172 3584 2450 3431 
Q 2728 3278 2906 2969 
L 2906 3500 
L 3481 3500 
L 3481 434 
z
" id="DejaVuSans-67" transform="scale(0.015625)"/>
      <path d="M 3328 2828 
Q 3544 3216 3844 3400 
Q 4144 3584 4550 3584 
Q 5097 3584 5394 3201 
Q 5691 2819 5691 2113 
L 5691 0 
L 5113 0 
L 5113 2094 
Q 5113 2597 4934 2840 
Q 4756 3084 4391 3084 
Q 3944 3084 3684 2787 
Q 3425 2491 3425 1978 
L 3425 0 
L 2847 0 
L 2847 2094 
Q 2847 2600 2669 2842 
Q 2491 3084 2119 3084 
Q 1678 3084 1418 2786 
Q 1159 2488 1159 1978 
L 1159 0 
L 581 0 
L 581 3500 
L 1159 3500 
L 1159 2956 
Q 1356 3278 1631 3431 
Q 1906 3584 2284 3584 
Q 2666 3584 2933 3390 
Q 3200 3197 3328 2828 
z
" id="DejaVuSans-6d" transform="scale(0.015625)"/>
      <path id="DejaVuSans-20" transform="scale(0.015625)"/>
      <path d="M 2375 4863 
L 2375 4384 
L 1825 4384 
Q 1516 4384 1395 4259 
Q 1275 4134 1275 3809 
L 1275 3500 
L 2222 3500 
L 2222 3053 
L 1275 3053 
L 1275 0 
L 697 0 
L 697 3053 
L 147 3053 
L 147 3500 
L 697 3500 
L 697 3744 
Q 697 4328 969 4595 
Q 1241 4863 1831 4863 
L 2375 4863 
z
" id="DejaVuSans-66" transform="scale(0.015625)"/>
      <path d="M 3597 1894 
L 3597 1613 
L 953 1613 
Q 991 1019 1311 708 
Q 1631 397 2203 397 
Q 2534 397 2845 478 
Q 3156 559 3463 722 
L 3463 178 
Q 3153 47 2828 -22 
Q 2503 -91 2169 -91 
Q 1331 -91 842 396 
Q 353 884 353 1716 
Q 353 2575 817 3079 
Q 1281 3584 2069 3584 
Q 2775 3584 3186 3129 
Q 3597 2675 3597 1894 
z
M 3022 2063 
Q 3016 2534 2758 2815 
Q 2500 3097 2075 3097 
Q 1594 3097 1305 2825 
Q 1016 2553 972 2059 
L 3022 2063 
z
" id="DejaVuSans-65" transform="scale(0.015625)"/>
      <path d="M 1159 525 
L 1159 -1331 
L 581 -1331 
L 581 3500 
L 1159 3500 
L 1159 2969 
Q 1341 3281 1617 3432 
Q 1894 3584 2278 3584 
Q 2916 3584 3314 3078 
Q 3713 2572 3713 1747 
Q 3713 922 3314 415 
Q 2916 -91 2278 -91 
Q 1894 -91 1617 61 
Q 1341 213 1159 525 
z
M 3116 1747 
Q 3116 2381 2855 2742 
Q 2594 3103 2138 3103 
Q 1681 3103 1420 2742 
Q 1159 2381 1159 1747 
Q 1159 1113 1420 752 
Q 1681 391 2138 391 
Q 2594 391 2855 752 
Q 3116 1113 3116 1747 
z
" id="DejaVuSans-70" transform="scale(0.015625)"/>
     </defs>
     <use xlink:href="#DejaVuSans-48"/>
     <use x="75.195312" xlink:href="#DejaVuSans-69"/>
     <use x="102.978516" xlink:href="#DejaVuSans-73"/>
     <use x="155.078125" xlink:href="#DejaVuSans-74"/>
     <use x="194.287109" xlink:href="#DejaVuSans-6f"/>
     <use x="255.46875" xlink:href="#DejaVuSans-67"/>
     <use x="318.945312" xlink:href="#DejaVuSans-72"/>
     <use x="360.058594" xlink:href="#DejaVuSans-61"/>
     <use x="421.337891" xlink:href="#DejaVuSans-6d"/>
     <use x="518.75" xlink:href="#DejaVuSans-20"/>
     <use x="550.537109" xlink:href="#DejaVuSans-6f"/>
     <use x="611.71875" xlink:href="#DejaVuSans-66"/>
     <use x="646.923828" xlink:href="#DejaVuSans-20"/>
     <use x="678.710938" xlink:href="#DejaVuSans-48"/>
     <use x="753.90625" xlink:href="#DejaVuSans-53"/>
     <use x="817.382812" xlink:href="#DejaVuSans-20"/>
     <use x="849.169922" xlink:href="#DejaVuSans-66"/>
     <use x="884.375" xlink:href="#DejaVuSans-6f"/>
     <use x="945.556641" xlink:href="#DejaVuSans-72"/>
     <use x="986.669922" xlink:href="#DejaVuSans-20"/>
     <use x="1018.457031" xlink:href="#DejaVuSans-73"/>
     <use x="1070.556641" xlink:href="#DejaVuSans-69"/>
     <use x="1098.339844" xlink:href="#DejaVuSans-6d"/>
     <use x="1195.751953" xlink:href="#DejaVuSans-6d"/>
     <use x="1293.164062" xlink:href="#DejaVuSans-65"/>
     <use x="1354.6875" xlink:href="#DejaVuSans-74"/>
     <use x="1393.896484" xlink:href="#DejaVuSans-72"/>
     <use x="1435.009766" xlink:href="#DejaVuSans-79"/>
     <use x="1494.189453" xlink:href="#DejaVuSans-20"/>
     <use x="1525.976562" xlink:href="#DejaVuSans-70"/>
     <use x="1589.453125" xlink:href="#DejaVuSans-34"/>
    </g>
   </g>
   <g id="legend_1">
    <g id="patch_94">
     <path d="M 365.958438 143.878594 
L 645.559375 143.878594 
Q 648.559375 143.878594 648.559375 140.878594 
L 648.559375 42.696094 
Q 648.559375 39.696094 645.559375 39.696094 
L 365.958438 39.696094 
Q 362.958438 39.696094 362.958438 42.696094 
L 362.958438 140.878594 
Q 362.958438 143.878594 365.958438 143.878594 
z
" style="fill:#ffffff;opacity:0.8;stroke:#cccccc;stroke-linejoin:miter;"/>
    </g>
    <g id="line2d_16">
     <path d="M 368.958438 54.123281 
L 398.958438 54.123281 
" style="fill:none;stroke:#0000ff;stroke-dasharray:5.55,2.4;stroke-dashoffset:0;stroke-width:1.5;"/>
    </g>
    <g id="line2d_17"/>
    <g id="text_15">
     <!-- Median score RTGA = 0.5 -->
     <g transform="translate(410.958438 59.373281)scale(0.18 -0.18)">
      <defs>
       <path d="M 628 4666 
L 1569 4666 
L 2759 1491 
L 3956 4666 
L 4897 4666 
L 4897 0 
L 4281 0 
L 4281 4097 
L 3078 897 
L 2444 897 
L 1241 4097 
L 1241 0 
L 628 0 
L 628 4666 
z
" id="DejaVuSans-4d" transform="scale(0.015625)"/>
       <path d="M 2906 2969 
L 2906 4863 
L 3481 4863 
L 3481 0 
L 2906 0 
L 2906 525 
Q 2725 213 2448 61 
Q 2172 -91 1784 -91 
Q 1150 -91 751 415 
Q 353 922 353 1747 
Q 353 2572 751 3078 
Q 1150 3584 1784 3584 
Q 2172 3584 2448 3432 
Q 2725 3281 2906 2969 
z
M 947 1747 
Q 947 1113 1208 752 
Q 1469 391 1925 391 
Q 2381 391 2643 752 
Q 2906 1113 2906 1747 
Q 2906 2381 2643 2742 
Q 2381 3103 1925 3103 
Q 1469 3103 1208 2742 
Q 947 2381 947 1747 
z
" id="DejaVuSans-64" transform="scale(0.015625)"/>
       <path d="M 3513 2113 
L 3513 0 
L 2938 0 
L 2938 2094 
Q 2938 2591 2744 2837 
Q 2550 3084 2163 3084 
Q 1697 3084 1428 2787 
Q 1159 2491 1159 1978 
L 1159 0 
L 581 0 
L 581 3500 
L 1159 3500 
L 1159 2956 
Q 1366 3272 1645 3428 
Q 1925 3584 2291 3584 
Q 2894 3584 3203 3211 
Q 3513 2838 3513 2113 
z
" id="DejaVuSans-6e" transform="scale(0.015625)"/>
       <path d="M 3122 3366 
L 3122 2828 
Q 2878 2963 2633 3030 
Q 2388 3097 2138 3097 
Q 1578 3097 1268 2742 
Q 959 2388 959 1747 
Q 959 1106 1268 751 
Q 1578 397 2138 397 
Q 2388 397 2633 464 
Q 2878 531 3122 666 
L 3122 134 
Q 2881 22 2623 -34 
Q 2366 -91 2075 -91 
Q 1284 -91 818 406 
Q 353 903 353 1747 
Q 353 2603 823 3093 
Q 1294 3584 2113 3584 
Q 2378 3584 2631 3529 
Q 2884 3475 3122 3366 
z
" id="DejaVuSans-63" transform="scale(0.015625)"/>
       <path d="M 2841 2188 
Q 3044 2119 3236 1894 
Q 3428 1669 3622 1275 
L 4263 0 
L 3584 0 
L 2988 1197 
Q 2756 1666 2539 1819 
Q 2322 1972 1947 1972 
L 1259 1972 
L 1259 0 
L 628 0 
L 628 4666 
L 2053 4666 
Q 2853 4666 3247 4331 
Q 3641 3997 3641 3322 
Q 3641 2881 3436 2590 
Q 3231 2300 2841 2188 
z
M 1259 4147 
L 1259 2491 
L 2053 2491 
Q 2509 2491 2742 2702 
Q 2975 2913 2975 3322 
Q 2975 3731 2742 3939 
Q 2509 4147 2053 4147 
L 1259 4147 
z
" id="DejaVuSans-52" transform="scale(0.015625)"/>
       <path d="M -19 4666 
L 3928 4666 
L 3928 4134 
L 2272 4134 
L 2272 0 
L 1638 0 
L 1638 4134 
L -19 4134 
L -19 4666 
z
" id="DejaVuSans-54" transform="scale(0.015625)"/>
       <path d="M 3809 666 
L 3809 1919 
L 2778 1919 
L 2778 2438 
L 4434 2438 
L 4434 434 
Q 4069 175 3628 42 
Q 3188 -91 2688 -91 
Q 1594 -91 976 548 
Q 359 1188 359 2328 
Q 359 3472 976 4111 
Q 1594 4750 2688 4750 
Q 3144 4750 3555 4637 
Q 3966 4525 4313 4306 
L 4313 3634 
Q 3963 3931 3569 4081 
Q 3175 4231 2741 4231 
Q 1884 4231 1454 3753 
Q 1025 3275 1025 2328 
Q 1025 1384 1454 906 
Q 1884 428 2741 428 
Q 3075 428 3337 486 
Q 3600 544 3809 666 
z
" id="DejaVuSans-47" transform="scale(0.015625)"/>
       <path d="M 2188 4044 
L 1331 1722 
L 3047 1722 
L 2188 4044 
z
M 1831 4666 
L 2547 4666 
L 4325 0 
L 3669 0 
L 3244 1197 
L 1141 1197 
L 716 0 
L 50 0 
L 1831 4666 
z
" id="DejaVuSans-41" transform="scale(0.015625)"/>
       <path d="M 678 2906 
L 4684 2906 
L 4684 2381 
L 678 2381 
L 678 2906 
z
M 678 1631 
L 4684 1631 
L 4684 1100 
L 678 1100 
L 678 1631 
z
" id="DejaVuSans-3d" transform="scale(0.015625)"/>
       <path d="M 691 4666 
L 3169 4666 
L 3169 4134 
L 1269 4134 
L 1269 2991 
Q 1406 3038 1543 3061 
Q 1681 3084 1819 3084 
Q 2600 3084 3056 2656 
Q 3513 2228 3513 1497 
Q 3513 744 3044 326 
Q 2575 -91 1722 -91 
Q 1428 -91 1123 -41 
Q 819 9 494 109 
L 494 744 
Q 775 591 1075 516 
Q 1375 441 1709 441 
Q 2250 441 2565 725 
Q 2881 1009 2881 1497 
Q 2881 1984 2565 2268 
Q 2250 2553 1709 2553 
Q 1456 2553 1204 2497 
Q 953 2441 691 2322 
L 691 4666 
z
" id="DejaVuSans-35" transform="scale(0.015625)"/>
      </defs>
      <use xlink:href="#DejaVuSans-4d"/>
      <use x="86.279297" xlink:href="#DejaVuSans-65"/>
      <use x="147.802734" xlink:href="#DejaVuSans-64"/>
      <use x="211.279297" xlink:href="#DejaVuSans-69"/>
      <use x="239.0625" xlink:href="#DejaVuSans-61"/>
      <use x="300.341797" xlink:href="#DejaVuSans-6e"/>
      <use x="363.720703" xlink:href="#DejaVuSans-20"/>
      <use x="395.507812" xlink:href="#DejaVuSans-73"/>
      <use x="447.607422" xlink:href="#DejaVuSans-63"/>
      <use x="502.587891" xlink:href="#DejaVuSans-6f"/>
      <use x="563.769531" xlink:href="#DejaVuSans-72"/>
      <use x="602.632812" xlink:href="#DejaVuSans-65"/>
      <use x="664.15625" xlink:href="#DejaVuSans-20"/>
      <use x="695.943359" xlink:href="#DejaVuSans-52"/>
      <use x="758.175781" xlink:href="#DejaVuSans-54"/>
      <use x="819.259766" xlink:href="#DejaVuSans-47"/>
      <use x="896.75" xlink:href="#DejaVuSans-41"/>
      <use x="965.158203" xlink:href="#DejaVuSans-20"/>
      <use x="996.945312" xlink:href="#DejaVuSans-3d"/>
      <use x="1080.734375" xlink:href="#DejaVuSans-20"/>
      <use x="1112.521484" xlink:href="#DejaVuSans-30"/>
      <use x="1176.144531" xlink:href="#DejaVuSans-2e"/>
      <use x="1207.931641" xlink:href="#DejaVuSans-35"/>
     </g>
    </g>
    <g id="line2d_18">
     <path d="M 368.958438 79.043906 
L 398.958438 79.043906 
" style="fill:none;stroke:#0000ff;stroke-linecap:square;stroke-width:1.5;"/>
    </g>
    <g id="line2d_19"/>
    <g id="text_16">
     <!-- RTGA -->
     <g transform="translate(410.958438 84.293906)scale(0.18 -0.18)">
      <use xlink:href="#DejaVuSans-52"/>
      <use x="62.232422" xlink:href="#DejaVuSans-54"/>
      <use x="123.316406" xlink:href="#DejaVuSans-47"/>
      <use x="200.806641" xlink:href="#DejaVuSans-41"/>
     </g>
    </g>
    <g id="line2d_20">
     <path d="M 368.958438 103.964531 
L 398.958438 103.964531 
" style="fill:none;stroke:#ff0000;stroke-dasharray:5.55,2.4;stroke-dashoffset:0;stroke-width:1.5;"/>
    </g>
    <g id="line2d_21"/>
    <g id="text_17">
     <!-- Median score GAN = 0.41 -->
     <g transform="translate(410.958438 109.214531)scale(0.18 -0.18)">
      <defs>
       <path d="M 628 4666 
L 1478 4666 
L 3547 763 
L 3547 4666 
L 4159 4666 
L 4159 0 
L 3309 0 
L 1241 3903 
L 1241 0 
L 628 0 
L 628 4666 
z
" id="DejaVuSans-4e" transform="scale(0.015625)"/>
      </defs>
      <use xlink:href="#DejaVuSans-4d"/>
      <use x="86.279297" xlink:href="#DejaVuSans-65"/>
      <use x="147.802734" xlink:href="#DejaVuSans-64"/>
      <use x="211.279297" xlink:href="#DejaVuSans-69"/>
      <use x="239.0625" xlink:href="#DejaVuSans-61"/>
      <use x="300.341797" xlink:href="#DejaVuSans-6e"/>
      <use x="363.720703" xlink:href="#DejaVuSans-20"/>
      <use x="395.507812" xlink:href="#DejaVuSans-73"/>
      <use x="447.607422" xlink:href="#DejaVuSans-63"/>
      <use x="502.587891" xlink:href="#DejaVuSans-6f"/>
      <use x="563.769531" xlink:href="#DejaVuSans-72"/>
      <use x="602.632812" xlink:href="#DejaVuSans-65"/>
      <use x="664.15625" xlink:href="#DejaVuSans-20"/>
      <use x="695.943359" xlink:href="#DejaVuSans-47"/>
      <use x="773.433594" xlink:href="#DejaVuSans-41"/>
      <use x="841.841797" xlink:href="#DejaVuSans-4e"/>
      <use x="916.646484" xlink:href="#DejaVuSans-20"/>
      <use x="948.433594" xlink:href="#DejaVuSans-3d"/>
      <use x="1032.222656" xlink:href="#DejaVuSans-20"/>
      <use x="1064.009766" xlink:href="#DejaVuSans-30"/>
      <use x="1127.632812" xlink:href="#DejaVuSans-2e"/>
      <use x="1159.419922" xlink:href="#DejaVuSans-34"/>
      <use x="1223.042969" xlink:href="#DejaVuSans-31"/>
     </g>
    </g>
    <g id="line2d_22">
     <path d="M 368.958438 128.885156 
L 398.958438 128.885156 
" style="fill:none;stroke:#ff0000;stroke-linecap:square;stroke-width:1.5;"/>
    </g>
    <g id="line2d_23"/>
    <g id="text_18">
     <!-- GAN -->
     <g transform="translate(410.958438 134.135156)scale(0.18 -0.18)">
      <use xlink:href="#DejaVuSans-47"/>
      <use x="77.490234" xlink:href="#DejaVuSans-41"/>
      <use x="145.898438" xlink:href="#DejaVuSans-4e"/>
     </g>
    </g>
   </g>
  </g>
 </g>
 <defs>
  <clipPath id="pfc451741a2">
   <rect height="434.88" width="558" x="98.059375" y="32.196094"/>
  </clipPath>
 </defs>
</svg>
