<?xml version="1.0" encoding="utf-8" standalone="no"?>
<!DOCTYPE svg PUBLIC "-//W3C//DTD SVG 1.1//EN"
  "http://www.w3.org/Graphics/SVG/1.1/DTD/svg11.dtd">
<svg height="420.107656pt" version="1.1" viewBox="0 0 507.019375 420.107656" width="507.019375pt" xmlns="http://www.w3.org/2000/svg" xmlns:xlink="http://www.w3.org/1999/xlink">
 <metadata>
  <rdf:RDF xmlns:cc="http://creativecommons.org/ns#" xmlns:dc="http://purl.org/dc/elements/1.1/" xmlns:rdf="http://www.w3.org/1999/02/22-rdf-syntax-ns#">
   <cc:Work>
    <dc:type rdf:resource="http://purl.org/dc/dcmitype/StillImage"/>
    <dc:date>2022-02-07T10:29:46.519586</dc:date>
    <dc:format>image/svg+xml</dc:format>
    <dc:creator>
     <cc:Agent>
      <dc:title>Matplotlib v3.4.3, https://matplotlib.org/</dc:title>
     </cc:Agent>
    </dc:creator>
   </cc:Work>
  </rdf:RDF>
 </metadata>
 <defs>
  <style type="text/css">*{stroke-linecap:butt;stroke-linejoin:round;}</style>
 </defs>
 <g id="figure_1">
  <g id="axes_1">
   <g id="patch_1">
    <path d="M 98.059375 358.356094 
L 499.819375 358.356094 
L 499.819375 32.196094 
L 98.059375 32.196094 
z
" style="fill:#ffffff;"/>
   </g>
   <g id="patch_2">
    <path clip-path="url(#p5f0e1d2fa3)" d="M 116.321193 358.356094 
L 123.930284 358.356094 
L 123.930284 333.169993 
L 116.321193 333.169993 
z
" style="fill:#0000ff;fill-opacity:0.5;stroke:#000000;stroke-linejoin:miter;stroke-width:0.760909;"/>
   </g>
   <g id="patch_3">
    <path clip-path="url(#p5f0e1d2fa3)" d="M 123.930284 358.356094 
L 131.539375 358.356094 
L 131.539375 349.960727 
L 123.930284 349.960727 
z
" style="fill:#0000ff;fill-opacity:0.5;stroke:#000000;stroke-linejoin:miter;stroke-width:0.760909;"/>
   </g>
   <g id="patch_4">
    <path clip-path="url(#p5f0e1d2fa3)" d="M 131.539375 358.356094 
L 139.148466 358.356094 
L 139.148466 358.356094 
L 131.539375 358.356094 
z
" style="fill:#0000ff;fill-opacity:0.5;stroke:#000000;stroke-linejoin:miter;stroke-width:0.760909;"/>
   </g>
   <g id="patch_5">
    <path clip-path="url(#p5f0e1d2fa3)" d="M 139.148466 358.356094 
L 146.757557 358.356094 
L 146.757557 349.960727 
L 139.148466 349.960727 
z
" style="fill:#0000ff;fill-opacity:0.5;stroke:#000000;stroke-linejoin:miter;stroke-width:0.760909;"/>
   </g>
   <g id="patch_6">
    <path clip-path="url(#p5f0e1d2fa3)" d="M 146.757557 358.356094 
L 154.366648 358.356094 
L 154.366648 349.960727 
L 146.757557 349.960727 
z
" style="fill:#0000ff;fill-opacity:0.5;stroke:#000000;stroke-linejoin:miter;stroke-width:0.760909;"/>
   </g>
   <g id="patch_7">
    <path clip-path="url(#p5f0e1d2fa3)" d="M 154.366648 358.356094 
L 161.975739 358.356094 
L 161.975739 324.774627 
L 154.366648 324.774627 
z
" style="fill:#0000ff;fill-opacity:0.5;stroke:#000000;stroke-linejoin:miter;stroke-width:0.760909;"/>
   </g>
   <g id="patch_8">
    <path clip-path="url(#p5f0e1d2fa3)" d="M 161.975739 358.356094 
L 169.58483 358.356094 
L 169.58483 341.56536 
L 161.975739 341.56536 
z
" style="fill:#0000ff;fill-opacity:0.5;stroke:#000000;stroke-linejoin:miter;stroke-width:0.760909;"/>
   </g>
   <g id="patch_9">
    <path clip-path="url(#p5f0e1d2fa3)" d="M 169.58483 358.356094 
L 177.19392 358.356094 
L 177.19392 349.960727 
L 169.58483 349.960727 
z
" style="fill:#0000ff;fill-opacity:0.5;stroke:#000000;stroke-linejoin:miter;stroke-width:0.760909;"/>
   </g>
   <g id="patch_10">
    <path clip-path="url(#p5f0e1d2fa3)" d="M 177.19392 358.356094 
L 184.803011 358.356094 
L 184.803011 341.56536 
L 177.19392 341.56536 
z
" style="fill:#0000ff;fill-opacity:0.5;stroke:#000000;stroke-linejoin:miter;stroke-width:0.760909;"/>
   </g>
   <g id="patch_11">
    <path clip-path="url(#p5f0e1d2fa3)" d="M 184.803011 358.356094 
L 192.412102 358.356094 
L 192.412102 349.960727 
L 184.803011 349.960727 
z
" style="fill:#0000ff;fill-opacity:0.5;stroke:#000000;stroke-linejoin:miter;stroke-width:0.760909;"/>
   </g>
   <g id="patch_12">
    <path clip-path="url(#p5f0e1d2fa3)" d="M 192.412102 358.356094 
L 200.021193 358.356094 
L 200.021193 316.37926 
L 192.412102 316.37926 
z
" style="fill:#0000ff;fill-opacity:0.5;stroke:#000000;stroke-linejoin:miter;stroke-width:0.760909;"/>
   </g>
   <g id="patch_13">
    <path clip-path="url(#p5f0e1d2fa3)" d="M 200.021193 358.356094 
L 207.630284 358.356094 
L 207.630284 282.797793 
L 200.021193 282.797793 
z
" style="fill:#0000ff;fill-opacity:0.5;stroke:#000000;stroke-linejoin:miter;stroke-width:0.760909;"/>
   </g>
   <g id="patch_14">
    <path clip-path="url(#p5f0e1d2fa3)" d="M 207.630284 358.356094 
L 215.239375 358.356094 
L 215.239375 324.774627 
L 207.630284 324.774627 
z
" style="fill:#0000ff;fill-opacity:0.5;stroke:#000000;stroke-linejoin:miter;stroke-width:0.760909;"/>
   </g>
   <g id="patch_15">
    <path clip-path="url(#p5f0e1d2fa3)" d="M 215.239375 358.356094 
L 222.848466 358.356094 
L 222.848466 316.37926 
L 215.239375 316.37926 
z
" style="fill:#0000ff;fill-opacity:0.5;stroke:#000000;stroke-linejoin:miter;stroke-width:0.760909;"/>
   </g>
   <g id="patch_16">
    <path clip-path="url(#p5f0e1d2fa3)" d="M 222.848466 358.356094 
L 230.457557 358.356094 
L 230.457557 307.983893 
L 222.848466 307.983893 
z
" style="fill:#0000ff;fill-opacity:0.5;stroke:#000000;stroke-linejoin:miter;stroke-width:0.760909;"/>
   </g>
   <g id="patch_17">
    <path clip-path="url(#p5f0e1d2fa3)" d="M 230.457557 358.356094 
L 238.066648 358.356094 
L 238.066648 324.774627 
L 230.457557 324.774627 
z
" style="fill:#0000ff;fill-opacity:0.5;stroke:#000000;stroke-linejoin:miter;stroke-width:0.760909;"/>
   </g>
   <g id="patch_18">
    <path clip-path="url(#p5f0e1d2fa3)" d="M 238.066648 358.356094 
L 245.675739 358.356094 
L 245.675739 307.983893 
L 238.066648 307.983893 
z
" style="fill:#0000ff;fill-opacity:0.5;stroke:#000000;stroke-linejoin:miter;stroke-width:0.760909;"/>
   </g>
   <g id="patch_19">
    <path clip-path="url(#p5f0e1d2fa3)" d="M 245.675739 358.356094 
L 253.28483 358.356094 
L 253.28483 249.216325 
L 245.675739 249.216325 
z
" style="fill:#0000ff;fill-opacity:0.5;stroke:#000000;stroke-linejoin:miter;stroke-width:0.760909;"/>
   </g>
   <g id="patch_20">
    <path clip-path="url(#p5f0e1d2fa3)" d="M 253.28483 358.356094 
L 260.89392 358.356094 
L 260.89392 198.844125 
L 253.28483 198.844125 
z
" style="fill:#0000ff;fill-opacity:0.5;stroke:#000000;stroke-linejoin:miter;stroke-width:0.760909;"/>
   </g>
   <g id="patch_21">
    <path clip-path="url(#p5f0e1d2fa3)" d="M 260.89392 358.356094 
L 268.503011 358.356094 
L 268.503011 215.634858 
L 260.89392 215.634858 
z
" style="fill:#0000ff;fill-opacity:0.5;stroke:#000000;stroke-linejoin:miter;stroke-width:0.760909;"/>
   </g>
   <g id="patch_22">
    <path clip-path="url(#p5f0e1d2fa3)" d="M 268.503011 358.356094 
L 276.112102 358.356094 
L 276.112102 182.053391 
L 268.503011 182.053391 
z
" style="fill:#0000ff;fill-opacity:0.5;stroke:#000000;stroke-linejoin:miter;stroke-width:0.760909;"/>
   </g>
   <g id="patch_23">
    <path clip-path="url(#p5f0e1d2fa3)" d="M 276.112102 358.356094 
L 283.721193 358.356094 
L 283.721193 190.448758 
L 276.112102 190.448758 
z
" style="fill:#0000ff;fill-opacity:0.5;stroke:#000000;stroke-linejoin:miter;stroke-width:0.760909;"/>
   </g>
   <g id="patch_24">
    <path clip-path="url(#p5f0e1d2fa3)" d="M 283.721193 358.356094 
L 291.330284 358.356094 
L 291.330284 240.820959 
L 283.721193 240.820959 
z
" style="fill:#0000ff;fill-opacity:0.5;stroke:#000000;stroke-linejoin:miter;stroke-width:0.760909;"/>
   </g>
   <g id="patch_25">
    <path clip-path="url(#p5f0e1d2fa3)" d="M 291.330284 358.356094 
L 298.939375 358.356094 
L 298.939375 190.448758 
L 291.330284 190.448758 
z
" style="fill:#0000ff;fill-opacity:0.5;stroke:#000000;stroke-linejoin:miter;stroke-width:0.760909;"/>
   </g>
   <g id="patch_26">
    <path clip-path="url(#p5f0e1d2fa3)" d="M 298.939375 358.356094 
L 306.548466 358.356094 
L 306.548466 156.867291 
L 298.939375 156.867291 
z
" style="fill:#0000ff;fill-opacity:0.5;stroke:#000000;stroke-linejoin:miter;stroke-width:0.760909;"/>
   </g>
   <g id="patch_27">
    <path clip-path="url(#p5f0e1d2fa3)" d="M 306.548466 358.356094 
L 314.157557 358.356094 
L 314.157557 114.890457 
L 306.548466 114.890457 
z
" style="fill:#0000ff;fill-opacity:0.5;stroke:#000000;stroke-linejoin:miter;stroke-width:0.760909;"/>
   </g>
   <g id="patch_28">
    <path clip-path="url(#p5f0e1d2fa3)" d="M 314.157557 358.356094 
L 321.766648 358.356094 
L 321.766648 47.727522 
L 314.157557 47.727522 
z
" style="fill:#0000ff;fill-opacity:0.5;stroke:#000000;stroke-linejoin:miter;stroke-width:0.760909;"/>
   </g>
   <g id="patch_29">
    <path clip-path="url(#p5f0e1d2fa3)" d="M 321.766648 358.356094 
L 329.375739 358.356094 
L 329.375739 114.890457 
L 321.766648 114.890457 
z
" style="fill:#0000ff;fill-opacity:0.5;stroke:#000000;stroke-linejoin:miter;stroke-width:0.760909;"/>
   </g>
   <g id="patch_30">
    <path clip-path="url(#p5f0e1d2fa3)" d="M 329.375739 358.356094 
L 336.98483 358.356094 
L 336.98483 123.285823 
L 329.375739 123.285823 
z
" style="fill:#0000ff;fill-opacity:0.5;stroke:#000000;stroke-linejoin:miter;stroke-width:0.760909;"/>
   </g>
   <g id="patch_31">
    <path clip-path="url(#p5f0e1d2fa3)" d="M 336.98483 358.356094 
L 344.59392 358.356094 
L 344.59392 114.890457 
L 336.98483 114.890457 
z
" style="fill:#0000ff;fill-opacity:0.5;stroke:#000000;stroke-linejoin:miter;stroke-width:0.760909;"/>
   </g>
   <g id="patch_32">
    <path clip-path="url(#p5f0e1d2fa3)" d="M 344.59392 358.356094 
L 352.203011 358.356094 
L 352.203011 131.68119 
L 344.59392 131.68119 
z
" style="fill:#0000ff;fill-opacity:0.5;stroke:#000000;stroke-linejoin:miter;stroke-width:0.760909;"/>
   </g>
   <g id="patch_33">
    <path clip-path="url(#p5f0e1d2fa3)" d="M 352.203011 358.356094 
L 359.812102 358.356094 
L 359.812102 131.68119 
L 352.203011 131.68119 
z
" style="fill:#0000ff;fill-opacity:0.5;stroke:#000000;stroke-linejoin:miter;stroke-width:0.760909;"/>
   </g>
   <g id="patch_34">
    <path clip-path="url(#p5f0e1d2fa3)" d="M 359.812102 358.356094 
L 367.421193 358.356094 
L 367.421193 131.68119 
L 359.812102 131.68119 
z
" style="fill:#0000ff;fill-opacity:0.5;stroke:#000000;stroke-linejoin:miter;stroke-width:0.760909;"/>
   </g>
   <g id="patch_35">
    <path clip-path="url(#p5f0e1d2fa3)" d="M 367.421193 358.356094 
L 375.030284 358.356094 
L 375.030284 165.262657 
L 367.421193 165.262657 
z
" style="fill:#0000ff;fill-opacity:0.5;stroke:#000000;stroke-linejoin:miter;stroke-width:0.760909;"/>
   </g>
   <g id="patch_36">
    <path clip-path="url(#p5f0e1d2fa3)" d="M 375.030284 358.356094 
L 382.639375 358.356094 
L 382.639375 56.122889 
L 375.030284 56.122889 
z
" style="fill:#0000ff;fill-opacity:0.5;stroke:#000000;stroke-linejoin:miter;stroke-width:0.760909;"/>
   </g>
   <g id="patch_37">
    <path clip-path="url(#p5f0e1d2fa3)" d="M 382.639375 358.356094 
L 390.248466 358.356094 
L 390.248466 47.727522 
L 382.639375 47.727522 
z
" style="fill:#0000ff;fill-opacity:0.5;stroke:#000000;stroke-linejoin:miter;stroke-width:0.760909;"/>
   </g>
   <g id="patch_38">
    <path clip-path="url(#p5f0e1d2fa3)" d="M 390.248466 358.356094 
L 397.857557 358.356094 
L 397.857557 131.68119 
L 390.248466 131.68119 
z
" style="fill:#0000ff;fill-opacity:0.5;stroke:#000000;stroke-linejoin:miter;stroke-width:0.760909;"/>
   </g>
   <g id="patch_39">
    <path clip-path="url(#p5f0e1d2fa3)" d="M 397.857557 358.356094 
L 405.466648 358.356094 
L 405.466648 148.471924 
L 397.857557 148.471924 
z
" style="fill:#0000ff;fill-opacity:0.5;stroke:#000000;stroke-linejoin:miter;stroke-width:0.760909;"/>
   </g>
   <g id="patch_40">
    <path clip-path="url(#p5f0e1d2fa3)" d="M 405.466648 358.356094 
L 413.075739 358.356094 
L 413.075739 72.913623 
L 405.466648 72.913623 
z
" style="fill:#0000ff;fill-opacity:0.5;stroke:#000000;stroke-linejoin:miter;stroke-width:0.760909;"/>
   </g>
   <g id="patch_41">
    <path clip-path="url(#p5f0e1d2fa3)" d="M 413.075739 358.356094 
L 420.68483 358.356094 
L 420.68483 207.239491 
L 413.075739 207.239491 
z
" style="fill:#0000ff;fill-opacity:0.5;stroke:#000000;stroke-linejoin:miter;stroke-width:0.760909;"/>
   </g>
   <g id="patch_42">
    <path clip-path="url(#p5f0e1d2fa3)" d="M 420.68483 358.356094 
L 428.29392 358.356094 
L 428.29392 165.262657 
L 420.68483 165.262657 
z
" style="fill:#0000ff;fill-opacity:0.5;stroke:#000000;stroke-linejoin:miter;stroke-width:0.760909;"/>
   </g>
   <g id="patch_43">
    <path clip-path="url(#p5f0e1d2fa3)" d="M 428.29392 358.356094 
L 435.903011 358.356094 
L 435.903011 106.49509 
L 428.29392 106.49509 
z
" style="fill:#0000ff;fill-opacity:0.5;stroke:#000000;stroke-linejoin:miter;stroke-width:0.760909;"/>
   </g>
   <g id="patch_44">
    <path clip-path="url(#p5f0e1d2fa3)" d="M 435.903011 358.356094 
L 443.512102 358.356094 
L 443.512102 47.727522 
L 435.903011 47.727522 
z
" style="fill:#0000ff;fill-opacity:0.5;stroke:#000000;stroke-linejoin:miter;stroke-width:0.760909;"/>
   </g>
   <g id="patch_45">
    <path clip-path="url(#p5f0e1d2fa3)" d="M 443.512102 358.356094 
L 451.121193 358.356094 
L 451.121193 98.099723 
L 443.512102 98.099723 
z
" style="fill:#0000ff;fill-opacity:0.5;stroke:#000000;stroke-linejoin:miter;stroke-width:0.760909;"/>
   </g>
   <g id="patch_46">
    <path clip-path="url(#p5f0e1d2fa3)" d="M 451.121193 358.356094 
L 458.730284 358.356094 
L 458.730284 207.239491 
L 451.121193 207.239491 
z
" style="fill:#0000ff;fill-opacity:0.5;stroke:#000000;stroke-linejoin:miter;stroke-width:0.760909;"/>
   </g>
   <g id="patch_47">
    <path clip-path="url(#p5f0e1d2fa3)" d="M 458.730284 358.356094 
L 466.339375 358.356094 
L 466.339375 182.053391 
L 458.730284 182.053391 
z
" style="fill:#0000ff;fill-opacity:0.5;stroke:#000000;stroke-linejoin:miter;stroke-width:0.760909;"/>
   </g>
   <g id="patch_48">
    <path clip-path="url(#p5f0e1d2fa3)" d="M 466.339375 358.356094 
L 473.948466 358.356094 
L 473.948466 224.030225 
L 466.339375 224.030225 
z
" style="fill:#0000ff;fill-opacity:0.5;stroke:#000000;stroke-linejoin:miter;stroke-width:0.760909;"/>
   </g>
   <g id="patch_49">
    <path clip-path="url(#p5f0e1d2fa3)" d="M 473.948466 358.356094 
L 481.557557 358.356094 
L 481.557557 266.007059 
L 473.948466 266.007059 
z
" style="fill:#0000ff;fill-opacity:0.5;stroke:#000000;stroke-linejoin:miter;stroke-width:0.760909;"/>
   </g>
   <g id="patch_50">
    <path clip-path="url(#p5f0e1d2fa3)" d="M 116.321193 358.356094 
L 123.930284 358.356094 
L 123.930284 333.169993 
L 116.321193 333.169993 
z
" style="fill:#0000ff;fill-opacity:0.5;stroke:#000000;stroke-linejoin:miter;stroke-width:0.760909;"/>
   </g>
   <g id="patch_51">
    <path clip-path="url(#p5f0e1d2fa3)" d="M 123.930284 358.356094 
L 131.539375 358.356094 
L 131.539375 349.960727 
L 123.930284 349.960727 
z
" style="fill:#0000ff;fill-opacity:0.5;stroke:#000000;stroke-linejoin:miter;stroke-width:0.760909;"/>
   </g>
   <g id="patch_52">
    <path clip-path="url(#p5f0e1d2fa3)" d="M 131.539375 358.356094 
L 139.148466 358.356094 
L 139.148466 358.356094 
L 131.539375 358.356094 
z
" style="fill:#0000ff;fill-opacity:0.5;stroke:#000000;stroke-linejoin:miter;stroke-width:0.760909;"/>
   </g>
   <g id="patch_53">
    <path clip-path="url(#p5f0e1d2fa3)" d="M 139.148466 358.356094 
L 146.757557 358.356094 
L 146.757557 349.960727 
L 139.148466 349.960727 
z
" style="fill:#0000ff;fill-opacity:0.5;stroke:#000000;stroke-linejoin:miter;stroke-width:0.760909;"/>
   </g>
   <g id="patch_54">
    <path clip-path="url(#p5f0e1d2fa3)" d="M 146.757557 358.356094 
L 154.366648 358.356094 
L 154.366648 349.960727 
L 146.757557 349.960727 
z
" style="fill:#0000ff;fill-opacity:0.5;stroke:#000000;stroke-linejoin:miter;stroke-width:0.760909;"/>
   </g>
   <g id="patch_55">
    <path clip-path="url(#p5f0e1d2fa3)" d="M 154.366648 358.356094 
L 161.975739 358.356094 
L 161.975739 324.774627 
L 154.366648 324.774627 
z
" style="fill:#0000ff;fill-opacity:0.5;stroke:#000000;stroke-linejoin:miter;stroke-width:0.760909;"/>
   </g>
   <g id="patch_56">
    <path clip-path="url(#p5f0e1d2fa3)" d="M 161.975739 358.356094 
L 169.58483 358.356094 
L 169.58483 341.56536 
L 161.975739 341.56536 
z
" style="fill:#0000ff;fill-opacity:0.5;stroke:#000000;stroke-linejoin:miter;stroke-width:0.760909;"/>
   </g>
   <g id="patch_57">
    <path clip-path="url(#p5f0e1d2fa3)" d="M 169.58483 358.356094 
L 177.19392 358.356094 
L 177.19392 349.960727 
L 169.58483 349.960727 
z
" style="fill:#0000ff;fill-opacity:0.5;stroke:#000000;stroke-linejoin:miter;stroke-width:0.760909;"/>
   </g>
   <g id="patch_58">
    <path clip-path="url(#p5f0e1d2fa3)" d="M 177.19392 358.356094 
L 184.803011 358.356094 
L 184.803011 341.56536 
L 177.19392 341.56536 
z
" style="fill:#0000ff;fill-opacity:0.5;stroke:#000000;stroke-linejoin:miter;stroke-width:0.760909;"/>
   </g>
   <g id="patch_59">
    <path clip-path="url(#p5f0e1d2fa3)" d="M 184.803011 358.356094 
L 192.412102 358.356094 
L 192.412102 349.960727 
L 184.803011 349.960727 
z
" style="fill:#0000ff;fill-opacity:0.5;stroke:#000000;stroke-linejoin:miter;stroke-width:0.760909;"/>
   </g>
   <g id="patch_60">
    <path clip-path="url(#p5f0e1d2fa3)" d="M 192.412102 358.356094 
L 200.021193 358.356094 
L 200.021193 316.37926 
L 192.412102 316.37926 
z
" style="fill:#0000ff;fill-opacity:0.5;stroke:#000000;stroke-linejoin:miter;stroke-width:0.760909;"/>
   </g>
   <g id="patch_61">
    <path clip-path="url(#p5f0e1d2fa3)" d="M 200.021193 358.356094 
L 207.630284 358.356094 
L 207.630284 282.797793 
L 200.021193 282.797793 
z
" style="fill:#0000ff;fill-opacity:0.5;stroke:#000000;stroke-linejoin:miter;stroke-width:0.760909;"/>
   </g>
   <g id="patch_62">
    <path clip-path="url(#p5f0e1d2fa3)" d="M 207.630284 358.356094 
L 215.239375 358.356094 
L 215.239375 324.774627 
L 207.630284 324.774627 
z
" style="fill:#0000ff;fill-opacity:0.5;stroke:#000000;stroke-linejoin:miter;stroke-width:0.760909;"/>
   </g>
   <g id="patch_63">
    <path clip-path="url(#p5f0e1d2fa3)" d="M 215.239375 358.356094 
L 222.848466 358.356094 
L 222.848466 316.37926 
L 215.239375 316.37926 
z
" style="fill:#0000ff;fill-opacity:0.5;stroke:#000000;stroke-linejoin:miter;stroke-width:0.760909;"/>
   </g>
   <g id="patch_64">
    <path clip-path="url(#p5f0e1d2fa3)" d="M 222.848466 358.356094 
L 230.457557 358.356094 
L 230.457557 307.983893 
L 222.848466 307.983893 
z
" style="fill:#0000ff;fill-opacity:0.5;stroke:#000000;stroke-linejoin:miter;stroke-width:0.760909;"/>
   </g>
   <g id="patch_65">
    <path clip-path="url(#p5f0e1d2fa3)" d="M 230.457557 358.356094 
L 238.066648 358.356094 
L 238.066648 324.774627 
L 230.457557 324.774627 
z
" style="fill:#0000ff;fill-opacity:0.5;stroke:#000000;stroke-linejoin:miter;stroke-width:0.760909;"/>
   </g>
   <g id="patch_66">
    <path clip-path="url(#p5f0e1d2fa3)" d="M 238.066648 358.356094 
L 245.675739 358.356094 
L 245.675739 307.983893 
L 238.066648 307.983893 
z
" style="fill:#0000ff;fill-opacity:0.5;stroke:#000000;stroke-linejoin:miter;stroke-width:0.760909;"/>
   </g>
   <g id="patch_67">
    <path clip-path="url(#p5f0e1d2fa3)" d="M 245.675739 358.356094 
L 253.28483 358.356094 
L 253.28483 249.216325 
L 245.675739 249.216325 
z
" style="fill:#0000ff;fill-opacity:0.5;stroke:#000000;stroke-linejoin:miter;stroke-width:0.760909;"/>
   </g>
   <g id="patch_68">
    <path clip-path="url(#p5f0e1d2fa3)" d="M 253.28483 358.356094 
L 260.89392 358.356094 
L 260.89392 198.844125 
L 253.28483 198.844125 
z
" style="fill:#0000ff;fill-opacity:0.5;stroke:#000000;stroke-linejoin:miter;stroke-width:0.760909;"/>
   </g>
   <g id="patch_69">
    <path clip-path="url(#p5f0e1d2fa3)" d="M 260.89392 358.356094 
L 268.503011 358.356094 
L 268.503011 215.634858 
L 260.89392 215.634858 
z
" style="fill:#0000ff;fill-opacity:0.5;stroke:#000000;stroke-linejoin:miter;stroke-width:0.760909;"/>
   </g>
   <g id="patch_70">
    <path clip-path="url(#p5f0e1d2fa3)" d="M 268.503011 358.356094 
L 276.112102 358.356094 
L 276.112102 182.053391 
L 268.503011 182.053391 
z
" style="fill:#0000ff;fill-opacity:0.5;stroke:#000000;stroke-linejoin:miter;stroke-width:0.760909;"/>
   </g>
   <g id="patch_71">
    <path clip-path="url(#p5f0e1d2fa3)" d="M 276.112102 358.356094 
L 283.721193 358.356094 
L 283.721193 190.448758 
L 276.112102 190.448758 
z
" style="fill:#0000ff;fill-opacity:0.5;stroke:#000000;stroke-linejoin:miter;stroke-width:0.760909;"/>
   </g>
   <g id="patch_72">
    <path clip-path="url(#p5f0e1d2fa3)" d="M 283.721193 358.356094 
L 291.330284 358.356094 
L 291.330284 240.820959 
L 283.721193 240.820959 
z
" style="fill:#0000ff;fill-opacity:0.5;stroke:#000000;stroke-linejoin:miter;stroke-width:0.760909;"/>
   </g>
   <g id="patch_73">
    <path clip-path="url(#p5f0e1d2fa3)" d="M 291.330284 358.356094 
L 298.939375 358.356094 
L 298.939375 190.448758 
L 291.330284 190.448758 
z
" style="fill:#0000ff;fill-opacity:0.5;stroke:#000000;stroke-linejoin:miter;stroke-width:0.760909;"/>
   </g>
   <g id="patch_74">
    <path clip-path="url(#p5f0e1d2fa3)" d="M 298.939375 358.356094 
L 306.548466 358.356094 
L 306.548466 156.867291 
L 298.939375 156.867291 
z
" style="fill:#0000ff;fill-opacity:0.5;stroke:#000000;stroke-linejoin:miter;stroke-width:0.760909;"/>
   </g>
   <g id="patch_75">
    <path clip-path="url(#p5f0e1d2fa3)" d="M 306.548466 358.356094 
L 314.157557 358.356094 
L 314.157557 114.890457 
L 306.548466 114.890457 
z
" style="fill:#0000ff;fill-opacity:0.5;stroke:#000000;stroke-linejoin:miter;stroke-width:0.760909;"/>
   </g>
   <g id="patch_76">
    <path clip-path="url(#p5f0e1d2fa3)" d="M 314.157557 358.356094 
L 321.766648 358.356094 
L 321.766648 47.727522 
L 314.157557 47.727522 
z
" style="fill:#0000ff;fill-opacity:0.5;stroke:#000000;stroke-linejoin:miter;stroke-width:0.760909;"/>
   </g>
   <g id="patch_77">
    <path clip-path="url(#p5f0e1d2fa3)" d="M 321.766648 358.356094 
L 329.375739 358.356094 
L 329.375739 114.890457 
L 321.766648 114.890457 
z
" style="fill:#0000ff;fill-opacity:0.5;stroke:#000000;stroke-linejoin:miter;stroke-width:0.760909;"/>
   </g>
   <g id="patch_78">
    <path clip-path="url(#p5f0e1d2fa3)" d="M 329.375739 358.356094 
L 336.98483 358.356094 
L 336.98483 123.285823 
L 329.375739 123.285823 
z
" style="fill:#0000ff;fill-opacity:0.5;stroke:#000000;stroke-linejoin:miter;stroke-width:0.760909;"/>
   </g>
   <g id="patch_79">
    <path clip-path="url(#p5f0e1d2fa3)" d="M 336.98483 358.356094 
L 344.59392 358.356094 
L 344.59392 114.890457 
L 336.98483 114.890457 
z
" style="fill:#0000ff;fill-opacity:0.5;stroke:#000000;stroke-linejoin:miter;stroke-width:0.760909;"/>
   </g>
   <g id="patch_80">
    <path clip-path="url(#p5f0e1d2fa3)" d="M 344.59392 358.356094 
L 352.203011 358.356094 
L 352.203011 131.68119 
L 344.59392 131.68119 
z
" style="fill:#0000ff;fill-opacity:0.5;stroke:#000000;stroke-linejoin:miter;stroke-width:0.760909;"/>
   </g>
   <g id="patch_81">
    <path clip-path="url(#p5f0e1d2fa3)" d="M 352.203011 358.356094 
L 359.812102 358.356094 
L 359.812102 131.68119 
L 352.203011 131.68119 
z
" style="fill:#0000ff;fill-opacity:0.5;stroke:#000000;stroke-linejoin:miter;stroke-width:0.760909;"/>
   </g>
   <g id="patch_82">
    <path clip-path="url(#p5f0e1d2fa3)" d="M 359.812102 358.356094 
L 367.421193 358.356094 
L 367.421193 131.68119 
L 359.812102 131.68119 
z
" style="fill:#0000ff;fill-opacity:0.5;stroke:#000000;stroke-linejoin:miter;stroke-width:0.760909;"/>
   </g>
   <g id="patch_83">
    <path clip-path="url(#p5f0e1d2fa3)" d="M 367.421193 358.356094 
L 375.030284 358.356094 
L 375.030284 165.262657 
L 367.421193 165.262657 
z
" style="fill:#0000ff;fill-opacity:0.5;stroke:#000000;stroke-linejoin:miter;stroke-width:0.760909;"/>
   </g>
   <g id="patch_84">
    <path clip-path="url(#p5f0e1d2fa3)" d="M 375.030284 358.356094 
L 382.639375 358.356094 
L 382.639375 56.122889 
L 375.030284 56.122889 
z
" style="fill:#0000ff;fill-opacity:0.5;stroke:#000000;stroke-linejoin:miter;stroke-width:0.760909;"/>
   </g>
   <g id="patch_85">
    <path clip-path="url(#p5f0e1d2fa3)" d="M 382.639375 358.356094 
L 390.248466 358.356094 
L 390.248466 47.727522 
L 382.639375 47.727522 
z
" style="fill:#0000ff;fill-opacity:0.5;stroke:#000000;stroke-linejoin:miter;stroke-width:0.760909;"/>
   </g>
   <g id="patch_86">
    <path clip-path="url(#p5f0e1d2fa3)" d="M 390.248466 358.356094 
L 397.857557 358.356094 
L 397.857557 131.68119 
L 390.248466 131.68119 
z
" style="fill:#0000ff;fill-opacity:0.5;stroke:#000000;stroke-linejoin:miter;stroke-width:0.760909;"/>
   </g>
   <g id="patch_87">
    <path clip-path="url(#p5f0e1d2fa3)" d="M 397.857557 358.356094 
L 405.466648 358.356094 
L 405.466648 148.471924 
L 397.857557 148.471924 
z
" style="fill:#0000ff;fill-opacity:0.5;stroke:#000000;stroke-linejoin:miter;stroke-width:0.760909;"/>
   </g>
   <g id="patch_88">
    <path clip-path="url(#p5f0e1d2fa3)" d="M 405.466648 358.356094 
L 413.075739 358.356094 
L 413.075739 72.913623 
L 405.466648 72.913623 
z
" style="fill:#0000ff;fill-opacity:0.5;stroke:#000000;stroke-linejoin:miter;stroke-width:0.760909;"/>
   </g>
   <g id="patch_89">
    <path clip-path="url(#p5f0e1d2fa3)" d="M 413.075739 358.356094 
L 420.68483 358.356094 
L 420.68483 207.239491 
L 413.075739 207.239491 
z
" style="fill:#0000ff;fill-opacity:0.5;stroke:#000000;stroke-linejoin:miter;stroke-width:0.760909;"/>
   </g>
   <g id="patch_90">
    <path clip-path="url(#p5f0e1d2fa3)" d="M 420.68483 358.356094 
L 428.29392 358.356094 
L 428.29392 165.262657 
L 420.68483 165.262657 
z
" style="fill:#0000ff;fill-opacity:0.5;stroke:#000000;stroke-linejoin:miter;stroke-width:0.760909;"/>
   </g>
   <g id="patch_91">
    <path clip-path="url(#p5f0e1d2fa3)" d="M 428.29392 358.356094 
L 435.903011 358.356094 
L 435.903011 106.49509 
L 428.29392 106.49509 
z
" style="fill:#0000ff;fill-opacity:0.5;stroke:#000000;stroke-linejoin:miter;stroke-width:0.760909;"/>
   </g>
   <g id="patch_92">
    <path clip-path="url(#p5f0e1d2fa3)" d="M 435.903011 358.356094 
L 443.512102 358.356094 
L 443.512102 47.727522 
L 435.903011 47.727522 
z
" style="fill:#0000ff;fill-opacity:0.5;stroke:#000000;stroke-linejoin:miter;stroke-width:0.760909;"/>
   </g>
   <g id="patch_93">
    <path clip-path="url(#p5f0e1d2fa3)" d="M 443.512102 358.356094 
L 451.121193 358.356094 
L 451.121193 98.099723 
L 443.512102 98.099723 
z
" style="fill:#0000ff;fill-opacity:0.5;stroke:#000000;stroke-linejoin:miter;stroke-width:0.760909;"/>
   </g>
   <g id="patch_94">
    <path clip-path="url(#p5f0e1d2fa3)" d="M 451.121193 358.356094 
L 458.730284 358.356094 
L 458.730284 207.239491 
L 451.121193 207.239491 
z
" style="fill:#0000ff;fill-opacity:0.5;stroke:#000000;stroke-linejoin:miter;stroke-width:0.760909;"/>
   </g>
   <g id="patch_95">
    <path clip-path="url(#p5f0e1d2fa3)" d="M 458.730284 358.356094 
L 466.339375 358.356094 
L 466.339375 182.053391 
L 458.730284 182.053391 
z
" style="fill:#0000ff;fill-opacity:0.5;stroke:#000000;stroke-linejoin:miter;stroke-width:0.760909;"/>
   </g>
   <g id="patch_96">
    <path clip-path="url(#p5f0e1d2fa3)" d="M 466.339375 358.356094 
L 473.948466 358.356094 
L 473.948466 224.030225 
L 466.339375 224.030225 
z
" style="fill:#0000ff;fill-opacity:0.5;stroke:#000000;stroke-linejoin:miter;stroke-width:0.760909;"/>
   </g>
   <g id="patch_97">
    <path clip-path="url(#p5f0e1d2fa3)" d="M 473.948466 358.356094 
L 481.557557 358.356094 
L 481.557557 266.007059 
L 473.948466 266.007059 
z
" style="fill:#0000ff;fill-opacity:0.5;stroke:#000000;stroke-linejoin:miter;stroke-width:0.760909;"/>
   </g>
   <g id="matplotlib.axis_1">
    <g id="xtick_1">
     <g id="line2d_1">
      <defs>
       <path d="M 0 0 
L 0 3.5 
" id="mfc788b686a" style="stroke:#000000;stroke-width:0.8;"/>
      </defs>
      <g>
       <use style="stroke:#000000;stroke-width:0.8;" x="174.115733" xlink:href="#mfc788b686a" y="358.356094"/>
      </g>
     </g>
     <g id="text_1">
      <!-- 0.2 -->
      <g transform="translate(158.212608 380.552969)scale(0.2 -0.2)">
       <defs>
        <path d="M 2034 4250 
Q 1547 4250 1301 3770 
Q 1056 3291 1056 2328 
Q 1056 1369 1301 889 
Q 1547 409 2034 409 
Q 2525 409 2770 889 
Q 3016 1369 3016 2328 
Q 3016 3291 2770 3770 
Q 2525 4250 2034 4250 
z
M 2034 4750 
Q 2819 4750 3233 4129 
Q 3647 3509 3647 2328 
Q 3647 1150 3233 529 
Q 2819 -91 2034 -91 
Q 1250 -91 836 529 
Q 422 1150 422 2328 
Q 422 3509 836 4129 
Q 1250 4750 2034 4750 
z
" id="DejaVuSans-30" transform="scale(0.015625)"/>
        <path d="M 684 794 
L 1344 794 
L 1344 0 
L 684 0 
L 684 794 
z
" id="DejaVuSans-2e" transform="scale(0.015625)"/>
        <path d="M 1228 531 
L 3431 531 
L 3431 0 
L 469 0 
L 469 531 
Q 828 903 1448 1529 
Q 2069 2156 2228 2338 
Q 2531 2678 2651 2914 
Q 2772 3150 2772 3378 
Q 2772 3750 2511 3984 
Q 2250 4219 1831 4219 
Q 1534 4219 1204 4116 
Q 875 4013 500 3803 
L 500 4441 
Q 881 4594 1212 4672 
Q 1544 4750 1819 4750 
Q 2544 4750 2975 4387 
Q 3406 4025 3406 3419 
Q 3406 3131 3298 2873 
Q 3191 2616 2906 2266 
Q 2828 2175 2409 1742 
Q 1991 1309 1228 531 
z
" id="DejaVuSans-32" transform="scale(0.015625)"/>
       </defs>
       <use xlink:href="#DejaVuSans-30"/>
       <use x="63.623047" xlink:href="#DejaVuSans-2e"/>
       <use x="95.410156" xlink:href="#DejaVuSans-32"/>
      </g>
     </g>
    </g>
    <g id="xtick_2">
     <g id="line2d_2">
      <g>
       <use style="stroke:#000000;stroke-width:0.8;" x="250.206642" xlink:href="#mfc788b686a" y="358.356094"/>
      </g>
     </g>
     <g id="text_2">
      <!-- 0.4 -->
      <g transform="translate(234.303517 380.552969)scale(0.2 -0.2)">
       <defs>
        <path d="M 2419 4116 
L 825 1625 
L 2419 1625 
L 2419 4116 
z
M 2253 4666 
L 3047 4666 
L 3047 1625 
L 3713 1625 
L 3713 1100 
L 3047 1100 
L 3047 0 
L 2419 0 
L 2419 1100 
L 313 1100 
L 313 1709 
L 2253 4666 
z
" id="DejaVuSans-34" transform="scale(0.015625)"/>
       </defs>
       <use xlink:href="#DejaVuSans-30"/>
       <use x="63.623047" xlink:href="#DejaVuSans-2e"/>
       <use x="95.410156" xlink:href="#DejaVuSans-34"/>
      </g>
     </g>
    </g>
    <g id="xtick_3">
     <g id="line2d_3">
      <g>
       <use style="stroke:#000000;stroke-width:0.8;" x="326.297551" xlink:href="#mfc788b686a" y="358.356094"/>
      </g>
     </g>
     <g id="text_3">
      <!-- 0.6 -->
      <g transform="translate(310.394426 380.552969)scale(0.2 -0.2)">
       <defs>
        <path d="M 2113 2584 
Q 1688 2584 1439 2293 
Q 1191 2003 1191 1497 
Q 1191 994 1439 701 
Q 1688 409 2113 409 
Q 2538 409 2786 701 
Q 3034 994 3034 1497 
Q 3034 2003 2786 2293 
Q 2538 2584 2113 2584 
z
M 3366 4563 
L 3366 3988 
Q 3128 4100 2886 4159 
Q 2644 4219 2406 4219 
Q 1781 4219 1451 3797 
Q 1122 3375 1075 2522 
Q 1259 2794 1537 2939 
Q 1816 3084 2150 3084 
Q 2853 3084 3261 2657 
Q 3669 2231 3669 1497 
Q 3669 778 3244 343 
Q 2819 -91 2113 -91 
Q 1303 -91 875 529 
Q 447 1150 447 2328 
Q 447 3434 972 4092 
Q 1497 4750 2381 4750 
Q 2619 4750 2861 4703 
Q 3103 4656 3366 4563 
z
" id="DejaVuSans-36" transform="scale(0.015625)"/>
       </defs>
       <use xlink:href="#DejaVuSans-30"/>
       <use x="63.623047" xlink:href="#DejaVuSans-2e"/>
       <use x="95.410156" xlink:href="#DejaVuSans-36"/>
      </g>
     </g>
    </g>
    <g id="xtick_4">
     <g id="line2d_4">
      <g>
       <use style="stroke:#000000;stroke-width:0.8;" x="402.388461" xlink:href="#mfc788b686a" y="358.356094"/>
      </g>
     </g>
     <g id="text_4">
      <!-- 0.8 -->
      <g transform="translate(386.485336 380.552969)scale(0.2 -0.2)">
       <defs>
        <path d="M 2034 2216 
Q 1584 2216 1326 1975 
Q 1069 1734 1069 1313 
Q 1069 891 1326 650 
Q 1584 409 2034 409 
Q 2484 409 2743 651 
Q 3003 894 3003 1313 
Q 3003 1734 2745 1975 
Q 2488 2216 2034 2216 
z
M 1403 2484 
Q 997 2584 770 2862 
Q 544 3141 544 3541 
Q 544 4100 942 4425 
Q 1341 4750 2034 4750 
Q 2731 4750 3128 4425 
Q 3525 4100 3525 3541 
Q 3525 3141 3298 2862 
Q 3072 2584 2669 2484 
Q 3125 2378 3379 2068 
Q 3634 1759 3634 1313 
Q 3634 634 3220 271 
Q 2806 -91 2034 -91 
Q 1263 -91 848 271 
Q 434 634 434 1313 
Q 434 1759 690 2068 
Q 947 2378 1403 2484 
z
M 1172 3481 
Q 1172 3119 1398 2916 
Q 1625 2713 2034 2713 
Q 2441 2713 2670 2916 
Q 2900 3119 2900 3481 
Q 2900 3844 2670 4047 
Q 2441 4250 2034 4250 
Q 1625 4250 1398 4047 
Q 1172 3844 1172 3481 
z
" id="DejaVuSans-38" transform="scale(0.015625)"/>
       </defs>
       <use xlink:href="#DejaVuSans-30"/>
       <use x="63.623047" xlink:href="#DejaVuSans-2e"/>
       <use x="95.410156" xlink:href="#DejaVuSans-38"/>
      </g>
     </g>
    </g>
    <g id="xtick_5">
     <g id="line2d_5">
      <g>
       <use style="stroke:#000000;stroke-width:0.8;" x="478.47937" xlink:href="#mfc788b686a" y="358.356094"/>
      </g>
     </g>
     <g id="text_5">
      <!-- 1.0 -->
      <g transform="translate(462.576245 380.552969)scale(0.2 -0.2)">
       <defs>
        <path d="M 794 531 
L 1825 531 
L 1825 4091 
L 703 3866 
L 703 4441 
L 1819 4666 
L 2450 4666 
L 2450 531 
L 3481 531 
L 3481 0 
L 794 0 
L 794 531 
z
" id="DejaVuSans-31" transform="scale(0.015625)"/>
       </defs>
       <use xlink:href="#DejaVuSans-31"/>
       <use x="63.623047" xlink:href="#DejaVuSans-2e"/>
       <use x="95.410156" xlink:href="#DejaVuSans-30"/>
      </g>
     </g>
    </g>
    <g id="text_6">
     <!-- Ω -->
     <g transform="translate(289.386641 407.708438)scale(0.25 -0.25)">
      <defs>
       <path d="M 4647 556 
L 4647 0 
L 2772 0 
L 2772 556 
Q 3325 859 3634 1378 
Q 3944 1897 3944 2528 
Q 3944 3278 3531 3731 
Q 3119 4184 2444 4184 
Q 1769 4184 1355 3729 
Q 941 3275 941 2528 
Q 941 1897 1250 1378 
Q 1563 859 2119 556 
L 2119 0 
L 244 0 
L 244 556 
L 1241 556 
Q 747 991 519 1456 
Q 294 1922 294 2497 
Q 294 3491 894 4106 
Q 1491 4722 2444 4722 
Q 3391 4722 3994 4106 
Q 4594 3494 4594 2528 
Q 4594 1922 4372 1459 
Q 4150 997 3647 556 
L 4647 556 
z
" id="DejaVuSans-3a9" transform="scale(0.015625)"/>
      </defs>
      <use xlink:href="#DejaVuSans-3a9"/>
     </g>
    </g>
   </g>
   <g id="matplotlib.axis_2">
    <g id="ytick_1">
     <g id="line2d_6">
      <defs>
       <path d="M 0 0 
L -3.5 0 
" id="m26fec01a3e" style="stroke:#000000;stroke-width:0.8;"/>
      </defs>
      <g>
       <use style="stroke:#000000;stroke-width:0.8;" x="98.059375" xlink:href="#m26fec01a3e" y="358.356094"/>
      </g>
     </g>
     <g id="text_7">
      <!-- 0.0 -->
      <g transform="translate(51.301563 367.854141)scale(0.25 -0.25)">
       <use xlink:href="#DejaVuSans-30"/>
       <use x="63.623047" xlink:href="#DejaVuSans-2e"/>
       <use x="95.410156" xlink:href="#DejaVuSans-30"/>
      </g>
     </g>
    </g>
    <g id="ytick_2">
     <g id="line2d_7">
      <g>
       <use style="stroke:#000000;stroke-width:0.8;" x="98.059375" xlink:href="#m26fec01a3e" y="289.262225"/>
      </g>
     </g>
     <g id="text_8">
      <!-- 0.01 -->
      <g transform="translate(35.395313 298.760272)scale(0.25 -0.25)">
       <use xlink:href="#DejaVuSans-30"/>
       <use x="63.623047" xlink:href="#DejaVuSans-2e"/>
       <use x="95.410156" xlink:href="#DejaVuSans-30"/>
       <use x="159.033203" xlink:href="#DejaVuSans-31"/>
      </g>
     </g>
    </g>
    <g id="ytick_3">
     <g id="line2d_8">
      <g>
       <use style="stroke:#000000;stroke-width:0.8;" x="98.059375" xlink:href="#m26fec01a3e" y="220.168356"/>
      </g>
     </g>
     <g id="text_9">
      <!-- 0.02 -->
      <g transform="translate(35.395313 229.666403)scale(0.25 -0.25)">
       <use xlink:href="#DejaVuSans-30"/>
       <use x="63.623047" xlink:href="#DejaVuSans-2e"/>
       <use x="95.410156" xlink:href="#DejaVuSans-30"/>
       <use x="159.033203" xlink:href="#DejaVuSans-32"/>
      </g>
     </g>
    </g>
    <g id="ytick_4">
     <g id="line2d_9">
      <g>
       <use style="stroke:#000000;stroke-width:0.8;" x="98.059375" xlink:href="#m26fec01a3e" y="151.074488"/>
      </g>
     </g>
     <g id="text_10">
      <!-- 0.03 -->
      <g transform="translate(35.395313 160.572534)scale(0.25 -0.25)">
       <defs>
        <path d="M 2597 2516 
Q 3050 2419 3304 2112 
Q 3559 1806 3559 1356 
Q 3559 666 3084 287 
Q 2609 -91 1734 -91 
Q 1441 -91 1130 -33 
Q 819 25 488 141 
L 488 750 
Q 750 597 1062 519 
Q 1375 441 1716 441 
Q 2309 441 2620 675 
Q 2931 909 2931 1356 
Q 2931 1769 2642 2001 
Q 2353 2234 1838 2234 
L 1294 2234 
L 1294 2753 
L 1863 2753 
Q 2328 2753 2575 2939 
Q 2822 3125 2822 3475 
Q 2822 3834 2567 4026 
Q 2313 4219 1838 4219 
Q 1578 4219 1281 4162 
Q 984 4106 628 3988 
L 628 4550 
Q 988 4650 1302 4700 
Q 1616 4750 1894 4750 
Q 2613 4750 3031 4423 
Q 3450 4097 3450 3541 
Q 3450 3153 3228 2886 
Q 3006 2619 2597 2516 
z
" id="DejaVuSans-33" transform="scale(0.015625)"/>
       </defs>
       <use xlink:href="#DejaVuSans-30"/>
       <use x="63.623047" xlink:href="#DejaVuSans-2e"/>
       <use x="95.410156" xlink:href="#DejaVuSans-30"/>
       <use x="159.033203" xlink:href="#DejaVuSans-33"/>
      </g>
     </g>
    </g>
    <g id="ytick_5">
     <g id="line2d_10">
      <g>
       <use style="stroke:#000000;stroke-width:0.8;" x="98.059375" xlink:href="#m26fec01a3e" y="81.980619"/>
      </g>
     </g>
     <g id="text_11">
      <!-- 0.04 -->
      <g transform="translate(35.395313 91.478666)scale(0.25 -0.25)">
       <use xlink:href="#DejaVuSans-30"/>
       <use x="63.623047" xlink:href="#DejaVuSans-2e"/>
       <use x="95.410156" xlink:href="#DejaVuSans-30"/>
       <use x="159.033203" xlink:href="#DejaVuSans-34"/>
      </g>
     </g>
    </g>
    <g id="text_12">
     <!-- Probability -->
     <g transform="translate(26.196094 261.348359)rotate(-90)scale(0.25 -0.25)">
      <defs>
       <path d="M 1259 4147 
L 1259 2394 
L 2053 2394 
Q 2494 2394 2734 2622 
Q 2975 2850 2975 3272 
Q 2975 3691 2734 3919 
Q 2494 4147 2053 4147 
L 1259 4147 
z
M 628 4666 
L 2053 4666 
Q 2838 4666 3239 4311 
Q 3641 3956 3641 3272 
Q 3641 2581 3239 2228 
Q 2838 1875 2053 1875 
L 1259 1875 
L 1259 0 
L 628 0 
L 628 4666 
z
" id="DejaVuSans-50" transform="scale(0.015625)"/>
       <path d="M 2631 2963 
Q 2534 3019 2420 3045 
Q 2306 3072 2169 3072 
Q 1681 3072 1420 2755 
Q 1159 2438 1159 1844 
L 1159 0 
L 581 0 
L 581 3500 
L 1159 3500 
L 1159 2956 
Q 1341 3275 1631 3429 
Q 1922 3584 2338 3584 
Q 2397 3584 2469 3576 
Q 2541 3569 2628 3553 
L 2631 2963 
z
" id="DejaVuSans-72" transform="scale(0.015625)"/>
       <path d="M 1959 3097 
Q 1497 3097 1228 2736 
Q 959 2375 959 1747 
Q 959 1119 1226 758 
Q 1494 397 1959 397 
Q 2419 397 2687 759 
Q 2956 1122 2956 1747 
Q 2956 2369 2687 2733 
Q 2419 3097 1959 3097 
z
M 1959 3584 
Q 2709 3584 3137 3096 
Q 3566 2609 3566 1747 
Q 3566 888 3137 398 
Q 2709 -91 1959 -91 
Q 1206 -91 779 398 
Q 353 888 353 1747 
Q 353 2609 779 3096 
Q 1206 3584 1959 3584 
z
" id="DejaVuSans-6f" transform="scale(0.015625)"/>
       <path d="M 3116 1747 
Q 3116 2381 2855 2742 
Q 2594 3103 2138 3103 
Q 1681 3103 1420 2742 
Q 1159 2381 1159 1747 
Q 1159 1113 1420 752 
Q 1681 391 2138 391 
Q 2594 391 2855 752 
Q 3116 1113 3116 1747 
z
M 1159 2969 
Q 1341 3281 1617 3432 
Q 1894 3584 2278 3584 
Q 2916 3584 3314 3078 
Q 3713 2572 3713 1747 
Q 3713 922 3314 415 
Q 2916 -91 2278 -91 
Q 1894 -91 1617 61 
Q 1341 213 1159 525 
L 1159 0 
L 581 0 
L 581 4863 
L 1159 4863 
L 1159 2969 
z
" id="DejaVuSans-62" transform="scale(0.015625)"/>
       <path d="M 2194 1759 
Q 1497 1759 1228 1600 
Q 959 1441 959 1056 
Q 959 750 1161 570 
Q 1363 391 1709 391 
Q 2188 391 2477 730 
Q 2766 1069 2766 1631 
L 2766 1759 
L 2194 1759 
z
M 3341 1997 
L 3341 0 
L 2766 0 
L 2766 531 
Q 2569 213 2275 61 
Q 1981 -91 1556 -91 
Q 1019 -91 701 211 
Q 384 513 384 1019 
Q 384 1609 779 1909 
Q 1175 2209 1959 2209 
L 2766 2209 
L 2766 2266 
Q 2766 2663 2505 2880 
Q 2244 3097 1772 3097 
Q 1472 3097 1187 3025 
Q 903 2953 641 2809 
L 641 3341 
Q 956 3463 1253 3523 
Q 1550 3584 1831 3584 
Q 2591 3584 2966 3190 
Q 3341 2797 3341 1997 
z
" id="DejaVuSans-61" transform="scale(0.015625)"/>
       <path d="M 603 3500 
L 1178 3500 
L 1178 0 
L 603 0 
L 603 3500 
z
M 603 4863 
L 1178 4863 
L 1178 4134 
L 603 4134 
L 603 4863 
z
" id="DejaVuSans-69" transform="scale(0.015625)"/>
       <path d="M 603 4863 
L 1178 4863 
L 1178 0 
L 603 0 
L 603 4863 
z
" id="DejaVuSans-6c" transform="scale(0.015625)"/>
       <path d="M 1172 4494 
L 1172 3500 
L 2356 3500 
L 2356 3053 
L 1172 3053 
L 1172 1153 
Q 1172 725 1289 603 
Q 1406 481 1766 481 
L 2356 481 
L 2356 0 
L 1766 0 
Q 1100 0 847 248 
Q 594 497 594 1153 
L 594 3053 
L 172 3053 
L 172 3500 
L 594 3500 
L 594 4494 
L 1172 4494 
z
" id="DejaVuSans-74" transform="scale(0.015625)"/>
       <path d="M 2059 -325 
Q 1816 -950 1584 -1140 
Q 1353 -1331 966 -1331 
L 506 -1331 
L 506 -850 
L 844 -850 
Q 1081 -850 1212 -737 
Q 1344 -625 1503 -206 
L 1606 56 
L 191 3500 
L 800 3500 
L 1894 763 
L 2988 3500 
L 3597 3500 
L 2059 -325 
z
" id="DejaVuSans-79" transform="scale(0.015625)"/>
      </defs>
      <use xlink:href="#DejaVuSans-50"/>
      <use x="58.552734" xlink:href="#DejaVuSans-72"/>
      <use x="97.416016" xlink:href="#DejaVuSans-6f"/>
      <use x="158.597656" xlink:href="#DejaVuSans-62"/>
      <use x="222.074219" xlink:href="#DejaVuSans-61"/>
      <use x="283.353516" xlink:href="#DejaVuSans-62"/>
      <use x="346.830078" xlink:href="#DejaVuSans-69"/>
      <use x="374.613281" xlink:href="#DejaVuSans-6c"/>
      <use x="402.396484" xlink:href="#DejaVuSans-69"/>
      <use x="430.179688" xlink:href="#DejaVuSans-74"/>
      <use x="469.388672" xlink:href="#DejaVuSans-79"/>
     </g>
    </g>
   </g>
   <g id="line2d_11">
    <path clip-path="url(#p5f0e1d2fa3)" d="M 116.321193 351.842001 
L 129.060426 349.042436 
L 159.998561 342.460507 
L 165.458232 341.103813 
L 169.098013 340.036854 
L 172.737794 338.776845 
L 176.377574 337.277399 
L 180.017355 335.510666 
L 183.657136 333.475572 
L 187.296916 331.201151 
L 192.756587 327.468499 
L 207.31571 317.22695 
L 214.595271 312.137217 
L 218.235052 309.307751 
L 221.874833 306.067499 
L 223.694723 304.236676 
L 225.514613 302.236695 
L 227.334504 300.048537 
L 229.154394 297.656216 
L 230.974284 295.047565 
L 232.794175 292.214916 
L 234.614065 289.155644 
L 238.253846 282.373993 
L 241.893626 274.791696 
L 245.533407 266.581102 
L 252.812968 249.259827 
L 258.272639 236.539787 
L 261.91242 228.608815 
L 265.552201 221.257232 
L 269.191981 214.491749 
L 272.831762 208.218527 
L 280.111323 196.395658 
L 285.570994 187.265662 
L 289.210775 180.696346 
L 292.850556 173.641499 
L 296.490336 166.137544 
L 309.229569 139.234969 
L 312.869349 132.583575 
L 314.68924 129.614541 
L 316.50913 126.919413 
L 318.32902 124.517608 
L 320.148911 122.421666 
L 321.968801 120.636963 
L 323.788691 119.161697 
L 325.608582 117.987154 
L 327.428472 117.098203 
L 329.248362 116.474015 
L 331.068253 116.088941 
L 332.888143 115.913508 
L 334.708033 115.915492 
L 338.347814 116.315611 
L 343.807485 117.401394 
L 347.447266 118.098905 
L 351.087046 118.562374 
L 354.726827 118.684129 
L 358.366608 118.429245 
L 362.006388 117.833435 
L 365.646169 116.994346 
L 372.92573 115.192418 
L 376.565511 114.57659 
L 378.385401 114.411423 
L 380.205292 114.363119 
L 382.025182 114.443861 
L 383.845072 114.661944 
L 385.664963 115.021413 
L 387.484853 115.521831 
L 389.304743 116.158217 
L 392.944524 117.796927 
L 396.584305 119.814173 
L 407.503647 126.295222 
L 411.143427 127.978967 
L 414.783208 129.227255 
L 418.422989 130.053448 
L 423.88266 130.811994 
L 427.52244 131.384671 
L 429.342331 131.823656 
L 431.162221 132.431241 
L 432.982111 133.258855 
L 434.802002 134.35704 
L 436.621892 135.773862 
L 438.441782 137.553407 
L 440.261673 139.734444 
L 442.081563 142.349292 
L 443.901453 145.422945 
L 445.721344 148.972468 
L 447.541234 153.006666 
L 449.361124 157.526031 
L 451.181015 162.522922 
L 453.000905 167.981961 
L 454.820795 173.880582 
L 458.460576 186.874506 
L 462.100357 201.207689 
L 465.740137 216.516202 
L 478.47937 271.797304 
L 478.47937 271.797304 
" style="fill:none;stroke:#0000ff;stroke-linecap:square;stroke-width:1.5;"/>
   </g>
   <g id="line2d_12">
    <path clip-path="url(#p5f0e1d2fa3)" d="M 116.321193 351.842001 
L 129.060426 349.042436 
L 159.998561 342.460507 
L 165.458232 341.103813 
L 169.098013 340.036854 
L 172.737794 338.776845 
L 176.377574 337.277399 
L 180.017355 335.510666 
L 183.657136 333.475572 
L 187.296916 331.201151 
L 192.756587 327.468499 
L 207.31571 317.22695 
L 214.595271 312.137217 
L 218.235052 309.307751 
L 221.874833 306.067499 
L 223.694723 304.236676 
L 225.514613 302.236695 
L 227.334504 300.048537 
L 229.154394 297.656216 
L 230.974284 295.047565 
L 232.794175 292.214916 
L 234.614065 289.155644 
L 238.253846 282.373993 
L 241.893626 274.791696 
L 245.533407 266.581102 
L 252.812968 249.259827 
L 258.272639 236.539787 
L 261.91242 228.608815 
L 265.552201 221.257232 
L 269.191981 214.491749 
L 272.831762 208.218527 
L 280.111323 196.395658 
L 285.570994 187.265662 
L 289.210775 180.696346 
L 292.850556 173.641499 
L 296.490336 166.137544 
L 309.229569 139.234969 
L 312.869349 132.583575 
L 314.68924 129.614541 
L 316.50913 126.919413 
L 318.32902 124.517608 
L 320.148911 122.421666 
L 321.968801 120.636963 
L 323.788691 119.161697 
L 325.608582 117.987154 
L 327.428472 117.098203 
L 329.248362 116.474015 
L 331.068253 116.088941 
L 332.888143 115.913508 
L 334.708033 115.915492 
L 338.347814 116.315611 
L 343.807485 117.401394 
L 347.447266 118.098905 
L 351.087046 118.562374 
L 354.726827 118.684129 
L 358.366608 118.429245 
L 362.006388 117.833435 
L 365.646169 116.994346 
L 372.92573 115.192418 
L 376.565511 114.57659 
L 378.385401 114.411423 
L 380.205292 114.363119 
L 382.025182 114.443861 
L 383.845072 114.661944 
L 385.664963 115.021413 
L 387.484853 115.521831 
L 389.304743 116.158217 
L 392.944524 117.796927 
L 396.584305 119.814173 
L 407.503647 126.295222 
L 411.143427 127.978967 
L 414.783208 129.227255 
L 418.422989 130.053448 
L 423.88266 130.811994 
L 427.52244 131.384671 
L 429.342331 131.823656 
L 431.162221 132.431241 
L 432.982111 133.258855 
L 434.802002 134.35704 
L 436.621892 135.773862 
L 438.441782 137.553407 
L 440.261673 139.734444 
L 442.081563 142.349292 
L 443.901453 145.422945 
L 445.721344 148.972468 
L 447.541234 153.006666 
L 449.361124 157.526031 
L 451.181015 162.522922 
L 453.000905 167.981961 
L 454.820795 173.880582 
L 458.460576 186.874506 
L 462.100357 201.207689 
L 465.740137 216.516202 
L 478.47937 271.797304 
L 478.47937 271.797304 
" style="fill:none;stroke:#0000ff;stroke-linecap:square;stroke-width:1.5;"/>
   </g>
   <g id="patch_98">
    <path d="M 98.059375 358.356094 
L 98.059375 32.196094 
" style="fill:none;stroke:#000000;stroke-linecap:square;stroke-linejoin:miter;stroke-width:0.8;"/>
   </g>
   <g id="patch_99">
    <path d="M 499.819375 358.356094 
L 499.819375 32.196094 
" style="fill:none;stroke:#000000;stroke-linecap:square;stroke-linejoin:miter;stroke-width:0.8;"/>
   </g>
   <g id="patch_100">
    <path d="M 98.059375 358.356094 
L 499.819375 358.356094 
" style="fill:none;stroke:#000000;stroke-linecap:square;stroke-linejoin:miter;stroke-width:0.8;"/>
   </g>
   <g id="patch_101">
    <path d="M 98.059375 32.196094 
L 499.819375 32.196094 
" style="fill:none;stroke:#000000;stroke-linecap:square;stroke-linejoin:miter;stroke-width:0.8;"/>
   </g>
   <g id="text_13">
    <!-- Histogram of Ω for simmetry p4 -->
    <g transform="translate(100.089766 26.196094)scale(0.25 -0.25)">
     <defs>
      <path d="M 628 4666 
L 1259 4666 
L 1259 2753 
L 3553 2753 
L 3553 4666 
L 4184 4666 
L 4184 0 
L 3553 0 
L 3553 2222 
L 1259 2222 
L 1259 0 
L 628 0 
L 628 4666 
z
" id="DejaVuSans-48" transform="scale(0.015625)"/>
      <path d="M 2834 3397 
L 2834 2853 
Q 2591 2978 2328 3040 
Q 2066 3103 1784 3103 
Q 1356 3103 1142 2972 
Q 928 2841 928 2578 
Q 928 2378 1081 2264 
Q 1234 2150 1697 2047 
L 1894 2003 
Q 2506 1872 2764 1633 
Q 3022 1394 3022 966 
Q 3022 478 2636 193 
Q 2250 -91 1575 -91 
Q 1294 -91 989 -36 
Q 684 19 347 128 
L 347 722 
Q 666 556 975 473 
Q 1284 391 1588 391 
Q 1994 391 2212 530 
Q 2431 669 2431 922 
Q 2431 1156 2273 1281 
Q 2116 1406 1581 1522 
L 1381 1569 
Q 847 1681 609 1914 
Q 372 2147 372 2553 
Q 372 3047 722 3315 
Q 1072 3584 1716 3584 
Q 2034 3584 2315 3537 
Q 2597 3491 2834 3397 
z
" id="DejaVuSans-73" transform="scale(0.015625)"/>
      <path d="M 2906 1791 
Q 2906 2416 2648 2759 
Q 2391 3103 1925 3103 
Q 1463 3103 1205 2759 
Q 947 2416 947 1791 
Q 947 1169 1205 825 
Q 1463 481 1925 481 
Q 2391 481 2648 825 
Q 2906 1169 2906 1791 
z
M 3481 434 
Q 3481 -459 3084 -895 
Q 2688 -1331 1869 -1331 
Q 1566 -1331 1297 -1286 
Q 1028 -1241 775 -1147 
L 775 -588 
Q 1028 -725 1275 -790 
Q 1522 -856 1778 -856 
Q 2344 -856 2625 -561 
Q 2906 -266 2906 331 
L 2906 616 
Q 2728 306 2450 153 
Q 2172 0 1784 0 
Q 1141 0 747 490 
Q 353 981 353 1791 
Q 353 2603 747 3093 
Q 1141 3584 1784 3584 
Q 2172 3584 2450 3431 
Q 2728 3278 2906 2969 
L 2906 3500 
L 3481 3500 
L 3481 434 
z
" id="DejaVuSans-67" transform="scale(0.015625)"/>
      <path d="M 3328 2828 
Q 3544 3216 3844 3400 
Q 4144 3584 4550 3584 
Q 5097 3584 5394 3201 
Q 5691 2819 5691 2113 
L 5691 0 
L 5113 0 
L 5113 2094 
Q 5113 2597 4934 2840 
Q 4756 3084 4391 3084 
Q 3944 3084 3684 2787 
Q 3425 2491 3425 1978 
L 3425 0 
L 2847 0 
L 2847 2094 
Q 2847 2600 2669 2842 
Q 2491 3084 2119 3084 
Q 1678 3084 1418 2786 
Q 1159 2488 1159 1978 
L 1159 0 
L 581 0 
L 581 3500 
L 1159 3500 
L 1159 2956 
Q 1356 3278 1631 3431 
Q 1906 3584 2284 3584 
Q 2666 3584 2933 3390 
Q 3200 3197 3328 2828 
z
" id="DejaVuSans-6d" transform="scale(0.015625)"/>
      <path id="DejaVuSans-20" transform="scale(0.015625)"/>
      <path d="M 2375 4863 
L 2375 4384 
L 1825 4384 
Q 1516 4384 1395 4259 
Q 1275 4134 1275 3809 
L 1275 3500 
L 2222 3500 
L 2222 3053 
L 1275 3053 
L 1275 0 
L 697 0 
L 697 3053 
L 147 3053 
L 147 3500 
L 697 3500 
L 697 3744 
Q 697 4328 969 4595 
Q 1241 4863 1831 4863 
L 2375 4863 
z
" id="DejaVuSans-66" transform="scale(0.015625)"/>
      <path d="M 3597 1894 
L 3597 1613 
L 953 1613 
Q 991 1019 1311 708 
Q 1631 397 2203 397 
Q 2534 397 2845 478 
Q 3156 559 3463 722 
L 3463 178 
Q 3153 47 2828 -22 
Q 2503 -91 2169 -91 
Q 1331 -91 842 396 
Q 353 884 353 1716 
Q 353 2575 817 3079 
Q 1281 3584 2069 3584 
Q 2775 3584 3186 3129 
Q 3597 2675 3597 1894 
z
M 3022 2063 
Q 3016 2534 2758 2815 
Q 2500 3097 2075 3097 
Q 1594 3097 1305 2825 
Q 1016 2553 972 2059 
L 3022 2063 
z
" id="DejaVuSans-65" transform="scale(0.015625)"/>
      <path d="M 1159 525 
L 1159 -1331 
L 581 -1331 
L 581 3500 
L 1159 3500 
L 1159 2969 
Q 1341 3281 1617 3432 
Q 1894 3584 2278 3584 
Q 2916 3584 3314 3078 
Q 3713 2572 3713 1747 
Q 3713 922 3314 415 
Q 2916 -91 2278 -91 
Q 1894 -91 1617 61 
Q 1341 213 1159 525 
z
M 3116 1747 
Q 3116 2381 2855 2742 
Q 2594 3103 2138 3103 
Q 1681 3103 1420 2742 
Q 1159 2381 1159 1747 
Q 1159 1113 1420 752 
Q 1681 391 2138 391 
Q 2594 391 2855 752 
Q 3116 1113 3116 1747 
z
" id="DejaVuSans-70" transform="scale(0.015625)"/>
     </defs>
     <use xlink:href="#DejaVuSans-48"/>
     <use x="75.195312" xlink:href="#DejaVuSans-69"/>
     <use x="102.978516" xlink:href="#DejaVuSans-73"/>
     <use x="155.078125" xlink:href="#DejaVuSans-74"/>
     <use x="194.287109" xlink:href="#DejaVuSans-6f"/>
     <use x="255.46875" xlink:href="#DejaVuSans-67"/>
     <use x="318.945312" xlink:href="#DejaVuSans-72"/>
     <use x="360.058594" xlink:href="#DejaVuSans-61"/>
     <use x="421.337891" xlink:href="#DejaVuSans-6d"/>
     <use x="518.75" xlink:href="#DejaVuSans-20"/>
     <use x="550.537109" xlink:href="#DejaVuSans-6f"/>
     <use x="611.71875" xlink:href="#DejaVuSans-66"/>
     <use x="646.923828" xlink:href="#DejaVuSans-20"/>
     <use x="678.710938" xlink:href="#DejaVuSans-3a9"/>
     <use x="755.126953" xlink:href="#DejaVuSans-20"/>
     <use x="786.914062" xlink:href="#DejaVuSans-66"/>
     <use x="822.119141" xlink:href="#DejaVuSans-6f"/>
     <use x="883.300781" xlink:href="#DejaVuSans-72"/>
     <use x="924.414062" xlink:href="#DejaVuSans-20"/>
     <use x="956.201172" xlink:href="#DejaVuSans-73"/>
     <use x="1008.300781" xlink:href="#DejaVuSans-69"/>
     <use x="1036.083984" xlink:href="#DejaVuSans-6d"/>
     <use x="1133.496094" xlink:href="#DejaVuSans-6d"/>
     <use x="1230.908203" xlink:href="#DejaVuSans-65"/>
     <use x="1292.431641" xlink:href="#DejaVuSans-74"/>
     <use x="1331.640625" xlink:href="#DejaVuSans-72"/>
     <use x="1372.753906" xlink:href="#DejaVuSans-79"/>
     <use x="1431.933594" xlink:href="#DejaVuSans-20"/>
     <use x="1463.720703" xlink:href="#DejaVuSans-70"/>
     <use x="1527.197266" xlink:href="#DejaVuSans-34"/>
    </g>
   </g>
   <g id="legend_1">
    <g id="patch_102">
     <path d="M 105.059375 98.586719 
L 204.360156 98.586719 
Q 206.360156 98.586719 206.360156 96.586719 
L 206.360156 39.196094 
Q 206.360156 37.196094 204.360156 37.196094 
L 105.059375 37.196094 
Q 103.059375 37.196094 103.059375 39.196094 
L 103.059375 96.586719 
Q 103.059375 98.586719 105.059375 98.586719 
z
" style="fill:#ffffff;opacity:0.8;stroke:#cccccc;stroke-linejoin:miter;"/>
    </g>
    <g id="line2d_13">
     <path d="M 107.059375 56.692188 
L 127.059375 56.692188 
" style="fill:none;stroke:#0000ff;stroke-linecap:square;stroke-width:1.5;"/>
    </g>
    <g id="line2d_14"/>
    <g id="text_14">
     <!-- RTGA -->
     <g transform="translate(135.059375 60.192188)scale(0.25 -0.25)">
      <defs>
       <path d="M 2841 2188 
Q 3044 2119 3236 1894 
Q 3428 1669 3622 1275 
L 4263 0 
L 3584 0 
L 2988 1197 
Q 2756 1666 2539 1819 
Q 2322 1972 1947 1972 
L 1259 1972 
L 1259 0 
L 628 0 
L 628 4666 
L 2053 4666 
Q 2853 4666 3247 4331 
Q 3641 3997 3641 3322 
Q 3641 2881 3436 2590 
Q 3231 2300 2841 2188 
z
M 1259 4147 
L 1259 2491 
L 2053 2491 
Q 2509 2491 2742 2702 
Q 2975 2913 2975 3322 
Q 2975 3731 2742 3939 
Q 2509 4147 2053 4147 
L 1259 4147 
z
" id="DejaVuSans-52" transform="scale(0.015625)"/>
       <path d="M -19 4666 
L 3928 4666 
L 3928 4134 
L 2272 4134 
L 2272 0 
L 1638 0 
L 1638 4134 
L -19 4134 
L -19 4666 
z
" id="DejaVuSans-54" transform="scale(0.015625)"/>
       <path d="M 3809 666 
L 3809 1919 
L 2778 1919 
L 2778 2438 
L 4434 2438 
L 4434 434 
Q 4069 175 3628 42 
Q 3188 -91 2688 -91 
Q 1594 -91 976 548 
Q 359 1188 359 2328 
Q 359 3472 976 4111 
Q 1594 4750 2688 4750 
Q 3144 4750 3555 4637 
Q 3966 4525 4313 4306 
L 4313 3634 
Q 3963 3931 3569 4081 
Q 3175 4231 2741 4231 
Q 1884 4231 1454 3753 
Q 1025 3275 1025 2328 
Q 1025 1384 1454 906 
Q 1884 428 2741 428 
Q 3075 428 3337 486 
Q 3600 544 3809 666 
z
" id="DejaVuSans-47" transform="scale(0.015625)"/>
       <path d="M 2188 4044 
L 1331 1722 
L 3047 1722 
L 2188 4044 
z
M 1831 4666 
L 2547 4666 
L 4325 0 
L 3669 0 
L 3244 1197 
L 1141 1197 
L 716 0 
L 50 0 
L 1831 4666 
z
" id="DejaVuSans-41" transform="scale(0.015625)"/>
      </defs>
      <use xlink:href="#DejaVuSans-52"/>
      <use x="62.232422" xlink:href="#DejaVuSans-54"/>
      <use x="123.316406" xlink:href="#DejaVuSans-47"/>
      <use x="200.806641" xlink:href="#DejaVuSans-41"/>
     </g>
    </g>
    <g id="line2d_15">
     <path d="M 107.059375 85.8875 
L 127.059375 85.8875 
" style="fill:none;stroke:#0000ff;stroke-linecap:square;stroke-width:1.5;"/>
    </g>
    <g id="line2d_16"/>
    <g id="text_15">
     <!-- GAN -->
     <g transform="translate(135.059375 89.3875)scale(0.25 -0.25)">
      <defs>
       <path d="M 628 4666 
L 1478 4666 
L 3547 763 
L 3547 4666 
L 4159 4666 
L 4159 0 
L 3309 0 
L 1241 3903 
L 1241 0 
L 628 0 
L 628 4666 
z
" id="DejaVuSans-4e" transform="scale(0.015625)"/>
      </defs>
      <use xlink:href="#DejaVuSans-47"/>
      <use x="77.490234" xlink:href="#DejaVuSans-41"/>
      <use x="145.898438" xlink:href="#DejaVuSans-4e"/>
     </g>
    </g>
   </g>
  </g>
 </g>
 <defs>
  <clipPath id="p5f0e1d2fa3">
   <rect height="326.16" width="401.76" x="98.059375" y="32.196094"/>
  </clipPath>
 </defs>
</svg>
