<?xml version="1.0" encoding="utf-8" standalone="no"?>
<!DOCTYPE svg PUBLIC "-//W3C//DTD SVG 1.1//EN"
  "http://www.w3.org/Graphics/SVG/1.1/DTD/svg11.dtd">
<svg height="420.107656pt" version="1.1" viewBox="0 0 507.019375 420.107656" width="507.019375pt" xmlns="http://www.w3.org/2000/svg" xmlns:xlink="http://www.w3.org/1999/xlink">
 <metadata>
  <rdf:RDF xmlns:cc="http://creativecommons.org/ns#" xmlns:dc="http://purl.org/dc/elements/1.1/" xmlns:rdf="http://www.w3.org/1999/02/22-rdf-syntax-ns#">
   <cc:Work>
    <dc:type rdf:resource="http://purl.org/dc/dcmitype/StillImage"/>
    <dc:date>2021-10-24T14:51:33.492297</dc:date>
    <dc:format>image/svg+xml</dc:format>
    <dc:creator>
     <cc:Agent>
      <dc:title>Matplotlib v3.4.3, https://matplotlib.org/</dc:title>
     </cc:Agent>
    </dc:creator>
   </cc:Work>
  </rdf:RDF>
 </metadata>
 <defs>
  <style type="text/css">*{stroke-linecap:butt;stroke-linejoin:round;}</style>
 </defs>
 <g id="figure_1">
  <g id="axes_1">
   <g id="patch_1">
    <path d="M 98.059375 358.356094 
L 499.819375 358.356094 
L 499.819375 32.196094 
L 98.059375 32.196094 
z
" style="fill:#ffffff;"/>
   </g>
   <g id="patch_2">
    <path clip-path="url(#pad3f1fadad)" d="M 116.321193 358.356094 
L 124.261114 358.356094 
L 124.261114 357.777642 
L 116.321193 357.777642 
z
" style="fill:#0000ff;fill-opacity:0.5;stroke:#000000;stroke-linejoin:miter;stroke-width:0.793992;"/>
   </g>
   <g id="patch_3">
    <path clip-path="url(#pad3f1fadad)" d="M 124.261114 358.356094 
L 132.201035 358.356094 
L 132.201035 358.356094 
L 124.261114 358.356094 
z
" style="fill:#0000ff;fill-opacity:0.5;stroke:#000000;stroke-linejoin:miter;stroke-width:0.793992;"/>
   </g>
   <g id="patch_4">
    <path clip-path="url(#pad3f1fadad)" d="M 132.201035 358.356094 
L 140.140956 358.356094 
L 140.140956 357.19919 
L 132.201035 357.19919 
z
" style="fill:#0000ff;fill-opacity:0.5;stroke:#000000;stroke-linejoin:miter;stroke-width:0.793992;"/>
   </g>
   <g id="patch_5">
    <path clip-path="url(#pad3f1fadad)" d="M 140.140956 358.356094 
L 148.080877 358.356094 
L 148.080877 358.356094 
L 140.140956 358.356094 
z
" style="fill:#0000ff;fill-opacity:0.5;stroke:#000000;stroke-linejoin:miter;stroke-width:0.793992;"/>
   </g>
   <g id="patch_6">
    <path clip-path="url(#pad3f1fadad)" d="M 148.080877 358.356094 
L 156.020798 358.356094 
L 156.020798 358.356094 
L 148.080877 358.356094 
z
" style="fill:#0000ff;fill-opacity:0.5;stroke:#000000;stroke-linejoin:miter;stroke-width:0.793992;"/>
   </g>
   <g id="patch_7">
    <path clip-path="url(#pad3f1fadad)" d="M 156.020798 358.356094 
L 163.960719 358.356094 
L 163.960719 358.356094 
L 156.020798 358.356094 
z
" style="fill:#0000ff;fill-opacity:0.5;stroke:#000000;stroke-linejoin:miter;stroke-width:0.793992;"/>
   </g>
   <g id="patch_8">
    <path clip-path="url(#pad3f1fadad)" d="M 163.960719 358.356094 
L 171.90064 358.356094 
L 171.90064 358.356094 
L 163.960719 358.356094 
z
" style="fill:#0000ff;fill-opacity:0.5;stroke:#000000;stroke-linejoin:miter;stroke-width:0.793992;"/>
   </g>
   <g id="patch_9">
    <path clip-path="url(#pad3f1fadad)" d="M 171.90064 358.356094 
L 179.840561 358.356094 
L 179.840561 358.356094 
L 171.90064 358.356094 
z
" style="fill:#0000ff;fill-opacity:0.5;stroke:#000000;stroke-linejoin:miter;stroke-width:0.793992;"/>
   </g>
   <g id="patch_10">
    <path clip-path="url(#pad3f1fadad)" d="M 179.840561 358.356094 
L 187.780482 358.356094 
L 187.780482 357.777642 
L 179.840561 357.777642 
z
" style="fill:#0000ff;fill-opacity:0.5;stroke:#000000;stroke-linejoin:miter;stroke-width:0.793992;"/>
   </g>
   <g id="patch_11">
    <path clip-path="url(#pad3f1fadad)" d="M 187.780482 358.356094 
L 195.720403 358.356094 
L 195.720403 358.356094 
L 187.780482 358.356094 
z
" style="fill:#0000ff;fill-opacity:0.5;stroke:#000000;stroke-linejoin:miter;stroke-width:0.793992;"/>
   </g>
   <g id="patch_12">
    <path clip-path="url(#pad3f1fadad)" d="M 195.720403 358.356094 
L 203.660324 358.356094 
L 203.660324 358.356094 
L 195.720403 358.356094 
z
" style="fill:#0000ff;fill-opacity:0.5;stroke:#000000;stroke-linejoin:miter;stroke-width:0.793992;"/>
   </g>
   <g id="patch_13">
    <path clip-path="url(#pad3f1fadad)" d="M 203.660324 358.356094 
L 211.600245 358.356094 
L 211.600245 358.356094 
L 203.660324 358.356094 
z
" style="fill:#0000ff;fill-opacity:0.5;stroke:#000000;stroke-linejoin:miter;stroke-width:0.793992;"/>
   </g>
   <g id="patch_14">
    <path clip-path="url(#pad3f1fadad)" d="M 211.600245 358.356094 
L 219.540166 358.356094 
L 219.540166 358.356094 
L 211.600245 358.356094 
z
" style="fill:#0000ff;fill-opacity:0.5;stroke:#000000;stroke-linejoin:miter;stroke-width:0.793992;"/>
   </g>
   <g id="patch_15">
    <path clip-path="url(#pad3f1fadad)" d="M 219.540166 358.356094 
L 227.480086 358.356094 
L 227.480086 358.356094 
L 219.540166 358.356094 
z
" style="fill:#0000ff;fill-opacity:0.5;stroke:#000000;stroke-linejoin:miter;stroke-width:0.793992;"/>
   </g>
   <g id="patch_16">
    <path clip-path="url(#pad3f1fadad)" d="M 227.480086 358.356094 
L 235.420007 358.356094 
L 235.420007 353.150028 
L 227.480086 353.150028 
z
" style="fill:#0000ff;fill-opacity:0.5;stroke:#000000;stroke-linejoin:miter;stroke-width:0.793992;"/>
   </g>
   <g id="patch_17">
    <path clip-path="url(#pad3f1fadad)" d="M 235.420007 358.356094 
L 243.359928 358.356094 
L 243.359928 336.374929 
L 235.420007 336.374929 
z
" style="fill:#0000ff;fill-opacity:0.5;stroke:#000000;stroke-linejoin:miter;stroke-width:0.793992;"/>
   </g>
   <g id="patch_18">
    <path clip-path="url(#pad3f1fadad)" d="M 243.359928 358.356094 
L 251.299849 358.356094 
L 251.299849 295.883308 
L 243.359928 295.883308 
z
" style="fill:#0000ff;fill-opacity:0.5;stroke:#000000;stroke-linejoin:miter;stroke-width:0.793992;"/>
   </g>
   <g id="patch_19">
    <path clip-path="url(#pad3f1fadad)" d="M 251.299849 358.356094 
L 259.23977 358.356094 
L 259.23977 295.304857 
L 251.299849 295.304857 
z
" style="fill:#0000ff;fill-opacity:0.5;stroke:#000000;stroke-linejoin:miter;stroke-width:0.793992;"/>
   </g>
   <g id="patch_20">
    <path clip-path="url(#pad3f1fadad)" d="M 259.23977 358.356094 
L 267.179691 358.356094 
L 267.179691 274.480595 
L 259.23977 274.480595 
z
" style="fill:#0000ff;fill-opacity:0.5;stroke:#000000;stroke-linejoin:miter;stroke-width:0.793992;"/>
   </g>
   <g id="patch_21">
    <path clip-path="url(#pad3f1fadad)" d="M 267.179691 358.356094 
L 275.119612 358.356094 
L 275.119612 264.646916 
L 267.179691 264.646916 
z
" style="fill:#0000ff;fill-opacity:0.5;stroke:#000000;stroke-linejoin:miter;stroke-width:0.793992;"/>
   </g>
   <g id="patch_22">
    <path clip-path="url(#pad3f1fadad)" d="M 275.119612 358.356094 
L 283.059533 358.356094 
L 283.059533 249.028719 
L 275.119612 249.028719 
z
" style="fill:#0000ff;fill-opacity:0.5;stroke:#000000;stroke-linejoin:miter;stroke-width:0.793992;"/>
   </g>
   <g id="patch_23">
    <path clip-path="url(#pad3f1fadad)" d="M 283.059533 358.356094 
L 290.999454 358.356094 
L 290.999454 235.72433 
L 283.059533 235.72433 
z
" style="fill:#0000ff;fill-opacity:0.5;stroke:#000000;stroke-linejoin:miter;stroke-width:0.793992;"/>
   </g>
   <g id="patch_24">
    <path clip-path="url(#pad3f1fadad)" d="M 290.999454 358.356094 
L 298.939375 358.356094 
L 298.939375 220.684585 
L 290.999454 220.684585 
z
" style="fill:#0000ff;fill-opacity:0.5;stroke:#000000;stroke-linejoin:miter;stroke-width:0.793992;"/>
   </g>
   <g id="patch_25">
    <path clip-path="url(#pad3f1fadad)" d="M 298.939375 358.356094 
L 306.879296 358.356094 
L 306.879296 205.644841 
L 298.939375 205.644841 
z
" style="fill:#0000ff;fill-opacity:0.5;stroke:#000000;stroke-linejoin:miter;stroke-width:0.793992;"/>
   </g>
   <g id="patch_26">
    <path clip-path="url(#pad3f1fadad)" d="M 306.879296 358.356094 
L 314.819217 358.356094 
L 314.819217 196.968065 
L 306.879296 196.968065 
z
" style="fill:#0000ff;fill-opacity:0.5;stroke:#000000;stroke-linejoin:miter;stroke-width:0.793992;"/>
   </g>
   <g id="patch_27">
    <path clip-path="url(#pad3f1fadad)" d="M 314.819217 358.356094 
L 322.759138 358.356094 
L 322.759138 158.790252 
L 314.819217 158.790252 
z
" style="fill:#0000ff;fill-opacity:0.5;stroke:#000000;stroke-linejoin:miter;stroke-width:0.793992;"/>
   </g>
   <g id="patch_28">
    <path clip-path="url(#pad3f1fadad)" d="M 322.759138 358.356094 
L 330.699059 358.356094 
L 330.699059 153.005735 
L 322.759138 153.005735 
z
" style="fill:#0000ff;fill-opacity:0.5;stroke:#000000;stroke-linejoin:miter;stroke-width:0.793992;"/>
   </g>
   <g id="patch_29">
    <path clip-path="url(#pad3f1fadad)" d="M 330.699059 358.356094 
L 338.63898 358.356094 
L 338.63898 135.073731 
L 330.699059 135.073731 
z
" style="fill:#0000ff;fill-opacity:0.5;stroke:#000000;stroke-linejoin:miter;stroke-width:0.793992;"/>
   </g>
   <g id="patch_30">
    <path clip-path="url(#pad3f1fadad)" d="M 338.63898 358.356094 
L 346.578901 358.356094 
L 346.578901 133.338376 
L 338.63898 133.338376 
z
" style="fill:#0000ff;fill-opacity:0.5;stroke:#000000;stroke-linejoin:miter;stroke-width:0.793992;"/>
   </g>
   <g id="patch_31">
    <path clip-path="url(#pad3f1fadad)" d="M 346.578901 358.356094 
L 354.518822 358.356094 
L 354.518822 125.240052 
L 346.578901 125.240052 
z
" style="fill:#0000ff;fill-opacity:0.5;stroke:#000000;stroke-linejoin:miter;stroke-width:0.793992;"/>
   </g>
   <g id="patch_32">
    <path clip-path="url(#pad3f1fadad)" d="M 354.518822 358.356094 
L 362.458743 358.356094 
L 362.458743 143.750507 
L 354.518822 143.750507 
z
" style="fill:#0000ff;fill-opacity:0.5;stroke:#000000;stroke-linejoin:miter;stroke-width:0.793992;"/>
   </g>
   <g id="patch_33">
    <path clip-path="url(#pad3f1fadad)" d="M 362.458743 358.356094 
L 370.398664 358.356094 
L 370.398664 192.340451 
L 362.458743 192.340451 
z
" style="fill:#0000ff;fill-opacity:0.5;stroke:#000000;stroke-linejoin:miter;stroke-width:0.793992;"/>
   </g>
   <g id="patch_34">
    <path clip-path="url(#pad3f1fadad)" d="M 370.398664 358.356094 
L 378.338584 358.356094 
L 378.338584 205.644841 
L 370.398664 205.644841 
z
" style="fill:#0000ff;fill-opacity:0.5;stroke:#000000;stroke-linejoin:miter;stroke-width:0.793992;"/>
   </g>
   <g id="patch_35">
    <path clip-path="url(#pad3f1fadad)" d="M 378.338584 358.356094 
L 386.278505 358.356094 
L 386.278505 201.017227 
L 378.338584 201.017227 
z
" style="fill:#0000ff;fill-opacity:0.5;stroke:#000000;stroke-linejoin:miter;stroke-width:0.793992;"/>
   </g>
   <g id="patch_36">
    <path clip-path="url(#pad3f1fadad)" d="M 386.278505 358.356094 
L 394.218426 358.356094 
L 394.218426 185.977482 
L 386.278505 185.977482 
z
" style="fill:#0000ff;fill-opacity:0.5;stroke:#000000;stroke-linejoin:miter;stroke-width:0.793992;"/>
   </g>
   <g id="patch_37">
    <path clip-path="url(#pad3f1fadad)" d="M 394.218426 358.356094 
L 402.158347 358.356094 
L 402.158347 170.359286 
L 394.218426 170.359286 
z
" style="fill:#0000ff;fill-opacity:0.5;stroke:#000000;stroke-linejoin:miter;stroke-width:0.793992;"/>
   </g>
   <g id="patch_38">
    <path clip-path="url(#pad3f1fadad)" d="M 402.158347 358.356094 
L 410.098268 358.356094 
L 410.098268 135.652183 
L 402.158347 135.652183 
z
" style="fill:#0000ff;fill-opacity:0.5;stroke:#000000;stroke-linejoin:miter;stroke-width:0.793992;"/>
   </g>
   <g id="patch_39">
    <path clip-path="url(#pad3f1fadad)" d="M 410.098268 358.356094 
L 418.038189 358.356094 
L 418.038189 148.378121 
L 410.098268 148.378121 
z
" style="fill:#0000ff;fill-opacity:0.5;stroke:#000000;stroke-linejoin:miter;stroke-width:0.793992;"/>
   </g>
   <g id="patch_40">
    <path clip-path="url(#pad3f1fadad)" d="M 418.038189 358.356094 
L 425.97811 358.356094 
L 425.97811 100.94508 
L 418.038189 100.94508 
z
" style="fill:#0000ff;fill-opacity:0.5;stroke:#000000;stroke-linejoin:miter;stroke-width:0.793992;"/>
   </g>
   <g id="patch_41">
    <path clip-path="url(#pad3f1fadad)" d="M 425.97811 358.356094 
L 433.918031 358.356094 
L 433.918031 85.326884 
L 425.97811 85.326884 
z
" style="fill:#0000ff;fill-opacity:0.5;stroke:#000000;stroke-linejoin:miter;stroke-width:0.793992;"/>
   </g>
   <g id="patch_42">
    <path clip-path="url(#pad3f1fadad)" d="M 433.918031 358.356094 
L 441.857952 358.356094 
L 441.857952 82.434625 
L 433.918031 82.434625 
z
" style="fill:#0000ff;fill-opacity:0.5;stroke:#000000;stroke-linejoin:miter;stroke-width:0.793992;"/>
   </g>
   <g id="patch_43">
    <path clip-path="url(#pad3f1fadad)" d="M 441.857952 358.356094 
L 449.797873 358.356094 
L 449.797873 47.727522 
L 441.857952 47.727522 
z
" style="fill:#0000ff;fill-opacity:0.5;stroke:#000000;stroke-linejoin:miter;stroke-width:0.793992;"/>
   </g>
   <g id="patch_44">
    <path clip-path="url(#pad3f1fadad)" d="M 449.797873 358.356094 
L 457.737794 358.356094 
L 457.737794 51.776684 
L 449.797873 51.776684 
z
" style="fill:#0000ff;fill-opacity:0.5;stroke:#000000;stroke-linejoin:miter;stroke-width:0.793992;"/>
   </g>
   <g id="patch_45">
    <path clip-path="url(#pad3f1fadad)" d="M 457.737794 358.356094 
L 465.677715 358.356094 
L 465.677715 67.973332 
L 457.737794 67.973332 
z
" style="fill:#0000ff;fill-opacity:0.5;stroke:#000000;stroke-linejoin:miter;stroke-width:0.793992;"/>
   </g>
   <g id="patch_46">
    <path clip-path="url(#pad3f1fadad)" d="M 465.677715 358.356094 
L 473.617636 358.356094 
L 473.617636 59.296557 
L 465.677715 59.296557 
z
" style="fill:#0000ff;fill-opacity:0.5;stroke:#000000;stroke-linejoin:miter;stroke-width:0.793992;"/>
   </g>
   <g id="patch_47">
    <path clip-path="url(#pad3f1fadad)" d="M 473.617636 358.356094 
L 481.557557 358.356094 
L 481.557557 273.323692 
L 473.617636 273.323692 
z
" style="fill:#0000ff;fill-opacity:0.5;stroke:#000000;stroke-linejoin:miter;stroke-width:0.793992;"/>
   </g>
   <g id="patch_48">
    <path clip-path="url(#pad3f1fadad)" d="M 116.321193 358.356094 
L 124.261114 358.356094 
L 124.261114 357.777642 
L 116.321193 357.777642 
z
" style="fill:#0000ff;fill-opacity:0.5;stroke:#000000;stroke-linejoin:miter;stroke-width:0.793992;"/>
   </g>
   <g id="patch_49">
    <path clip-path="url(#pad3f1fadad)" d="M 124.261114 358.356094 
L 132.201035 358.356094 
L 132.201035 358.356094 
L 124.261114 358.356094 
z
" style="fill:#0000ff;fill-opacity:0.5;stroke:#000000;stroke-linejoin:miter;stroke-width:0.793992;"/>
   </g>
   <g id="patch_50">
    <path clip-path="url(#pad3f1fadad)" d="M 132.201035 358.356094 
L 140.140956 358.356094 
L 140.140956 357.19919 
L 132.201035 357.19919 
z
" style="fill:#0000ff;fill-opacity:0.5;stroke:#000000;stroke-linejoin:miter;stroke-width:0.793992;"/>
   </g>
   <g id="patch_51">
    <path clip-path="url(#pad3f1fadad)" d="M 140.140956 358.356094 
L 148.080877 358.356094 
L 148.080877 358.356094 
L 140.140956 358.356094 
z
" style="fill:#0000ff;fill-opacity:0.5;stroke:#000000;stroke-linejoin:miter;stroke-width:0.793992;"/>
   </g>
   <g id="patch_52">
    <path clip-path="url(#pad3f1fadad)" d="M 148.080877 358.356094 
L 156.020798 358.356094 
L 156.020798 358.356094 
L 148.080877 358.356094 
z
" style="fill:#0000ff;fill-opacity:0.5;stroke:#000000;stroke-linejoin:miter;stroke-width:0.793992;"/>
   </g>
   <g id="patch_53">
    <path clip-path="url(#pad3f1fadad)" d="M 156.020798 358.356094 
L 163.960719 358.356094 
L 163.960719 358.356094 
L 156.020798 358.356094 
z
" style="fill:#0000ff;fill-opacity:0.5;stroke:#000000;stroke-linejoin:miter;stroke-width:0.793992;"/>
   </g>
   <g id="patch_54">
    <path clip-path="url(#pad3f1fadad)" d="M 163.960719 358.356094 
L 171.90064 358.356094 
L 171.90064 358.356094 
L 163.960719 358.356094 
z
" style="fill:#0000ff;fill-opacity:0.5;stroke:#000000;stroke-linejoin:miter;stroke-width:0.793992;"/>
   </g>
   <g id="patch_55">
    <path clip-path="url(#pad3f1fadad)" d="M 171.90064 358.356094 
L 179.840561 358.356094 
L 179.840561 358.356094 
L 171.90064 358.356094 
z
" style="fill:#0000ff;fill-opacity:0.5;stroke:#000000;stroke-linejoin:miter;stroke-width:0.793992;"/>
   </g>
   <g id="patch_56">
    <path clip-path="url(#pad3f1fadad)" d="M 179.840561 358.356094 
L 187.780482 358.356094 
L 187.780482 357.777642 
L 179.840561 357.777642 
z
" style="fill:#0000ff;fill-opacity:0.5;stroke:#000000;stroke-linejoin:miter;stroke-width:0.793992;"/>
   </g>
   <g id="patch_57">
    <path clip-path="url(#pad3f1fadad)" d="M 187.780482 358.356094 
L 195.720403 358.356094 
L 195.720403 358.356094 
L 187.780482 358.356094 
z
" style="fill:#0000ff;fill-opacity:0.5;stroke:#000000;stroke-linejoin:miter;stroke-width:0.793992;"/>
   </g>
   <g id="patch_58">
    <path clip-path="url(#pad3f1fadad)" d="M 195.720403 358.356094 
L 203.660324 358.356094 
L 203.660324 358.356094 
L 195.720403 358.356094 
z
" style="fill:#0000ff;fill-opacity:0.5;stroke:#000000;stroke-linejoin:miter;stroke-width:0.793992;"/>
   </g>
   <g id="patch_59">
    <path clip-path="url(#pad3f1fadad)" d="M 203.660324 358.356094 
L 211.600245 358.356094 
L 211.600245 358.356094 
L 203.660324 358.356094 
z
" style="fill:#0000ff;fill-opacity:0.5;stroke:#000000;stroke-linejoin:miter;stroke-width:0.793992;"/>
   </g>
   <g id="patch_60">
    <path clip-path="url(#pad3f1fadad)" d="M 211.600245 358.356094 
L 219.540166 358.356094 
L 219.540166 358.356094 
L 211.600245 358.356094 
z
" style="fill:#0000ff;fill-opacity:0.5;stroke:#000000;stroke-linejoin:miter;stroke-width:0.793992;"/>
   </g>
   <g id="patch_61">
    <path clip-path="url(#pad3f1fadad)" d="M 219.540166 358.356094 
L 227.480086 358.356094 
L 227.480086 358.356094 
L 219.540166 358.356094 
z
" style="fill:#0000ff;fill-opacity:0.5;stroke:#000000;stroke-linejoin:miter;stroke-width:0.793992;"/>
   </g>
   <g id="patch_62">
    <path clip-path="url(#pad3f1fadad)" d="M 227.480086 358.356094 
L 235.420007 358.356094 
L 235.420007 353.150028 
L 227.480086 353.150028 
z
" style="fill:#0000ff;fill-opacity:0.5;stroke:#000000;stroke-linejoin:miter;stroke-width:0.793992;"/>
   </g>
   <g id="patch_63">
    <path clip-path="url(#pad3f1fadad)" d="M 235.420007 358.356094 
L 243.359928 358.356094 
L 243.359928 336.374929 
L 235.420007 336.374929 
z
" style="fill:#0000ff;fill-opacity:0.5;stroke:#000000;stroke-linejoin:miter;stroke-width:0.793992;"/>
   </g>
   <g id="patch_64">
    <path clip-path="url(#pad3f1fadad)" d="M 243.359928 358.356094 
L 251.299849 358.356094 
L 251.299849 295.883308 
L 243.359928 295.883308 
z
" style="fill:#0000ff;fill-opacity:0.5;stroke:#000000;stroke-linejoin:miter;stroke-width:0.793992;"/>
   </g>
   <g id="patch_65">
    <path clip-path="url(#pad3f1fadad)" d="M 251.299849 358.356094 
L 259.23977 358.356094 
L 259.23977 295.304857 
L 251.299849 295.304857 
z
" style="fill:#0000ff;fill-opacity:0.5;stroke:#000000;stroke-linejoin:miter;stroke-width:0.793992;"/>
   </g>
   <g id="patch_66">
    <path clip-path="url(#pad3f1fadad)" d="M 259.23977 358.356094 
L 267.179691 358.356094 
L 267.179691 274.480595 
L 259.23977 274.480595 
z
" style="fill:#0000ff;fill-opacity:0.5;stroke:#000000;stroke-linejoin:miter;stroke-width:0.793992;"/>
   </g>
   <g id="patch_67">
    <path clip-path="url(#pad3f1fadad)" d="M 267.179691 358.356094 
L 275.119612 358.356094 
L 275.119612 264.646916 
L 267.179691 264.646916 
z
" style="fill:#0000ff;fill-opacity:0.5;stroke:#000000;stroke-linejoin:miter;stroke-width:0.793992;"/>
   </g>
   <g id="patch_68">
    <path clip-path="url(#pad3f1fadad)" d="M 275.119612 358.356094 
L 283.059533 358.356094 
L 283.059533 249.028719 
L 275.119612 249.028719 
z
" style="fill:#0000ff;fill-opacity:0.5;stroke:#000000;stroke-linejoin:miter;stroke-width:0.793992;"/>
   </g>
   <g id="patch_69">
    <path clip-path="url(#pad3f1fadad)" d="M 283.059533 358.356094 
L 290.999454 358.356094 
L 290.999454 235.72433 
L 283.059533 235.72433 
z
" style="fill:#0000ff;fill-opacity:0.5;stroke:#000000;stroke-linejoin:miter;stroke-width:0.793992;"/>
   </g>
   <g id="patch_70">
    <path clip-path="url(#pad3f1fadad)" d="M 290.999454 358.356094 
L 298.939375 358.356094 
L 298.939375 220.684585 
L 290.999454 220.684585 
z
" style="fill:#0000ff;fill-opacity:0.5;stroke:#000000;stroke-linejoin:miter;stroke-width:0.793992;"/>
   </g>
   <g id="patch_71">
    <path clip-path="url(#pad3f1fadad)" d="M 298.939375 358.356094 
L 306.879296 358.356094 
L 306.879296 205.644841 
L 298.939375 205.644841 
z
" style="fill:#0000ff;fill-opacity:0.5;stroke:#000000;stroke-linejoin:miter;stroke-width:0.793992;"/>
   </g>
   <g id="patch_72">
    <path clip-path="url(#pad3f1fadad)" d="M 306.879296 358.356094 
L 314.819217 358.356094 
L 314.819217 196.968065 
L 306.879296 196.968065 
z
" style="fill:#0000ff;fill-opacity:0.5;stroke:#000000;stroke-linejoin:miter;stroke-width:0.793992;"/>
   </g>
   <g id="patch_73">
    <path clip-path="url(#pad3f1fadad)" d="M 314.819217 358.356094 
L 322.759138 358.356094 
L 322.759138 158.790252 
L 314.819217 158.790252 
z
" style="fill:#0000ff;fill-opacity:0.5;stroke:#000000;stroke-linejoin:miter;stroke-width:0.793992;"/>
   </g>
   <g id="patch_74">
    <path clip-path="url(#pad3f1fadad)" d="M 322.759138 358.356094 
L 330.699059 358.356094 
L 330.699059 153.005735 
L 322.759138 153.005735 
z
" style="fill:#0000ff;fill-opacity:0.5;stroke:#000000;stroke-linejoin:miter;stroke-width:0.793992;"/>
   </g>
   <g id="patch_75">
    <path clip-path="url(#pad3f1fadad)" d="M 330.699059 358.356094 
L 338.63898 358.356094 
L 338.63898 135.073731 
L 330.699059 135.073731 
z
" style="fill:#0000ff;fill-opacity:0.5;stroke:#000000;stroke-linejoin:miter;stroke-width:0.793992;"/>
   </g>
   <g id="patch_76">
    <path clip-path="url(#pad3f1fadad)" d="M 338.63898 358.356094 
L 346.578901 358.356094 
L 346.578901 133.338376 
L 338.63898 133.338376 
z
" style="fill:#0000ff;fill-opacity:0.5;stroke:#000000;stroke-linejoin:miter;stroke-width:0.793992;"/>
   </g>
   <g id="patch_77">
    <path clip-path="url(#pad3f1fadad)" d="M 346.578901 358.356094 
L 354.518822 358.356094 
L 354.518822 125.240052 
L 346.578901 125.240052 
z
" style="fill:#0000ff;fill-opacity:0.5;stroke:#000000;stroke-linejoin:miter;stroke-width:0.793992;"/>
   </g>
   <g id="patch_78">
    <path clip-path="url(#pad3f1fadad)" d="M 354.518822 358.356094 
L 362.458743 358.356094 
L 362.458743 143.750507 
L 354.518822 143.750507 
z
" style="fill:#0000ff;fill-opacity:0.5;stroke:#000000;stroke-linejoin:miter;stroke-width:0.793992;"/>
   </g>
   <g id="patch_79">
    <path clip-path="url(#pad3f1fadad)" d="M 362.458743 358.356094 
L 370.398664 358.356094 
L 370.398664 192.340451 
L 362.458743 192.340451 
z
" style="fill:#0000ff;fill-opacity:0.5;stroke:#000000;stroke-linejoin:miter;stroke-width:0.793992;"/>
   </g>
   <g id="patch_80">
    <path clip-path="url(#pad3f1fadad)" d="M 370.398664 358.356094 
L 378.338584 358.356094 
L 378.338584 205.644841 
L 370.398664 205.644841 
z
" style="fill:#0000ff;fill-opacity:0.5;stroke:#000000;stroke-linejoin:miter;stroke-width:0.793992;"/>
   </g>
   <g id="patch_81">
    <path clip-path="url(#pad3f1fadad)" d="M 378.338584 358.356094 
L 386.278505 358.356094 
L 386.278505 201.017227 
L 378.338584 201.017227 
z
" style="fill:#0000ff;fill-opacity:0.5;stroke:#000000;stroke-linejoin:miter;stroke-width:0.793992;"/>
   </g>
   <g id="patch_82">
    <path clip-path="url(#pad3f1fadad)" d="M 386.278505 358.356094 
L 394.218426 358.356094 
L 394.218426 185.977482 
L 386.278505 185.977482 
z
" style="fill:#0000ff;fill-opacity:0.5;stroke:#000000;stroke-linejoin:miter;stroke-width:0.793992;"/>
   </g>
   <g id="patch_83">
    <path clip-path="url(#pad3f1fadad)" d="M 394.218426 358.356094 
L 402.158347 358.356094 
L 402.158347 170.359286 
L 394.218426 170.359286 
z
" style="fill:#0000ff;fill-opacity:0.5;stroke:#000000;stroke-linejoin:miter;stroke-width:0.793992;"/>
   </g>
   <g id="patch_84">
    <path clip-path="url(#pad3f1fadad)" d="M 402.158347 358.356094 
L 410.098268 358.356094 
L 410.098268 135.652183 
L 402.158347 135.652183 
z
" style="fill:#0000ff;fill-opacity:0.5;stroke:#000000;stroke-linejoin:miter;stroke-width:0.793992;"/>
   </g>
   <g id="patch_85">
    <path clip-path="url(#pad3f1fadad)" d="M 410.098268 358.356094 
L 418.038189 358.356094 
L 418.038189 148.378121 
L 410.098268 148.378121 
z
" style="fill:#0000ff;fill-opacity:0.5;stroke:#000000;stroke-linejoin:miter;stroke-width:0.793992;"/>
   </g>
   <g id="patch_86">
    <path clip-path="url(#pad3f1fadad)" d="M 418.038189 358.356094 
L 425.97811 358.356094 
L 425.97811 100.94508 
L 418.038189 100.94508 
z
" style="fill:#0000ff;fill-opacity:0.5;stroke:#000000;stroke-linejoin:miter;stroke-width:0.793992;"/>
   </g>
   <g id="patch_87">
    <path clip-path="url(#pad3f1fadad)" d="M 425.97811 358.356094 
L 433.918031 358.356094 
L 433.918031 85.326884 
L 425.97811 85.326884 
z
" style="fill:#0000ff;fill-opacity:0.5;stroke:#000000;stroke-linejoin:miter;stroke-width:0.793992;"/>
   </g>
   <g id="patch_88">
    <path clip-path="url(#pad3f1fadad)" d="M 433.918031 358.356094 
L 441.857952 358.356094 
L 441.857952 82.434625 
L 433.918031 82.434625 
z
" style="fill:#0000ff;fill-opacity:0.5;stroke:#000000;stroke-linejoin:miter;stroke-width:0.793992;"/>
   </g>
   <g id="patch_89">
    <path clip-path="url(#pad3f1fadad)" d="M 441.857952 358.356094 
L 449.797873 358.356094 
L 449.797873 47.727522 
L 441.857952 47.727522 
z
" style="fill:#0000ff;fill-opacity:0.5;stroke:#000000;stroke-linejoin:miter;stroke-width:0.793992;"/>
   </g>
   <g id="patch_90">
    <path clip-path="url(#pad3f1fadad)" d="M 449.797873 358.356094 
L 457.737794 358.356094 
L 457.737794 51.776684 
L 449.797873 51.776684 
z
" style="fill:#0000ff;fill-opacity:0.5;stroke:#000000;stroke-linejoin:miter;stroke-width:0.793992;"/>
   </g>
   <g id="patch_91">
    <path clip-path="url(#pad3f1fadad)" d="M 457.737794 358.356094 
L 465.677715 358.356094 
L 465.677715 67.973332 
L 457.737794 67.973332 
z
" style="fill:#0000ff;fill-opacity:0.5;stroke:#000000;stroke-linejoin:miter;stroke-width:0.793992;"/>
   </g>
   <g id="patch_92">
    <path clip-path="url(#pad3f1fadad)" d="M 465.677715 358.356094 
L 473.617636 358.356094 
L 473.617636 59.296557 
L 465.677715 59.296557 
z
" style="fill:#0000ff;fill-opacity:0.5;stroke:#000000;stroke-linejoin:miter;stroke-width:0.793992;"/>
   </g>
   <g id="patch_93">
    <path clip-path="url(#pad3f1fadad)" d="M 473.617636 358.356094 
L 481.557557 358.356094 
L 481.557557 273.323692 
L 473.617636 273.323692 
z
" style="fill:#0000ff;fill-opacity:0.5;stroke:#000000;stroke-linejoin:miter;stroke-width:0.793992;"/>
   </g>
   <g id="matplotlib.axis_1">
    <g id="xtick_1">
     <g id="line2d_1">
      <defs>
       <path d="M 0 0 
L 0 3.5 
" id="maac121375c" style="stroke:#000000;stroke-width:0.8;"/>
      </defs>
      <g>
       <use style="stroke:#000000;stroke-width:0.8;" x="158.280518" xlink:href="#maac121375c" y="358.356094"/>
      </g>
     </g>
     <g id="text_1">
      <!-- 0.2 -->
      <g transform="translate(142.377393 380.552969)scale(0.2 -0.2)">
       <defs>
        <path d="M 2034 4250 
Q 1547 4250 1301 3770 
Q 1056 3291 1056 2328 
Q 1056 1369 1301 889 
Q 1547 409 2034 409 
Q 2525 409 2770 889 
Q 3016 1369 3016 2328 
Q 3016 3291 2770 3770 
Q 2525 4250 2034 4250 
z
M 2034 4750 
Q 2819 4750 3233 4129 
Q 3647 3509 3647 2328 
Q 3647 1150 3233 529 
Q 2819 -91 2034 -91 
Q 1250 -91 836 529 
Q 422 1150 422 2328 
Q 422 3509 836 4129 
Q 1250 4750 2034 4750 
z
" id="DejaVuSans-30" transform="scale(0.015625)"/>
        <path d="M 684 794 
L 1344 794 
L 1344 0 
L 684 0 
L 684 794 
z
" id="DejaVuSans-2e" transform="scale(0.015625)"/>
        <path d="M 1228 531 
L 3431 531 
L 3431 0 
L 469 0 
L 469 531 
Q 828 903 1448 1529 
Q 2069 2156 2228 2338 
Q 2531 2678 2651 2914 
Q 2772 3150 2772 3378 
Q 2772 3750 2511 3984 
Q 2250 4219 1831 4219 
Q 1534 4219 1204 4116 
Q 875 4013 500 3803 
L 500 4441 
Q 881 4594 1212 4672 
Q 1544 4750 1819 4750 
Q 2544 4750 2975 4387 
Q 3406 4025 3406 3419 
Q 3406 3131 3298 2873 
Q 3191 2616 2906 2266 
Q 2828 2175 2409 1742 
Q 1991 1309 1228 531 
z
" id="DejaVuSans-32" transform="scale(0.015625)"/>
       </defs>
       <use xlink:href="#DejaVuSans-30"/>
       <use x="63.623047" xlink:href="#DejaVuSans-2e"/>
       <use x="95.410156" xlink:href="#DejaVuSans-32"/>
      </g>
     </g>
    </g>
    <g id="xtick_2">
     <g id="line2d_2">
      <g>
       <use style="stroke:#000000;stroke-width:0.8;" x="237.679728" xlink:href="#maac121375c" y="358.356094"/>
      </g>
     </g>
     <g id="text_2">
      <!-- 0.4 -->
      <g transform="translate(221.776603 380.552969)scale(0.2 -0.2)">
       <defs>
        <path d="M 2419 4116 
L 825 1625 
L 2419 1625 
L 2419 4116 
z
M 2253 4666 
L 3047 4666 
L 3047 1625 
L 3713 1625 
L 3713 1100 
L 3047 1100 
L 3047 0 
L 2419 0 
L 2419 1100 
L 313 1100 
L 313 1709 
L 2253 4666 
z
" id="DejaVuSans-34" transform="scale(0.015625)"/>
       </defs>
       <use xlink:href="#DejaVuSans-30"/>
       <use x="63.623047" xlink:href="#DejaVuSans-2e"/>
       <use x="95.410156" xlink:href="#DejaVuSans-34"/>
      </g>
     </g>
    </g>
    <g id="xtick_3">
     <g id="line2d_3">
      <g>
       <use style="stroke:#000000;stroke-width:0.8;" x="317.078937" xlink:href="#maac121375c" y="358.356094"/>
      </g>
     </g>
     <g id="text_3">
      <!-- 0.6 -->
      <g transform="translate(301.175812 380.552969)scale(0.2 -0.2)">
       <defs>
        <path d="M 2113 2584 
Q 1688 2584 1439 2293 
Q 1191 2003 1191 1497 
Q 1191 994 1439 701 
Q 1688 409 2113 409 
Q 2538 409 2786 701 
Q 3034 994 3034 1497 
Q 3034 2003 2786 2293 
Q 2538 2584 2113 2584 
z
M 3366 4563 
L 3366 3988 
Q 3128 4100 2886 4159 
Q 2644 4219 2406 4219 
Q 1781 4219 1451 3797 
Q 1122 3375 1075 2522 
Q 1259 2794 1537 2939 
Q 1816 3084 2150 3084 
Q 2853 3084 3261 2657 
Q 3669 2231 3669 1497 
Q 3669 778 3244 343 
Q 2819 -91 2113 -91 
Q 1303 -91 875 529 
Q 447 1150 447 2328 
Q 447 3434 972 4092 
Q 1497 4750 2381 4750 
Q 2619 4750 2861 4703 
Q 3103 4656 3366 4563 
z
" id="DejaVuSans-36" transform="scale(0.015625)"/>
       </defs>
       <use xlink:href="#DejaVuSans-30"/>
       <use x="63.623047" xlink:href="#DejaVuSans-2e"/>
       <use x="95.410156" xlink:href="#DejaVuSans-36"/>
      </g>
     </g>
    </g>
    <g id="xtick_4">
     <g id="line2d_4">
      <g>
       <use style="stroke:#000000;stroke-width:0.8;" x="396.478147" xlink:href="#maac121375c" y="358.356094"/>
      </g>
     </g>
     <g id="text_4">
      <!-- 0.8 -->
      <g transform="translate(380.575022 380.552969)scale(0.2 -0.2)">
       <defs>
        <path d="M 2034 2216 
Q 1584 2216 1326 1975 
Q 1069 1734 1069 1313 
Q 1069 891 1326 650 
Q 1584 409 2034 409 
Q 2484 409 2743 651 
Q 3003 894 3003 1313 
Q 3003 1734 2745 1975 
Q 2488 2216 2034 2216 
z
M 1403 2484 
Q 997 2584 770 2862 
Q 544 3141 544 3541 
Q 544 4100 942 4425 
Q 1341 4750 2034 4750 
Q 2731 4750 3128 4425 
Q 3525 4100 3525 3541 
Q 3525 3141 3298 2862 
Q 3072 2584 2669 2484 
Q 3125 2378 3379 2068 
Q 3634 1759 3634 1313 
Q 3634 634 3220 271 
Q 2806 -91 2034 -91 
Q 1263 -91 848 271 
Q 434 634 434 1313 
Q 434 1759 690 2068 
Q 947 2378 1403 2484 
z
M 1172 3481 
Q 1172 3119 1398 2916 
Q 1625 2713 2034 2713 
Q 2441 2713 2670 2916 
Q 2900 3119 2900 3481 
Q 2900 3844 2670 4047 
Q 2441 4250 2034 4250 
Q 1625 4250 1398 4047 
Q 1172 3844 1172 3481 
z
" id="DejaVuSans-38" transform="scale(0.015625)"/>
       </defs>
       <use xlink:href="#DejaVuSans-30"/>
       <use x="63.623047" xlink:href="#DejaVuSans-2e"/>
       <use x="95.410156" xlink:href="#DejaVuSans-38"/>
      </g>
     </g>
    </g>
    <g id="xtick_5">
     <g id="line2d_5">
      <g>
       <use style="stroke:#000000;stroke-width:0.8;" x="475.877356" xlink:href="#maac121375c" y="358.356094"/>
      </g>
     </g>
     <g id="text_5">
      <!-- 1.0 -->
      <g transform="translate(459.974231 380.552969)scale(0.2 -0.2)">
       <defs>
        <path d="M 794 531 
L 1825 531 
L 1825 4091 
L 703 3866 
L 703 4441 
L 1819 4666 
L 2450 4666 
L 2450 531 
L 3481 531 
L 3481 0 
L 794 0 
L 794 531 
z
" id="DejaVuSans-31" transform="scale(0.015625)"/>
       </defs>
       <use xlink:href="#DejaVuSans-31"/>
       <use x="63.623047" xlink:href="#DejaVuSans-2e"/>
       <use x="95.410156" xlink:href="#DejaVuSans-30"/>
      </g>
     </g>
    </g>
    <g id="text_6">
     <!-- Ω -->
     <g transform="translate(289.386641 407.708438)scale(0.25 -0.25)">
      <defs>
       <path d="M 4647 556 
L 4647 0 
L 2772 0 
L 2772 556 
Q 3325 859 3634 1378 
Q 3944 1897 3944 2528 
Q 3944 3278 3531 3731 
Q 3119 4184 2444 4184 
Q 1769 4184 1355 3729 
Q 941 3275 941 2528 
Q 941 1897 1250 1378 
Q 1563 859 2119 556 
L 2119 0 
L 244 0 
L 244 556 
L 1241 556 
Q 747 991 519 1456 
Q 294 1922 294 2497 
Q 294 3491 894 4106 
Q 1491 4722 2444 4722 
Q 3391 4722 3994 4106 
Q 4594 3494 4594 2528 
Q 4594 1922 4372 1459 
Q 4150 997 3647 556 
L 4647 556 
z
" id="DejaVuSans-3a9" transform="scale(0.015625)"/>
      </defs>
      <use xlink:href="#DejaVuSans-3a9"/>
     </g>
    </g>
   </g>
   <g id="matplotlib.axis_2">
    <g id="ytick_1">
     <g id="line2d_6">
      <defs>
       <path d="M 0 0 
L -3.5 0 
" id="m0b9e2beed2" style="stroke:#000000;stroke-width:0.8;"/>
      </defs>
      <g>
       <use style="stroke:#000000;stroke-width:0.8;" x="98.059375" xlink:href="#m0b9e2beed2" y="358.356094"/>
      </g>
     </g>
     <g id="text_7">
      <!-- 0.0 -->
      <g transform="translate(51.301563 367.854141)scale(0.25 -0.25)">
       <use xlink:href="#DejaVuSans-30"/>
       <use x="63.623047" xlink:href="#DejaVuSans-2e"/>
       <use x="95.410156" xlink:href="#DejaVuSans-30"/>
      </g>
     </g>
    </g>
    <g id="ytick_2">
     <g id="line2d_7">
      <g>
       <use style="stroke:#000000;stroke-width:0.8;" x="98.059375" xlink:href="#m0b9e2beed2" y="301.511644"/>
      </g>
     </g>
     <g id="text_8">
      <!-- 0.01 -->
      <g transform="translate(35.395313 311.009691)scale(0.25 -0.25)">
       <use xlink:href="#DejaVuSans-30"/>
       <use x="63.623047" xlink:href="#DejaVuSans-2e"/>
       <use x="95.410156" xlink:href="#DejaVuSans-30"/>
       <use x="159.033203" xlink:href="#DejaVuSans-31"/>
      </g>
     </g>
    </g>
    <g id="ytick_3">
     <g id="line2d_8">
      <g>
       <use style="stroke:#000000;stroke-width:0.8;" x="98.059375" xlink:href="#m0b9e2beed2" y="244.667194"/>
      </g>
     </g>
     <g id="text_9">
      <!-- 0.02 -->
      <g transform="translate(35.395313 254.16524)scale(0.25 -0.25)">
       <use xlink:href="#DejaVuSans-30"/>
       <use x="63.623047" xlink:href="#DejaVuSans-2e"/>
       <use x="95.410156" xlink:href="#DejaVuSans-30"/>
       <use x="159.033203" xlink:href="#DejaVuSans-32"/>
      </g>
     </g>
    </g>
    <g id="ytick_4">
     <g id="line2d_9">
      <g>
       <use style="stroke:#000000;stroke-width:0.8;" x="98.059375" xlink:href="#m0b9e2beed2" y="187.822743"/>
      </g>
     </g>
     <g id="text_10">
      <!-- 0.03 -->
      <g transform="translate(35.395313 197.32079)scale(0.25 -0.25)">
       <defs>
        <path d="M 2597 2516 
Q 3050 2419 3304 2112 
Q 3559 1806 3559 1356 
Q 3559 666 3084 287 
Q 2609 -91 1734 -91 
Q 1441 -91 1130 -33 
Q 819 25 488 141 
L 488 750 
Q 750 597 1062 519 
Q 1375 441 1716 441 
Q 2309 441 2620 675 
Q 2931 909 2931 1356 
Q 2931 1769 2642 2001 
Q 2353 2234 1838 2234 
L 1294 2234 
L 1294 2753 
L 1863 2753 
Q 2328 2753 2575 2939 
Q 2822 3125 2822 3475 
Q 2822 3834 2567 4026 
Q 2313 4219 1838 4219 
Q 1578 4219 1281 4162 
Q 984 4106 628 3988 
L 628 4550 
Q 988 4650 1302 4700 
Q 1616 4750 1894 4750 
Q 2613 4750 3031 4423 
Q 3450 4097 3450 3541 
Q 3450 3153 3228 2886 
Q 3006 2619 2597 2516 
z
" id="DejaVuSans-33" transform="scale(0.015625)"/>
       </defs>
       <use xlink:href="#DejaVuSans-30"/>
       <use x="63.623047" xlink:href="#DejaVuSans-2e"/>
       <use x="95.410156" xlink:href="#DejaVuSans-30"/>
       <use x="159.033203" xlink:href="#DejaVuSans-33"/>
      </g>
     </g>
    </g>
    <g id="ytick_5">
     <g id="line2d_10">
      <g>
       <use style="stroke:#000000;stroke-width:0.8;" x="98.059375" xlink:href="#m0b9e2beed2" y="130.978293"/>
      </g>
     </g>
     <g id="text_11">
      <!-- 0.04 -->
      <g transform="translate(35.395313 140.47634)scale(0.25 -0.25)">
       <use xlink:href="#DejaVuSans-30"/>
       <use x="63.623047" xlink:href="#DejaVuSans-2e"/>
       <use x="95.410156" xlink:href="#DejaVuSans-30"/>
       <use x="159.033203" xlink:href="#DejaVuSans-34"/>
      </g>
     </g>
    </g>
    <g id="ytick_6">
     <g id="line2d_11">
      <g>
       <use style="stroke:#000000;stroke-width:0.8;" x="98.059375" xlink:href="#m0b9e2beed2" y="74.133843"/>
      </g>
     </g>
     <g id="text_12">
      <!-- 0.05 -->
      <g transform="translate(35.395313 83.63189)scale(0.25 -0.25)">
       <defs>
        <path d="M 691 4666 
L 3169 4666 
L 3169 4134 
L 1269 4134 
L 1269 2991 
Q 1406 3038 1543 3061 
Q 1681 3084 1819 3084 
Q 2600 3084 3056 2656 
Q 3513 2228 3513 1497 
Q 3513 744 3044 326 
Q 2575 -91 1722 -91 
Q 1428 -91 1123 -41 
Q 819 9 494 109 
L 494 744 
Q 775 591 1075 516 
Q 1375 441 1709 441 
Q 2250 441 2565 725 
Q 2881 1009 2881 1497 
Q 2881 1984 2565 2268 
Q 2250 2553 1709 2553 
Q 1456 2553 1204 2497 
Q 953 2441 691 2322 
L 691 4666 
z
" id="DejaVuSans-35" transform="scale(0.015625)"/>
       </defs>
       <use xlink:href="#DejaVuSans-30"/>
       <use x="63.623047" xlink:href="#DejaVuSans-2e"/>
       <use x="95.410156" xlink:href="#DejaVuSans-30"/>
       <use x="159.033203" xlink:href="#DejaVuSans-35"/>
      </g>
     </g>
    </g>
    <g id="text_13">
     <!-- Probability -->
     <g transform="translate(26.196094 261.348359)rotate(-90)scale(0.25 -0.25)">
      <defs>
       <path d="M 1259 4147 
L 1259 2394 
L 2053 2394 
Q 2494 2394 2734 2622 
Q 2975 2850 2975 3272 
Q 2975 3691 2734 3919 
Q 2494 4147 2053 4147 
L 1259 4147 
z
M 628 4666 
L 2053 4666 
Q 2838 4666 3239 4311 
Q 3641 3956 3641 3272 
Q 3641 2581 3239 2228 
Q 2838 1875 2053 1875 
L 1259 1875 
L 1259 0 
L 628 0 
L 628 4666 
z
" id="DejaVuSans-50" transform="scale(0.015625)"/>
       <path d="M 2631 2963 
Q 2534 3019 2420 3045 
Q 2306 3072 2169 3072 
Q 1681 3072 1420 2755 
Q 1159 2438 1159 1844 
L 1159 0 
L 581 0 
L 581 3500 
L 1159 3500 
L 1159 2956 
Q 1341 3275 1631 3429 
Q 1922 3584 2338 3584 
Q 2397 3584 2469 3576 
Q 2541 3569 2628 3553 
L 2631 2963 
z
" id="DejaVuSans-72" transform="scale(0.015625)"/>
       <path d="M 1959 3097 
Q 1497 3097 1228 2736 
Q 959 2375 959 1747 
Q 959 1119 1226 758 
Q 1494 397 1959 397 
Q 2419 397 2687 759 
Q 2956 1122 2956 1747 
Q 2956 2369 2687 2733 
Q 2419 3097 1959 3097 
z
M 1959 3584 
Q 2709 3584 3137 3096 
Q 3566 2609 3566 1747 
Q 3566 888 3137 398 
Q 2709 -91 1959 -91 
Q 1206 -91 779 398 
Q 353 888 353 1747 
Q 353 2609 779 3096 
Q 1206 3584 1959 3584 
z
" id="DejaVuSans-6f" transform="scale(0.015625)"/>
       <path d="M 3116 1747 
Q 3116 2381 2855 2742 
Q 2594 3103 2138 3103 
Q 1681 3103 1420 2742 
Q 1159 2381 1159 1747 
Q 1159 1113 1420 752 
Q 1681 391 2138 391 
Q 2594 391 2855 752 
Q 3116 1113 3116 1747 
z
M 1159 2969 
Q 1341 3281 1617 3432 
Q 1894 3584 2278 3584 
Q 2916 3584 3314 3078 
Q 3713 2572 3713 1747 
Q 3713 922 3314 415 
Q 2916 -91 2278 -91 
Q 1894 -91 1617 61 
Q 1341 213 1159 525 
L 1159 0 
L 581 0 
L 581 4863 
L 1159 4863 
L 1159 2969 
z
" id="DejaVuSans-62" transform="scale(0.015625)"/>
       <path d="M 2194 1759 
Q 1497 1759 1228 1600 
Q 959 1441 959 1056 
Q 959 750 1161 570 
Q 1363 391 1709 391 
Q 2188 391 2477 730 
Q 2766 1069 2766 1631 
L 2766 1759 
L 2194 1759 
z
M 3341 1997 
L 3341 0 
L 2766 0 
L 2766 531 
Q 2569 213 2275 61 
Q 1981 -91 1556 -91 
Q 1019 -91 701 211 
Q 384 513 384 1019 
Q 384 1609 779 1909 
Q 1175 2209 1959 2209 
L 2766 2209 
L 2766 2266 
Q 2766 2663 2505 2880 
Q 2244 3097 1772 3097 
Q 1472 3097 1187 3025 
Q 903 2953 641 2809 
L 641 3341 
Q 956 3463 1253 3523 
Q 1550 3584 1831 3584 
Q 2591 3584 2966 3190 
Q 3341 2797 3341 1997 
z
" id="DejaVuSans-61" transform="scale(0.015625)"/>
       <path d="M 603 3500 
L 1178 3500 
L 1178 0 
L 603 0 
L 603 3500 
z
M 603 4863 
L 1178 4863 
L 1178 4134 
L 603 4134 
L 603 4863 
z
" id="DejaVuSans-69" transform="scale(0.015625)"/>
       <path d="M 603 4863 
L 1178 4863 
L 1178 0 
L 603 0 
L 603 4863 
z
" id="DejaVuSans-6c" transform="scale(0.015625)"/>
       <path d="M 1172 4494 
L 1172 3500 
L 2356 3500 
L 2356 3053 
L 1172 3053 
L 1172 1153 
Q 1172 725 1289 603 
Q 1406 481 1766 481 
L 2356 481 
L 2356 0 
L 1766 0 
Q 1100 0 847 248 
Q 594 497 594 1153 
L 594 3053 
L 172 3053 
L 172 3500 
L 594 3500 
L 594 4494 
L 1172 4494 
z
" id="DejaVuSans-74" transform="scale(0.015625)"/>
       <path d="M 2059 -325 
Q 1816 -950 1584 -1140 
Q 1353 -1331 966 -1331 
L 506 -1331 
L 506 -850 
L 844 -850 
Q 1081 -850 1212 -737 
Q 1344 -625 1503 -206 
L 1606 56 
L 191 3500 
L 800 3500 
L 1894 763 
L 2988 3500 
L 3597 3500 
L 2059 -325 
z
" id="DejaVuSans-79" transform="scale(0.015625)"/>
      </defs>
      <use xlink:href="#DejaVuSans-50"/>
      <use x="58.552734" xlink:href="#DejaVuSans-72"/>
      <use x="97.416016" xlink:href="#DejaVuSans-6f"/>
      <use x="158.597656" xlink:href="#DejaVuSans-62"/>
      <use x="222.074219" xlink:href="#DejaVuSans-61"/>
      <use x="283.353516" xlink:href="#DejaVuSans-62"/>
      <use x="346.830078" xlink:href="#DejaVuSans-69"/>
      <use x="374.613281" xlink:href="#DejaVuSans-6c"/>
      <use x="402.396484" xlink:href="#DejaVuSans-69"/>
      <use x="430.179688" xlink:href="#DejaVuSans-74"/>
      <use x="469.388672" xlink:href="#DejaVuSans-79"/>
     </g>
    </g>
   </g>
   <g id="line2d_12">
    <path clip-path="url(#pad3f1fadad)" d="M 116.321193 358.110297 
L 136.194389 357.972416 
L 148.840968 358.207465 
L 161.487548 358.333423 
L 177.747435 358.226362 
L 190.394014 358.190821 
L 206.653902 358.227186 
L 210.26721 358.062144 
L 213.880519 357.668204 
L 215.687173 357.330331 
L 217.493827 356.859013 
L 219.300481 356.218704 
L 221.107135 355.37026 
L 222.913789 354.272599 
L 224.720444 352.884935 
L 226.527098 351.169548 
L 228.333752 349.09493 
L 230.140406 346.639117 
L 231.94706 343.79292 
L 233.753715 340.562669 
L 235.560369 336.972033 
L 239.173677 328.89157 
L 244.59364 315.549502 
L 248.206948 306.715664 
L 251.820256 298.436377 
L 255.433565 290.836597 
L 259.046873 283.823161 
L 262.660181 277.240299 
L 268.080144 267.957302 
L 275.306761 256.291011 
L 280.726723 247.398125 
L 284.340031 241.088928 
L 289.759994 231.045447 
L 298.793265 213.688405 
L 302.406573 206.448501 
L 306.019882 198.695656 
L 309.63319 190.273401 
L 320.473115 163.849707 
L 322.279769 159.993527 
L 324.086423 156.44491 
L 325.893077 153.223126 
L 327.699732 150.330291 
L 329.506386 147.755974 
L 331.31304 145.483103 
L 333.119694 143.494113 
L 334.926348 141.776526 
L 336.733002 140.327419 
L 338.539657 139.156543 
L 340.346311 138.287979 
L 342.152965 137.760223 
L 343.959619 137.624513 
L 345.766273 137.941173 
L 347.572928 138.773796 
L 349.379582 140.181387 
L 351.186236 142.208995 
L 352.99289 144.877883 
L 354.799544 148.176677 
L 356.606198 152.055113 
L 358.412853 156.4218 
L 362.026161 166.069789 
L 365.639469 175.786259 
L 367.446123 180.222199 
L 369.252778 184.16884 
L 371.059432 187.50975 
L 372.866086 190.167108 
L 374.67274 192.101944 
L 376.479394 193.310047 
L 378.286048 193.81476 
L 380.092703 193.658262 
L 381.899357 192.892927 
L 383.706011 191.57413 
L 385.512665 189.755346 
L 387.319319 187.485864 
L 389.125974 184.81085 
L 390.932628 181.773065 
L 392.739282 178.415261 
L 396.35259 170.921414 
L 399.965899 162.713305 
L 407.192515 145.467397 
L 416.225786 123.336361 
L 421.645749 110.011157 
L 425.259057 101.611207 
L 428.872365 93.833151 
L 432.485674 86.619545 
L 436.098982 79.792956 
L 439.71229 73.341918 
L 441.518945 70.358134 
L 443.325599 67.642234 
L 445.132253 65.299866 
L 446.938907 63.448756 
L 448.745561 62.21255 
L 450.552215 61.717655 
L 452.35887 62.09404 
L 454.165524 63.479627 
L 455.972178 66.026373 
L 457.778832 69.904972 
L 459.585486 75.304562 
L 461.392141 82.42421 
L 463.198795 91.454395 
L 465.005449 102.54903 
L 466.812103 115.791293 
L 468.618757 131.159045 
L 470.425411 148.497094 
L 472.232066 167.503486 
L 475.845374 208.634105 
L 475.845374 208.634105 
" style="fill:none;stroke:#0000ff;stroke-linecap:square;stroke-width:1.5;"/>
   </g>
   <g id="line2d_13">
    <path clip-path="url(#pad3f1fadad)" d="M 116.321193 358.110297 
L 136.194389 357.972416 
L 148.840968 358.207465 
L 161.487548 358.333423 
L 177.747435 358.226362 
L 190.394014 358.190821 
L 206.653902 358.227186 
L 210.26721 358.062144 
L 213.880519 357.668204 
L 215.687173 357.330331 
L 217.493827 356.859013 
L 219.300481 356.218704 
L 221.107135 355.37026 
L 222.913789 354.272599 
L 224.720444 352.884935 
L 226.527098 351.169548 
L 228.333752 349.09493 
L 230.140406 346.639117 
L 231.94706 343.79292 
L 233.753715 340.562669 
L 235.560369 336.972033 
L 239.173677 328.89157 
L 244.59364 315.549502 
L 248.206948 306.715664 
L 251.820256 298.436377 
L 255.433565 290.836597 
L 259.046873 283.823161 
L 262.660181 277.240299 
L 268.080144 267.957302 
L 275.306761 256.291011 
L 280.726723 247.398125 
L 284.340031 241.088928 
L 289.759994 231.045447 
L 298.793265 213.688405 
L 302.406573 206.448501 
L 306.019882 198.695656 
L 309.63319 190.273401 
L 320.473115 163.849707 
L 322.279769 159.993527 
L 324.086423 156.44491 
L 325.893077 153.223126 
L 327.699732 150.330291 
L 329.506386 147.755974 
L 331.31304 145.483103 
L 333.119694 143.494113 
L 334.926348 141.776526 
L 336.733002 140.327419 
L 338.539657 139.156543 
L 340.346311 138.287979 
L 342.152965 137.760223 
L 343.959619 137.624513 
L 345.766273 137.941173 
L 347.572928 138.773796 
L 349.379582 140.181387 
L 351.186236 142.208995 
L 352.99289 144.877883 
L 354.799544 148.176677 
L 356.606198 152.055113 
L 358.412853 156.4218 
L 362.026161 166.069789 
L 365.639469 175.786259 
L 367.446123 180.222199 
L 369.252778 184.16884 
L 371.059432 187.50975 
L 372.866086 190.167108 
L 374.67274 192.101944 
L 376.479394 193.310047 
L 378.286048 193.81476 
L 380.092703 193.658262 
L 381.899357 192.892927 
L 383.706011 191.57413 
L 385.512665 189.755346 
L 387.319319 187.485864 
L 389.125974 184.81085 
L 390.932628 181.773065 
L 392.739282 178.415261 
L 396.35259 170.921414 
L 399.965899 162.713305 
L 407.192515 145.467397 
L 416.225786 123.336361 
L 421.645749 110.011157 
L 425.259057 101.611207 
L 428.872365 93.833151 
L 432.485674 86.619545 
L 436.098982 79.792956 
L 439.71229 73.341918 
L 441.518945 70.358134 
L 443.325599 67.642234 
L 445.132253 65.299866 
L 446.938907 63.448756 
L 448.745561 62.21255 
L 450.552215 61.717655 
L 452.35887 62.09404 
L 454.165524 63.479627 
L 455.972178 66.026373 
L 457.778832 69.904972 
L 459.585486 75.304562 
L 461.392141 82.42421 
L 463.198795 91.454395 
L 465.005449 102.54903 
L 466.812103 115.791293 
L 468.618757 131.159045 
L 470.425411 148.497094 
L 472.232066 167.503486 
L 475.845374 208.634105 
L 475.845374 208.634105 
" style="fill:none;stroke:#0000ff;stroke-linecap:square;stroke-width:1.5;"/>
   </g>
   <g id="patch_94">
    <path d="M 98.059375 358.356094 
L 98.059375 32.196094 
" style="fill:none;stroke:#000000;stroke-linecap:square;stroke-linejoin:miter;stroke-width:0.8;"/>
   </g>
   <g id="patch_95">
    <path d="M 499.819375 358.356094 
L 499.819375 32.196094 
" style="fill:none;stroke:#000000;stroke-linecap:square;stroke-linejoin:miter;stroke-width:0.8;"/>
   </g>
   <g id="patch_96">
    <path d="M 98.059375 358.356094 
L 499.819375 358.356094 
" style="fill:none;stroke:#000000;stroke-linecap:square;stroke-linejoin:miter;stroke-width:0.8;"/>
   </g>
   <g id="patch_97">
    <path d="M 98.059375 32.196094 
L 499.819375 32.196094 
" style="fill:none;stroke:#000000;stroke-linecap:square;stroke-linejoin:miter;stroke-width:0.8;"/>
   </g>
   <g id="text_14">
    <!-- Histogram of Ω for simmetry p4 -->
    <g transform="translate(100.089766 26.196094)scale(0.25 -0.25)">
     <defs>
      <path d="M 628 4666 
L 1259 4666 
L 1259 2753 
L 3553 2753 
L 3553 4666 
L 4184 4666 
L 4184 0 
L 3553 0 
L 3553 2222 
L 1259 2222 
L 1259 0 
L 628 0 
L 628 4666 
z
" id="DejaVuSans-48" transform="scale(0.015625)"/>
      <path d="M 2834 3397 
L 2834 2853 
Q 2591 2978 2328 3040 
Q 2066 3103 1784 3103 
Q 1356 3103 1142 2972 
Q 928 2841 928 2578 
Q 928 2378 1081 2264 
Q 1234 2150 1697 2047 
L 1894 2003 
Q 2506 1872 2764 1633 
Q 3022 1394 3022 966 
Q 3022 478 2636 193 
Q 2250 -91 1575 -91 
Q 1294 -91 989 -36 
Q 684 19 347 128 
L 347 722 
Q 666 556 975 473 
Q 1284 391 1588 391 
Q 1994 391 2212 530 
Q 2431 669 2431 922 
Q 2431 1156 2273 1281 
Q 2116 1406 1581 1522 
L 1381 1569 
Q 847 1681 609 1914 
Q 372 2147 372 2553 
Q 372 3047 722 3315 
Q 1072 3584 1716 3584 
Q 2034 3584 2315 3537 
Q 2597 3491 2834 3397 
z
" id="DejaVuSans-73" transform="scale(0.015625)"/>
      <path d="M 2906 1791 
Q 2906 2416 2648 2759 
Q 2391 3103 1925 3103 
Q 1463 3103 1205 2759 
Q 947 2416 947 1791 
Q 947 1169 1205 825 
Q 1463 481 1925 481 
Q 2391 481 2648 825 
Q 2906 1169 2906 1791 
z
M 3481 434 
Q 3481 -459 3084 -895 
Q 2688 -1331 1869 -1331 
Q 1566 -1331 1297 -1286 
Q 1028 -1241 775 -1147 
L 775 -588 
Q 1028 -725 1275 -790 
Q 1522 -856 1778 -856 
Q 2344 -856 2625 -561 
Q 2906 -266 2906 331 
L 2906 616 
Q 2728 306 2450 153 
Q 2172 0 1784 0 
Q 1141 0 747 490 
Q 353 981 353 1791 
Q 353 2603 747 3093 
Q 1141 3584 1784 3584 
Q 2172 3584 2450 3431 
Q 2728 3278 2906 2969 
L 2906 3500 
L 3481 3500 
L 3481 434 
z
" id="DejaVuSans-67" transform="scale(0.015625)"/>
      <path d="M 3328 2828 
Q 3544 3216 3844 3400 
Q 4144 3584 4550 3584 
Q 5097 3584 5394 3201 
Q 5691 2819 5691 2113 
L 5691 0 
L 5113 0 
L 5113 2094 
Q 5113 2597 4934 2840 
Q 4756 3084 4391 3084 
Q 3944 3084 3684 2787 
Q 3425 2491 3425 1978 
L 3425 0 
L 2847 0 
L 2847 2094 
Q 2847 2600 2669 2842 
Q 2491 3084 2119 3084 
Q 1678 3084 1418 2786 
Q 1159 2488 1159 1978 
L 1159 0 
L 581 0 
L 581 3500 
L 1159 3500 
L 1159 2956 
Q 1356 3278 1631 3431 
Q 1906 3584 2284 3584 
Q 2666 3584 2933 3390 
Q 3200 3197 3328 2828 
z
" id="DejaVuSans-6d" transform="scale(0.015625)"/>
      <path id="DejaVuSans-20" transform="scale(0.015625)"/>
      <path d="M 2375 4863 
L 2375 4384 
L 1825 4384 
Q 1516 4384 1395 4259 
Q 1275 4134 1275 3809 
L 1275 3500 
L 2222 3500 
L 2222 3053 
L 1275 3053 
L 1275 0 
L 697 0 
L 697 3053 
L 147 3053 
L 147 3500 
L 697 3500 
L 697 3744 
Q 697 4328 969 4595 
Q 1241 4863 1831 4863 
L 2375 4863 
z
" id="DejaVuSans-66" transform="scale(0.015625)"/>
      <path d="M 3597 1894 
L 3597 1613 
L 953 1613 
Q 991 1019 1311 708 
Q 1631 397 2203 397 
Q 2534 397 2845 478 
Q 3156 559 3463 722 
L 3463 178 
Q 3153 47 2828 -22 
Q 2503 -91 2169 -91 
Q 1331 -91 842 396 
Q 353 884 353 1716 
Q 353 2575 817 3079 
Q 1281 3584 2069 3584 
Q 2775 3584 3186 3129 
Q 3597 2675 3597 1894 
z
M 3022 2063 
Q 3016 2534 2758 2815 
Q 2500 3097 2075 3097 
Q 1594 3097 1305 2825 
Q 1016 2553 972 2059 
L 3022 2063 
z
" id="DejaVuSans-65" transform="scale(0.015625)"/>
      <path d="M 1159 525 
L 1159 -1331 
L 581 -1331 
L 581 3500 
L 1159 3500 
L 1159 2969 
Q 1341 3281 1617 3432 
Q 1894 3584 2278 3584 
Q 2916 3584 3314 3078 
Q 3713 2572 3713 1747 
Q 3713 922 3314 415 
Q 2916 -91 2278 -91 
Q 1894 -91 1617 61 
Q 1341 213 1159 525 
z
M 3116 1747 
Q 3116 2381 2855 2742 
Q 2594 3103 2138 3103 
Q 1681 3103 1420 2742 
Q 1159 2381 1159 1747 
Q 1159 1113 1420 752 
Q 1681 391 2138 391 
Q 2594 391 2855 752 
Q 3116 1113 3116 1747 
z
" id="DejaVuSans-70" transform="scale(0.015625)"/>
     </defs>
     <use xlink:href="#DejaVuSans-48"/>
     <use x="75.195312" xlink:href="#DejaVuSans-69"/>
     <use x="102.978516" xlink:href="#DejaVuSans-73"/>
     <use x="155.078125" xlink:href="#DejaVuSans-74"/>
     <use x="194.287109" xlink:href="#DejaVuSans-6f"/>
     <use x="255.46875" xlink:href="#DejaVuSans-67"/>
     <use x="318.945312" xlink:href="#DejaVuSans-72"/>
     <use x="360.058594" xlink:href="#DejaVuSans-61"/>
     <use x="421.337891" xlink:href="#DejaVuSans-6d"/>
     <use x="518.75" xlink:href="#DejaVuSans-20"/>
     <use x="550.537109" xlink:href="#DejaVuSans-6f"/>
     <use x="611.71875" xlink:href="#DejaVuSans-66"/>
     <use x="646.923828" xlink:href="#DejaVuSans-20"/>
     <use x="678.710938" xlink:href="#DejaVuSans-3a9"/>
     <use x="755.126953" xlink:href="#DejaVuSans-20"/>
     <use x="786.914062" xlink:href="#DejaVuSans-66"/>
     <use x="822.119141" xlink:href="#DejaVuSans-6f"/>
     <use x="883.300781" xlink:href="#DejaVuSans-72"/>
     <use x="924.414062" xlink:href="#DejaVuSans-20"/>
     <use x="956.201172" xlink:href="#DejaVuSans-73"/>
     <use x="1008.300781" xlink:href="#DejaVuSans-69"/>
     <use x="1036.083984" xlink:href="#DejaVuSans-6d"/>
     <use x="1133.496094" xlink:href="#DejaVuSans-6d"/>
     <use x="1230.908203" xlink:href="#DejaVuSans-65"/>
     <use x="1292.431641" xlink:href="#DejaVuSans-74"/>
     <use x="1331.640625" xlink:href="#DejaVuSans-72"/>
     <use x="1372.753906" xlink:href="#DejaVuSans-79"/>
     <use x="1431.933594" xlink:href="#DejaVuSans-20"/>
     <use x="1463.720703" xlink:href="#DejaVuSans-70"/>
     <use x="1527.197266" xlink:href="#DejaVuSans-34"/>
    </g>
   </g>
   <g id="legend_1">
    <g id="patch_98">
     <path d="M 105.059375 98.586719 
L 234.020312 98.586719 
Q 236.020312 98.586719 236.020312 96.586719 
L 236.020312 39.196094 
Q 236.020312 37.196094 234.020312 37.196094 
L 105.059375 37.196094 
Q 103.059375 37.196094 103.059375 39.196094 
L 103.059375 96.586719 
Q 103.059375 98.586719 105.059375 98.586719 
z
" style="fill:#ffffff;opacity:0.8;stroke:#cccccc;stroke-linejoin:miter;"/>
    </g>
    <g id="line2d_14">
     <path d="M 107.059375 56.692188 
L 127.059375 56.692188 
" style="fill:none;stroke:#0000ff;stroke-linecap:square;stroke-width:1.5;"/>
    </g>
    <g id="line2d_15"/>
    <g id="text_15">
     <!-- random -->
     <g transform="translate(135.059375 60.192188)scale(0.25 -0.25)">
      <defs>
       <path d="M 3513 2113 
L 3513 0 
L 2938 0 
L 2938 2094 
Q 2938 2591 2744 2837 
Q 2550 3084 2163 3084 
Q 1697 3084 1428 2787 
Q 1159 2491 1159 1978 
L 1159 0 
L 581 0 
L 581 3500 
L 1159 3500 
L 1159 2956 
Q 1366 3272 1645 3428 
Q 1925 3584 2291 3584 
Q 2894 3584 3203 3211 
Q 3513 2838 3513 2113 
z
" id="DejaVuSans-6e" transform="scale(0.015625)"/>
       <path d="M 2906 2969 
L 2906 4863 
L 3481 4863 
L 3481 0 
L 2906 0 
L 2906 525 
Q 2725 213 2448 61 
Q 2172 -91 1784 -91 
Q 1150 -91 751 415 
Q 353 922 353 1747 
Q 353 2572 751 3078 
Q 1150 3584 1784 3584 
Q 2172 3584 2448 3432 
Q 2725 3281 2906 2969 
z
M 947 1747 
Q 947 1113 1208 752 
Q 1469 391 1925 391 
Q 2381 391 2643 752 
Q 2906 1113 2906 1747 
Q 2906 2381 2643 2742 
Q 2381 3103 1925 3103 
Q 1469 3103 1208 2742 
Q 947 2381 947 1747 
z
" id="DejaVuSans-64" transform="scale(0.015625)"/>
      </defs>
      <use xlink:href="#DejaVuSans-72"/>
      <use x="41.113281" xlink:href="#DejaVuSans-61"/>
      <use x="102.392578" xlink:href="#DejaVuSans-6e"/>
      <use x="165.771484" xlink:href="#DejaVuSans-64"/>
      <use x="229.248047" xlink:href="#DejaVuSans-6f"/>
      <use x="290.429688" xlink:href="#DejaVuSans-6d"/>
     </g>
    </g>
    <g id="line2d_16">
     <path d="M 107.059375 85.8875 
L 127.059375 85.8875 
" style="fill:none;stroke:#0000ff;stroke-linecap:square;stroke-width:1.5;"/>
    </g>
    <g id="line2d_17"/>
    <g id="text_16">
     <!-- GAN -->
     <g transform="translate(135.059375 89.3875)scale(0.25 -0.25)">
      <defs>
       <path d="M 3809 666 
L 3809 1919 
L 2778 1919 
L 2778 2438 
L 4434 2438 
L 4434 434 
Q 4069 175 3628 42 
Q 3188 -91 2688 -91 
Q 1594 -91 976 548 
Q 359 1188 359 2328 
Q 359 3472 976 4111 
Q 1594 4750 2688 4750 
Q 3144 4750 3555 4637 
Q 3966 4525 4313 4306 
L 4313 3634 
Q 3963 3931 3569 4081 
Q 3175 4231 2741 4231 
Q 1884 4231 1454 3753 
Q 1025 3275 1025 2328 
Q 1025 1384 1454 906 
Q 1884 428 2741 428 
Q 3075 428 3337 486 
Q 3600 544 3809 666 
z
" id="DejaVuSans-47" transform="scale(0.015625)"/>
       <path d="M 2188 4044 
L 1331 1722 
L 3047 1722 
L 2188 4044 
z
M 1831 4666 
L 2547 4666 
L 4325 0 
L 3669 0 
L 3244 1197 
L 1141 1197 
L 716 0 
L 50 0 
L 1831 4666 
z
" id="DejaVuSans-41" transform="scale(0.015625)"/>
       <path d="M 628 4666 
L 1478 4666 
L 3547 763 
L 3547 4666 
L 4159 4666 
L 4159 0 
L 3309 0 
L 1241 3903 
L 1241 0 
L 628 0 
L 628 4666 
z
" id="DejaVuSans-4e" transform="scale(0.015625)"/>
      </defs>
      <use xlink:href="#DejaVuSans-47"/>
      <use x="77.490234" xlink:href="#DejaVuSans-41"/>
      <use x="145.898438" xlink:href="#DejaVuSans-4e"/>
     </g>
    </g>
   </g>
  </g>
 </g>
 <defs>
  <clipPath id="pad3f1fadad">
   <rect height="326.16" width="401.76" x="98.059375" y="32.196094"/>
  </clipPath>
 </defs>
</svg>
