<?xml version="1.0" encoding="utf-8" standalone="no"?>
<!DOCTYPE svg PUBLIC "-//W3C//DTD SVG 1.1//EN"
  "http://www.w3.org/Graphics/SVG/1.1/DTD/svg11.dtd">
<svg height="528.827656pt" version="1.1" viewBox="0 0 663.259375 528.827656" width="663.259375pt" xmlns="http://www.w3.org/2000/svg" xmlns:xlink="http://www.w3.org/1999/xlink">
 <metadata>
  <rdf:RDF xmlns:cc="http://creativecommons.org/ns#" xmlns:dc="http://purl.org/dc/elements/1.1/" xmlns:rdf="http://www.w3.org/1999/02/22-rdf-syntax-ns#">
   <cc:Work>
    <dc:type rdf:resource="http://purl.org/dc/dcmitype/StillImage"/>
    <dc:date>2022-03-18T14:38:21.574538</dc:date>
    <dc:format>image/svg+xml</dc:format>
    <dc:creator>
     <cc:Agent>
      <dc:title>Matplotlib v3.4.3, https://matplotlib.org/</dc:title>
     </cc:Agent>
    </dc:creator>
   </cc:Work>
  </rdf:RDF>
 </metadata>
 <defs>
  <style type="text/css">*{stroke-linecap:butt;stroke-linejoin:round;}</style>
 </defs>
 <g id="figure_1">
  <g id="axes_1">
   <g id="patch_1">
    <path d="M 98.059375 467.076094 
L 656.059375 467.076094 
L 656.059375 32.196094 
L 98.059375 32.196094 
z
" style="fill:#ffffff;"/>
   </g>
   <g id="patch_2">
    <path clip-path="url(#p12ffd2b259)" d="M 123.423011 467.076094 
L 133.568466 467.076094 
L 133.568466 449.555188 
L 123.423011 449.555188 
z
" style="fill:#0000ff;fill-opacity:0.5;stroke:#000000;stroke-linejoin:miter;"/>
   </g>
   <g id="patch_3">
    <path clip-path="url(#p12ffd2b259)" d="M 133.568466 467.076094 
L 143.71392 467.076094 
L 143.71392 461.235792 
L 133.568466 461.235792 
z
" style="fill:#0000ff;fill-opacity:0.5;stroke:#000000;stroke-linejoin:miter;"/>
   </g>
   <g id="patch_4">
    <path clip-path="url(#p12ffd2b259)" d="M 143.71392 467.076094 
L 153.859375 467.076094 
L 153.859375 437.874585 
L 143.71392 437.874585 
z
" style="fill:#0000ff;fill-opacity:0.5;stroke:#000000;stroke-linejoin:miter;"/>
   </g>
   <g id="patch_5">
    <path clip-path="url(#p12ffd2b259)" d="M 153.859375 467.076094 
L 164.00483 467.076094 
L 164.00483 420.353679 
L 153.859375 420.353679 
z
" style="fill:#0000ff;fill-opacity:0.5;stroke:#000000;stroke-linejoin:miter;"/>
   </g>
   <g id="patch_6">
    <path clip-path="url(#p12ffd2b259)" d="M 164.00483 467.076094 
L 174.150284 467.076094 
L 174.150284 449.555188 
L 164.00483 449.555188 
z
" style="fill:#0000ff;fill-opacity:0.5;stroke:#000000;stroke-linejoin:miter;"/>
   </g>
   <g id="patch_7">
    <path clip-path="url(#p12ffd2b259)" d="M 174.150284 467.076094 
L 184.295739 467.076094 
L 184.295739 437.874585 
L 174.150284 437.874585 
z
" style="fill:#0000ff;fill-opacity:0.5;stroke:#000000;stroke-linejoin:miter;"/>
   </g>
   <g id="patch_8">
    <path clip-path="url(#p12ffd2b259)" d="M 184.295739 467.076094 
L 194.441193 467.076094 
L 194.441193 426.193981 
L 184.295739 426.193981 
z
" style="fill:#0000ff;fill-opacity:0.5;stroke:#000000;stroke-linejoin:miter;"/>
   </g>
   <g id="patch_9">
    <path clip-path="url(#p12ffd2b259)" d="M 194.441193 467.076094 
L 204.586648 467.076094 
L 204.586648 426.193981 
L 194.441193 426.193981 
z
" style="fill:#0000ff;fill-opacity:0.5;stroke:#000000;stroke-linejoin:miter;"/>
   </g>
   <g id="patch_10">
    <path clip-path="url(#p12ffd2b259)" d="M 204.586648 467.076094 
L 214.732102 467.076094 
L 214.732102 426.193981 
L 204.586648 426.193981 
z
" style="fill:#0000ff;fill-opacity:0.5;stroke:#000000;stroke-linejoin:miter;"/>
   </g>
   <g id="patch_11">
    <path clip-path="url(#p12ffd2b259)" d="M 214.732102 467.076094 
L 224.877557 467.076094 
L 224.877557 432.034283 
L 214.732102 432.034283 
z
" style="fill:#0000ff;fill-opacity:0.5;stroke:#000000;stroke-linejoin:miter;"/>
   </g>
   <g id="patch_12">
    <path clip-path="url(#p12ffd2b259)" d="M 224.877557 467.076094 
L 235.023011 467.076094 
L 235.023011 414.513377 
L 224.877557 414.513377 
z
" style="fill:#0000ff;fill-opacity:0.5;stroke:#000000;stroke-linejoin:miter;"/>
   </g>
   <g id="patch_13">
    <path clip-path="url(#p12ffd2b259)" d="M 235.023011 467.076094 
L 245.168466 467.076094 
L 245.168466 379.471566 
L 235.023011 379.471566 
z
" style="fill:#0000ff;fill-opacity:0.5;stroke:#000000;stroke-linejoin:miter;"/>
   </g>
   <g id="patch_14">
    <path clip-path="url(#p12ffd2b259)" d="M 245.168466 467.076094 
L 255.31392 467.076094 
L 255.31392 367.790962 
L 245.168466 367.790962 
z
" style="fill:#0000ff;fill-opacity:0.5;stroke:#000000;stroke-linejoin:miter;"/>
   </g>
   <g id="patch_15">
    <path clip-path="url(#p12ffd2b259)" d="M 255.31392 467.076094 
L 265.459375 467.076094 
L 265.459375 385.311868 
L 255.31392 385.311868 
z
" style="fill:#0000ff;fill-opacity:0.5;stroke:#000000;stroke-linejoin:miter;"/>
   </g>
   <g id="patch_16">
    <path clip-path="url(#p12ffd2b259)" d="M 265.459375 467.076094 
L 275.60483 467.076094 
L 275.60483 332.749151 
L 265.459375 332.749151 
z
" style="fill:#0000ff;fill-opacity:0.5;stroke:#000000;stroke-linejoin:miter;"/>
   </g>
   <g id="patch_17">
    <path clip-path="url(#p12ffd2b259)" d="M 275.60483 467.076094 
L 285.750284 467.076094 
L 285.750284 356.110359 
L 275.60483 356.110359 
z
" style="fill:#0000ff;fill-opacity:0.5;stroke:#000000;stroke-linejoin:miter;"/>
   </g>
   <g id="patch_18">
    <path clip-path="url(#p12ffd2b259)" d="M 285.750284 467.076094 
L 295.895739 467.076094 
L 295.895739 297.70734 
L 285.750284 297.70734 
z
" style="fill:#0000ff;fill-opacity:0.5;stroke:#000000;stroke-linejoin:miter;"/>
   </g>
   <g id="patch_19">
    <path clip-path="url(#p12ffd2b259)" d="M 295.895739 467.076094 
L 306.041193 467.076094 
L 306.041193 344.429755 
L 295.895739 344.429755 
z
" style="fill:#0000ff;fill-opacity:0.5;stroke:#000000;stroke-linejoin:miter;"/>
   </g>
   <g id="patch_20">
    <path clip-path="url(#p12ffd2b259)" d="M 306.041193 467.076094 
L 316.186648 467.076094 
L 316.186648 297.70734 
L 306.041193 297.70734 
z
" style="fill:#0000ff;fill-opacity:0.5;stroke:#000000;stroke-linejoin:miter;"/>
   </g>
   <g id="patch_21">
    <path clip-path="url(#p12ffd2b259)" d="M 316.186648 467.076094 
L 326.332102 467.076094 
L 326.332102 291.867038 
L 316.186648 291.867038 
z
" style="fill:#0000ff;fill-opacity:0.5;stroke:#000000;stroke-linejoin:miter;"/>
   </g>
   <g id="patch_22">
    <path clip-path="url(#p12ffd2b259)" d="M 326.332102 467.076094 
L 336.477557 467.076094 
L 336.477557 315.228246 
L 326.332102 315.228246 
z
" style="fill:#0000ff;fill-opacity:0.5;stroke:#000000;stroke-linejoin:miter;"/>
   </g>
   <g id="patch_23">
    <path clip-path="url(#p12ffd2b259)" d="M 336.477557 467.076094 
L 346.623011 467.076094 
L 346.623011 280.186435 
L 336.477557 280.186435 
z
" style="fill:#0000ff;fill-opacity:0.5;stroke:#000000;stroke-linejoin:miter;"/>
   </g>
   <g id="patch_24">
    <path clip-path="url(#p12ffd2b259)" d="M 346.623011 467.076094 
L 356.768466 467.076094 
L 356.768466 245.144624 
L 346.623011 245.144624 
z
" style="fill:#0000ff;fill-opacity:0.5;stroke:#000000;stroke-linejoin:miter;"/>
   </g>
   <g id="patch_25">
    <path clip-path="url(#p12ffd2b259)" d="M 356.768466 467.076094 
L 366.91392 467.076094 
L 366.91392 315.228246 
L 356.768466 315.228246 
z
" style="fill:#0000ff;fill-opacity:0.5;stroke:#000000;stroke-linejoin:miter;"/>
   </g>
   <g id="patch_26">
    <path clip-path="url(#p12ffd2b259)" d="M 366.91392 467.076094 
L 377.059375 467.076094 
L 377.059375 280.186435 
L 366.91392 280.186435 
z
" style="fill:#0000ff;fill-opacity:0.5;stroke:#000000;stroke-linejoin:miter;"/>
   </g>
   <g id="patch_27">
    <path clip-path="url(#p12ffd2b259)" d="M 377.059375 467.076094 
L 387.20483 467.076094 
L 387.20483 256.825227 
L 377.059375 256.825227 
z
" style="fill:#0000ff;fill-opacity:0.5;stroke:#000000;stroke-linejoin:miter;"/>
   </g>
   <g id="patch_28">
    <path clip-path="url(#p12ffd2b259)" d="M 387.20483 467.076094 
L 397.350284 467.076094 
L 397.350284 245.144624 
L 387.20483 245.144624 
z
" style="fill:#0000ff;fill-opacity:0.5;stroke:#000000;stroke-linejoin:miter;"/>
   </g>
   <g id="patch_29">
    <path clip-path="url(#p12ffd2b259)" d="M 397.350284 467.076094 
L 407.495739 467.076094 
L 407.495739 245.144624 
L 397.350284 245.144624 
z
" style="fill:#0000ff;fill-opacity:0.5;stroke:#000000;stroke-linejoin:miter;"/>
   </g>
   <g id="patch_30">
    <path clip-path="url(#p12ffd2b259)" d="M 407.495739 467.076094 
L 417.641193 467.076094 
L 417.641193 256.825227 
L 407.495739 256.825227 
z
" style="fill:#0000ff;fill-opacity:0.5;stroke:#000000;stroke-linejoin:miter;"/>
   </g>
   <g id="patch_31">
    <path clip-path="url(#p12ffd2b259)" d="M 417.641193 467.076094 
L 427.786648 467.076094 
L 427.786648 326.908849 
L 417.641193 326.908849 
z
" style="fill:#0000ff;fill-opacity:0.5;stroke:#000000;stroke-linejoin:miter;"/>
   </g>
   <g id="patch_32">
    <path clip-path="url(#p12ffd2b259)" d="M 427.786648 467.076094 
L 437.932102 467.076094 
L 437.932102 315.228246 
L 427.786648 315.228246 
z
" style="fill:#0000ff;fill-opacity:0.5;stroke:#000000;stroke-linejoin:miter;"/>
   </g>
   <g id="patch_33">
    <path clip-path="url(#p12ffd2b259)" d="M 437.932102 467.076094 
L 448.077557 467.076094 
L 448.077557 268.505831 
L 437.932102 268.505831 
z
" style="fill:#0000ff;fill-opacity:0.5;stroke:#000000;stroke-linejoin:miter;"/>
   </g>
   <g id="patch_34">
    <path clip-path="url(#p12ffd2b259)" d="M 448.077557 467.076094 
L 458.223011 467.076094 
L 458.223011 361.95066 
L 448.077557 361.95066 
z
" style="fill:#0000ff;fill-opacity:0.5;stroke:#000000;stroke-linejoin:miter;"/>
   </g>
   <g id="patch_35">
    <path clip-path="url(#p12ffd2b259)" d="M 458.223011 467.076094 
L 468.368466 467.076094 
L 468.368466 332.749151 
L 458.223011 332.749151 
z
" style="fill:#0000ff;fill-opacity:0.5;stroke:#000000;stroke-linejoin:miter;"/>
   </g>
   <g id="patch_36">
    <path clip-path="url(#p12ffd2b259)" d="M 468.368466 467.076094 
L 478.51392 467.076094 
L 478.51392 268.505831 
L 468.368466 268.505831 
z
" style="fill:#0000ff;fill-opacity:0.5;stroke:#000000;stroke-linejoin:miter;"/>
   </g>
   <g id="patch_37">
    <path clip-path="url(#p12ffd2b259)" d="M 478.51392 467.076094 
L 488.659375 467.076094 
L 488.659375 332.749151 
L 478.51392 332.749151 
z
" style="fill:#0000ff;fill-opacity:0.5;stroke:#000000;stroke-linejoin:miter;"/>
   </g>
   <g id="patch_38">
    <path clip-path="url(#p12ffd2b259)" d="M 488.659375 467.076094 
L 498.80483 467.076094 
L 498.80483 332.749151 
L 488.659375 332.749151 
z
" style="fill:#0000ff;fill-opacity:0.5;stroke:#000000;stroke-linejoin:miter;"/>
   </g>
   <g id="patch_39">
    <path clip-path="url(#p12ffd2b259)" d="M 498.80483 467.076094 
L 508.950284 467.076094 
L 508.950284 379.471566 
L 498.80483 379.471566 
z
" style="fill:#0000ff;fill-opacity:0.5;stroke:#000000;stroke-linejoin:miter;"/>
   </g>
   <g id="patch_40">
    <path clip-path="url(#p12ffd2b259)" d="M 508.950284 467.076094 
L 519.095739 467.076094 
L 519.095739 402.832773 
L 508.950284 402.832773 
z
" style="fill:#0000ff;fill-opacity:0.5;stroke:#000000;stroke-linejoin:miter;"/>
   </g>
   <g id="patch_41">
    <path clip-path="url(#p12ffd2b259)" d="M 519.095739 467.076094 
L 529.241193 467.076094 
L 529.241193 402.832773 
L 519.095739 402.832773 
z
" style="fill:#0000ff;fill-opacity:0.5;stroke:#000000;stroke-linejoin:miter;"/>
   </g>
   <g id="patch_42">
    <path clip-path="url(#p12ffd2b259)" d="M 529.241193 467.076094 
L 539.386648 467.076094 
L 539.386648 443.714886 
L 529.241193 443.714886 
z
" style="fill:#0000ff;fill-opacity:0.5;stroke:#000000;stroke-linejoin:miter;"/>
   </g>
   <g id="patch_43">
    <path clip-path="url(#p12ffd2b259)" d="M 539.386648 467.076094 
L 549.532102 467.076094 
L 549.532102 426.193981 
L 539.386648 426.193981 
z
" style="fill:#0000ff;fill-opacity:0.5;stroke:#000000;stroke-linejoin:miter;"/>
   </g>
   <g id="patch_44">
    <path clip-path="url(#p12ffd2b259)" d="M 549.532102 467.076094 
L 559.677557 467.076094 
L 559.677557 449.555188 
L 549.532102 449.555188 
z
" style="fill:#0000ff;fill-opacity:0.5;stroke:#000000;stroke-linejoin:miter;"/>
   </g>
   <g id="patch_45">
    <path clip-path="url(#p12ffd2b259)" d="M 559.677557 467.076094 
L 569.823011 467.076094 
L 569.823011 443.714886 
L 559.677557 443.714886 
z
" style="fill:#0000ff;fill-opacity:0.5;stroke:#000000;stroke-linejoin:miter;"/>
   </g>
   <g id="patch_46">
    <path clip-path="url(#p12ffd2b259)" d="M 569.823011 467.076094 
L 579.968466 467.076094 
L 579.968466 467.076094 
L 569.823011 467.076094 
z
" style="fill:#0000ff;fill-opacity:0.5;stroke:#000000;stroke-linejoin:miter;"/>
   </g>
   <g id="patch_47">
    <path clip-path="url(#p12ffd2b259)" d="M 579.968466 467.076094 
L 590.11392 467.076094 
L 590.11392 461.235792 
L 579.968466 461.235792 
z
" style="fill:#0000ff;fill-opacity:0.5;stroke:#000000;stroke-linejoin:miter;"/>
   </g>
   <g id="patch_48">
    <path clip-path="url(#p12ffd2b259)" d="M 590.11392 467.076094 
L 600.259375 467.076094 
L 600.259375 467.076094 
L 590.11392 467.076094 
z
" style="fill:#0000ff;fill-opacity:0.5;stroke:#000000;stroke-linejoin:miter;"/>
   </g>
   <g id="patch_49">
    <path clip-path="url(#p12ffd2b259)" d="M 600.259375 467.076094 
L 610.40483 467.076094 
L 610.40483 461.235792 
L 600.259375 461.235792 
z
" style="fill:#0000ff;fill-opacity:0.5;stroke:#000000;stroke-linejoin:miter;"/>
   </g>
   <g id="patch_50">
    <path clip-path="url(#p12ffd2b259)" d="M 610.40483 467.076094 
L 620.550284 467.076094 
L 620.550284 467.076094 
L 610.40483 467.076094 
z
" style="fill:#0000ff;fill-opacity:0.5;stroke:#000000;stroke-linejoin:miter;"/>
   </g>
   <g id="patch_51">
    <path clip-path="url(#p12ffd2b259)" d="M 620.550284 467.076094 
L 630.695739 467.076094 
L 630.695739 461.235792 
L 620.550284 461.235792 
z
" style="fill:#0000ff;fill-opacity:0.5;stroke:#000000;stroke-linejoin:miter;"/>
   </g>
   <g id="patch_52">
    <path clip-path="url(#p12ffd2b259)" d="M 123.423011 467.076094 
L 133.568466 467.076094 
L 133.568466 461.62647 
L 123.423011 461.62647 
z
" style="fill:#ff0000;fill-opacity:0.5;stroke:#000000;stroke-linejoin:miter;"/>
   </g>
   <g id="patch_53">
    <path clip-path="url(#p12ffd2b259)" d="M 133.568466 467.076094 
L 143.71392 467.076094 
L 143.71392 467.076094 
L 133.568466 467.076094 
z
" style="fill:#ff0000;fill-opacity:0.5;stroke:#000000;stroke-linejoin:miter;"/>
   </g>
   <g id="patch_54">
    <path clip-path="url(#p12ffd2b259)" d="M 143.71392 467.076094 
L 153.859375 467.076094 
L 153.859375 467.076094 
L 143.71392 467.076094 
z
" style="fill:#ff0000;fill-opacity:0.5;stroke:#000000;stroke-linejoin:miter;"/>
   </g>
   <g id="patch_55">
    <path clip-path="url(#p12ffd2b259)" d="M 153.859375 467.076094 
L 164.00483 467.076094 
L 164.00483 467.076094 
L 153.859375 467.076094 
z
" style="fill:#ff0000;fill-opacity:0.5;stroke:#000000;stroke-linejoin:miter;"/>
   </g>
   <g id="patch_56">
    <path clip-path="url(#p12ffd2b259)" d="M 164.00483 467.076094 
L 174.150284 467.076094 
L 174.150284 467.076094 
L 164.00483 467.076094 
z
" style="fill:#ff0000;fill-opacity:0.5;stroke:#000000;stroke-linejoin:miter;"/>
   </g>
   <g id="patch_57">
    <path clip-path="url(#p12ffd2b259)" d="M 174.150284 467.076094 
L 184.295739 467.076094 
L 184.295739 467.076094 
L 174.150284 467.076094 
z
" style="fill:#ff0000;fill-opacity:0.5;stroke:#000000;stroke-linejoin:miter;"/>
   </g>
   <g id="patch_58">
    <path clip-path="url(#p12ffd2b259)" d="M 184.295739 467.076094 
L 194.441193 467.076094 
L 194.441193 461.62647 
L 184.295739 461.62647 
z
" style="fill:#ff0000;fill-opacity:0.5;stroke:#000000;stroke-linejoin:miter;"/>
   </g>
   <g id="patch_59">
    <path clip-path="url(#p12ffd2b259)" d="M 194.441193 467.076094 
L 204.586648 467.076094 
L 204.586648 461.62647 
L 194.441193 461.62647 
z
" style="fill:#ff0000;fill-opacity:0.5;stroke:#000000;stroke-linejoin:miter;"/>
   </g>
   <g id="patch_60">
    <path clip-path="url(#p12ffd2b259)" d="M 204.586648 467.076094 
L 214.732102 467.076094 
L 214.732102 445.277598 
L 204.586648 445.277598 
z
" style="fill:#ff0000;fill-opacity:0.5;stroke:#000000;stroke-linejoin:miter;"/>
   </g>
   <g id="patch_61">
    <path clip-path="url(#p12ffd2b259)" d="M 214.732102 467.076094 
L 224.877557 467.076094 
L 224.877557 450.727222 
L 214.732102 450.727222 
z
" style="fill:#ff0000;fill-opacity:0.5;stroke:#000000;stroke-linejoin:miter;"/>
   </g>
   <g id="patch_62">
    <path clip-path="url(#p12ffd2b259)" d="M 224.877557 467.076094 
L 235.023011 467.076094 
L 235.023011 390.781357 
L 224.877557 390.781357 
z
" style="fill:#ff0000;fill-opacity:0.5;stroke:#000000;stroke-linejoin:miter;"/>
   </g>
   <g id="patch_63">
    <path clip-path="url(#p12ffd2b259)" d="M 235.023011 467.076094 
L 245.168466 467.076094 
L 245.168466 336.285116 
L 235.023011 336.285116 
z
" style="fill:#ff0000;fill-opacity:0.5;stroke:#000000;stroke-linejoin:miter;"/>
   </g>
   <g id="patch_64">
    <path clip-path="url(#p12ffd2b259)" d="M 245.168466 467.076094 
L 255.31392 467.076094 
L 255.31392 325.385868 
L 245.168466 325.385868 
z
" style="fill:#ff0000;fill-opacity:0.5;stroke:#000000;stroke-linejoin:miter;"/>
   </g>
   <g id="patch_65">
    <path clip-path="url(#p12ffd2b259)" d="M 255.31392 467.076094 
L 265.459375 467.076094 
L 265.459375 243.641507 
L 255.31392 243.641507 
z
" style="fill:#ff0000;fill-opacity:0.5;stroke:#000000;stroke-linejoin:miter;"/>
   </g>
   <g id="patch_66">
    <path clip-path="url(#p12ffd2b259)" d="M 265.459375 467.076094 
L 275.60483 467.076094 
L 275.60483 189.145267 
L 265.459375 189.145267 
z
" style="fill:#ff0000;fill-opacity:0.5;stroke:#000000;stroke-linejoin:miter;"/>
   </g>
   <g id="patch_67">
    <path clip-path="url(#p12ffd2b259)" d="M 275.60483 467.076094 
L 285.750284 467.076094 
L 285.750284 156.447522 
L 275.60483 156.447522 
z
" style="fill:#ff0000;fill-opacity:0.5;stroke:#000000;stroke-linejoin:miter;"/>
   </g>
   <g id="patch_68">
    <path clip-path="url(#p12ffd2b259)" d="M 285.750284 467.076094 
L 295.895739 467.076094 
L 295.895739 52.904665 
L 285.750284 52.904665 
z
" style="fill:#ff0000;fill-opacity:0.5;stroke:#000000;stroke-linejoin:miter;"/>
   </g>
   <g id="patch_69">
    <path clip-path="url(#p12ffd2b259)" d="M 295.895739 467.076094 
L 306.041193 467.076094 
L 306.041193 183.695643 
L 295.895739 183.695643 
z
" style="fill:#ff0000;fill-opacity:0.5;stroke:#000000;stroke-linejoin:miter;"/>
   </g>
   <g id="patch_70">
    <path clip-path="url(#p12ffd2b259)" d="M 306.041193 467.076094 
L 316.186648 467.076094 
L 316.186648 189.145267 
L 306.041193 189.145267 
z
" style="fill:#ff0000;fill-opacity:0.5;stroke:#000000;stroke-linejoin:miter;"/>
   </g>
   <g id="patch_71">
    <path clip-path="url(#p12ffd2b259)" d="M 316.186648 467.076094 
L 326.332102 467.076094 
L 326.332102 156.447522 
L 316.186648 156.447522 
z
" style="fill:#ff0000;fill-opacity:0.5;stroke:#000000;stroke-linejoin:miter;"/>
   </g>
   <g id="patch_72">
    <path clip-path="url(#p12ffd2b259)" d="M 326.332102 467.076094 
L 336.477557 467.076094 
L 336.477557 265.440004 
L 326.332102 265.440004 
z
" style="fill:#ff0000;fill-opacity:0.5;stroke:#000000;stroke-linejoin:miter;"/>
   </g>
   <g id="patch_73">
    <path clip-path="url(#p12ffd2b259)" d="M 336.477557 467.076094 
L 346.623011 467.076094 
L 346.623011 259.990379 
L 336.477557 259.990379 
z
" style="fill:#ff0000;fill-opacity:0.5;stroke:#000000;stroke-linejoin:miter;"/>
   </g>
   <g id="patch_74">
    <path clip-path="url(#p12ffd2b259)" d="M 346.623011 467.076094 
L 356.768466 467.076094 
L 356.768466 303.587372 
L 346.623011 303.587372 
z
" style="fill:#ff0000;fill-opacity:0.5;stroke:#000000;stroke-linejoin:miter;"/>
   </g>
   <g id="patch_75">
    <path clip-path="url(#p12ffd2b259)" d="M 356.768466 467.076094 
L 366.91392 467.076094 
L 366.91392 319.936244 
L 356.768466 319.936244 
z
" style="fill:#ff0000;fill-opacity:0.5;stroke:#000000;stroke-linejoin:miter;"/>
   </g>
   <g id="patch_76">
    <path clip-path="url(#p12ffd2b259)" d="M 366.91392 467.076094 
L 377.059375 467.076094 
L 377.059375 325.385868 
L 366.91392 325.385868 
z
" style="fill:#ff0000;fill-opacity:0.5;stroke:#000000;stroke-linejoin:miter;"/>
   </g>
   <g id="patch_77">
    <path clip-path="url(#p12ffd2b259)" d="M 377.059375 467.076094 
L 387.20483 467.076094 
L 387.20483 336.285116 
L 377.059375 336.285116 
z
" style="fill:#ff0000;fill-opacity:0.5;stroke:#000000;stroke-linejoin:miter;"/>
   </g>
   <g id="patch_78">
    <path clip-path="url(#p12ffd2b259)" d="M 387.20483 467.076094 
L 397.350284 467.076094 
L 397.350284 352.633988 
L 387.20483 352.633988 
z
" style="fill:#ff0000;fill-opacity:0.5;stroke:#000000;stroke-linejoin:miter;"/>
   </g>
   <g id="patch_79">
    <path clip-path="url(#p12ffd2b259)" d="M 397.350284 467.076094 
L 407.495739 467.076094 
L 407.495739 319.936244 
L 397.350284 319.936244 
z
" style="fill:#ff0000;fill-opacity:0.5;stroke:#000000;stroke-linejoin:miter;"/>
   </g>
   <g id="patch_80">
    <path clip-path="url(#p12ffd2b259)" d="M 407.495739 467.076094 
L 417.641193 467.076094 
L 417.641193 298.137748 
L 407.495739 298.137748 
z
" style="fill:#ff0000;fill-opacity:0.5;stroke:#000000;stroke-linejoin:miter;"/>
   </g>
   <g id="patch_81">
    <path clip-path="url(#p12ffd2b259)" d="M 417.641193 467.076094 
L 427.786648 467.076094 
L 427.786648 385.331733 
L 417.641193 385.331733 
z
" style="fill:#ff0000;fill-opacity:0.5;stroke:#000000;stroke-linejoin:miter;"/>
   </g>
   <g id="patch_82">
    <path clip-path="url(#p12ffd2b259)" d="M 427.786648 467.076094 
L 437.932102 467.076094 
L 437.932102 374.432485 
L 427.786648 374.432485 
z
" style="fill:#ff0000;fill-opacity:0.5;stroke:#000000;stroke-linejoin:miter;"/>
   </g>
   <g id="patch_83">
    <path clip-path="url(#p12ffd2b259)" d="M 437.932102 467.076094 
L 448.077557 467.076094 
L 448.077557 379.882109 
L 437.932102 379.882109 
z
" style="fill:#ff0000;fill-opacity:0.5;stroke:#000000;stroke-linejoin:miter;"/>
   </g>
   <g id="patch_84">
    <path clip-path="url(#p12ffd2b259)" d="M 448.077557 467.076094 
L 458.223011 467.076094 
L 458.223011 390.781357 
L 448.077557 390.781357 
z
" style="fill:#ff0000;fill-opacity:0.5;stroke:#000000;stroke-linejoin:miter;"/>
   </g>
   <g id="patch_85">
    <path clip-path="url(#p12ffd2b259)" d="M 458.223011 467.076094 
L 468.368466 467.076094 
L 468.368466 379.882109 
L 458.223011 379.882109 
z
" style="fill:#ff0000;fill-opacity:0.5;stroke:#000000;stroke-linejoin:miter;"/>
   </g>
   <g id="patch_86">
    <path clip-path="url(#p12ffd2b259)" d="M 468.368466 467.076094 
L 478.51392 467.076094 
L 478.51392 385.331733 
L 468.368466 385.331733 
z
" style="fill:#ff0000;fill-opacity:0.5;stroke:#000000;stroke-linejoin:miter;"/>
   </g>
   <g id="patch_87">
    <path clip-path="url(#p12ffd2b259)" d="M 478.51392 467.076094 
L 488.659375 467.076094 
L 488.659375 379.882109 
L 478.51392 379.882109 
z
" style="fill:#ff0000;fill-opacity:0.5;stroke:#000000;stroke-linejoin:miter;"/>
   </g>
   <g id="patch_88">
    <path clip-path="url(#p12ffd2b259)" d="M 488.659375 467.076094 
L 498.80483 467.076094 
L 498.80483 401.680605 
L 488.659375 401.680605 
z
" style="fill:#ff0000;fill-opacity:0.5;stroke:#000000;stroke-linejoin:miter;"/>
   </g>
   <g id="patch_89">
    <path clip-path="url(#p12ffd2b259)" d="M 498.80483 467.076094 
L 508.950284 467.076094 
L 508.950284 412.579853 
L 498.80483 412.579853 
z
" style="fill:#ff0000;fill-opacity:0.5;stroke:#000000;stroke-linejoin:miter;"/>
   </g>
   <g id="patch_90">
    <path clip-path="url(#p12ffd2b259)" d="M 508.950284 467.076094 
L 519.095739 467.076094 
L 519.095739 439.827973 
L 508.950284 439.827973 
z
" style="fill:#ff0000;fill-opacity:0.5;stroke:#000000;stroke-linejoin:miter;"/>
   </g>
   <g id="patch_91">
    <path clip-path="url(#p12ffd2b259)" d="M 519.095739 467.076094 
L 529.241193 467.076094 
L 529.241193 439.827973 
L 519.095739 439.827973 
z
" style="fill:#ff0000;fill-opacity:0.5;stroke:#000000;stroke-linejoin:miter;"/>
   </g>
   <g id="patch_92">
    <path clip-path="url(#p12ffd2b259)" d="M 529.241193 467.076094 
L 539.386648 467.076094 
L 539.386648 461.62647 
L 529.241193 461.62647 
z
" style="fill:#ff0000;fill-opacity:0.5;stroke:#000000;stroke-linejoin:miter;"/>
   </g>
   <g id="patch_93">
    <path clip-path="url(#p12ffd2b259)" d="M 539.386648 467.076094 
L 549.532102 467.076094 
L 549.532102 450.727222 
L 539.386648 450.727222 
z
" style="fill:#ff0000;fill-opacity:0.5;stroke:#000000;stroke-linejoin:miter;"/>
   </g>
   <g id="patch_94">
    <path clip-path="url(#p12ffd2b259)" d="M 549.532102 467.076094 
L 559.677557 467.076094 
L 559.677557 434.378349 
L 549.532102 434.378349 
z
" style="fill:#ff0000;fill-opacity:0.5;stroke:#000000;stroke-linejoin:miter;"/>
   </g>
   <g id="patch_95">
    <path clip-path="url(#p12ffd2b259)" d="M 559.677557 467.076094 
L 569.823011 467.076094 
L 569.823011 428.928725 
L 559.677557 428.928725 
z
" style="fill:#ff0000;fill-opacity:0.5;stroke:#000000;stroke-linejoin:miter;"/>
   </g>
   <g id="patch_96">
    <path clip-path="url(#p12ffd2b259)" d="M 569.823011 467.076094 
L 579.968466 467.076094 
L 579.968466 467.076094 
L 569.823011 467.076094 
z
" style="fill:#ff0000;fill-opacity:0.5;stroke:#000000;stroke-linejoin:miter;"/>
   </g>
   <g id="patch_97">
    <path clip-path="url(#p12ffd2b259)" d="M 579.968466 467.076094 
L 590.11392 467.076094 
L 590.11392 467.076094 
L 579.968466 467.076094 
z
" style="fill:#ff0000;fill-opacity:0.5;stroke:#000000;stroke-linejoin:miter;"/>
   </g>
   <g id="patch_98">
    <path clip-path="url(#p12ffd2b259)" d="M 590.11392 467.076094 
L 600.259375 467.076094 
L 600.259375 467.076094 
L 590.11392 467.076094 
z
" style="fill:#ff0000;fill-opacity:0.5;stroke:#000000;stroke-linejoin:miter;"/>
   </g>
   <g id="patch_99">
    <path clip-path="url(#p12ffd2b259)" d="M 600.259375 467.076094 
L 610.40483 467.076094 
L 610.40483 467.076094 
L 600.259375 467.076094 
z
" style="fill:#ff0000;fill-opacity:0.5;stroke:#000000;stroke-linejoin:miter;"/>
   </g>
   <g id="patch_100">
    <path clip-path="url(#p12ffd2b259)" d="M 610.40483 467.076094 
L 620.550284 467.076094 
L 620.550284 450.727222 
L 610.40483 450.727222 
z
" style="fill:#ff0000;fill-opacity:0.5;stroke:#000000;stroke-linejoin:miter;"/>
   </g>
   <g id="patch_101">
    <path clip-path="url(#p12ffd2b259)" d="M 620.550284 467.076094 
L 630.695739 467.076094 
L 630.695739 461.62647 
L 620.550284 461.62647 
z
" style="fill:#ff0000;fill-opacity:0.5;stroke:#000000;stroke-linejoin:miter;"/>
   </g>
   <g id="matplotlib.axis_1">
    <g id="xtick_1">
     <g id="line2d_1">
      <defs>
       <path d="M 0 0 
L 0 3.5 
" id="m06b33ca224" style="stroke:#000000;stroke-width:0.8;"/>
      </defs>
      <g>
       <use style="stroke:#000000;stroke-width:0.8;" x="123.423011" xlink:href="#m06b33ca224" y="467.076094"/>
      </g>
     </g>
     <g id="text_1">
      <!-- 0.2 -->
      <g transform="translate(107.519886 489.272969)scale(0.2 -0.2)">
       <defs>
        <path d="M 2034 4250 
Q 1547 4250 1301 3770 
Q 1056 3291 1056 2328 
Q 1056 1369 1301 889 
Q 1547 409 2034 409 
Q 2525 409 2770 889 
Q 3016 1369 3016 2328 
Q 3016 3291 2770 3770 
Q 2525 4250 2034 4250 
z
M 2034 4750 
Q 2819 4750 3233 4129 
Q 3647 3509 3647 2328 
Q 3647 1150 3233 529 
Q 2819 -91 2034 -91 
Q 1250 -91 836 529 
Q 422 1150 422 2328 
Q 422 3509 836 4129 
Q 1250 4750 2034 4750 
z
" id="DejaVuSans-30" transform="scale(0.015625)"/>
        <path d="M 684 794 
L 1344 794 
L 1344 0 
L 684 0 
L 684 794 
z
" id="DejaVuSans-2e" transform="scale(0.015625)"/>
        <path d="M 1228 531 
L 3431 531 
L 3431 0 
L 469 0 
L 469 531 
Q 828 903 1448 1529 
Q 2069 2156 2228 2338 
Q 2531 2678 2651 2914 
Q 2772 3150 2772 3378 
Q 2772 3750 2511 3984 
Q 2250 4219 1831 4219 
Q 1534 4219 1204 4116 
Q 875 4013 500 3803 
L 500 4441 
Q 881 4594 1212 4672 
Q 1544 4750 1819 4750 
Q 2544 4750 2975 4387 
Q 3406 4025 3406 3419 
Q 3406 3131 3298 2873 
Q 3191 2616 2906 2266 
Q 2828 2175 2409 1742 
Q 1991 1309 1228 531 
z
" id="DejaVuSans-32" transform="scale(0.015625)"/>
       </defs>
       <use xlink:href="#DejaVuSans-30"/>
       <use x="63.623047" xlink:href="#DejaVuSans-2e"/>
       <use x="95.410156" xlink:href="#DejaVuSans-32"/>
      </g>
     </g>
    </g>
    <g id="xtick_2">
     <g id="line2d_2">
      <g>
       <use style="stroke:#000000;stroke-width:0.8;" x="224.877557" xlink:href="#m06b33ca224" y="467.076094"/>
      </g>
     </g>
     <g id="text_2">
      <!-- 0.4 -->
      <g transform="translate(208.974432 489.272969)scale(0.2 -0.2)">
       <defs>
        <path d="M 2419 4116 
L 825 1625 
L 2419 1625 
L 2419 4116 
z
M 2253 4666 
L 3047 4666 
L 3047 1625 
L 3713 1625 
L 3713 1100 
L 3047 1100 
L 3047 0 
L 2419 0 
L 2419 1100 
L 313 1100 
L 313 1709 
L 2253 4666 
z
" id="DejaVuSans-34" transform="scale(0.015625)"/>
       </defs>
       <use xlink:href="#DejaVuSans-30"/>
       <use x="63.623047" xlink:href="#DejaVuSans-2e"/>
       <use x="95.410156" xlink:href="#DejaVuSans-34"/>
      </g>
     </g>
    </g>
    <g id="xtick_3">
     <g id="line2d_3">
      <g>
       <use style="stroke:#000000;stroke-width:0.8;" x="326.332102" xlink:href="#m06b33ca224" y="467.076094"/>
      </g>
     </g>
     <g id="text_3">
      <!-- 0.6 -->
      <g transform="translate(310.428977 489.272969)scale(0.2 -0.2)">
       <defs>
        <path d="M 2113 2584 
Q 1688 2584 1439 2293 
Q 1191 2003 1191 1497 
Q 1191 994 1439 701 
Q 1688 409 2113 409 
Q 2538 409 2786 701 
Q 3034 994 3034 1497 
Q 3034 2003 2786 2293 
Q 2538 2584 2113 2584 
z
M 3366 4563 
L 3366 3988 
Q 3128 4100 2886 4159 
Q 2644 4219 2406 4219 
Q 1781 4219 1451 3797 
Q 1122 3375 1075 2522 
Q 1259 2794 1537 2939 
Q 1816 3084 2150 3084 
Q 2853 3084 3261 2657 
Q 3669 2231 3669 1497 
Q 3669 778 3244 343 
Q 2819 -91 2113 -91 
Q 1303 -91 875 529 
Q 447 1150 447 2328 
Q 447 3434 972 4092 
Q 1497 4750 2381 4750 
Q 2619 4750 2861 4703 
Q 3103 4656 3366 4563 
z
" id="DejaVuSans-36" transform="scale(0.015625)"/>
       </defs>
       <use xlink:href="#DejaVuSans-30"/>
       <use x="63.623047" xlink:href="#DejaVuSans-2e"/>
       <use x="95.410156" xlink:href="#DejaVuSans-36"/>
      </g>
     </g>
    </g>
    <g id="xtick_4">
     <g id="line2d_4">
      <g>
       <use style="stroke:#000000;stroke-width:0.8;" x="427.786648" xlink:href="#m06b33ca224" y="467.076094"/>
      </g>
     </g>
     <g id="text_4">
      <!-- 0.8 -->
      <g transform="translate(411.883523 489.272969)scale(0.2 -0.2)">
       <defs>
        <path d="M 2034 2216 
Q 1584 2216 1326 1975 
Q 1069 1734 1069 1313 
Q 1069 891 1326 650 
Q 1584 409 2034 409 
Q 2484 409 2743 651 
Q 3003 894 3003 1313 
Q 3003 1734 2745 1975 
Q 2488 2216 2034 2216 
z
M 1403 2484 
Q 997 2584 770 2862 
Q 544 3141 544 3541 
Q 544 4100 942 4425 
Q 1341 4750 2034 4750 
Q 2731 4750 3128 4425 
Q 3525 4100 3525 3541 
Q 3525 3141 3298 2862 
Q 3072 2584 2669 2484 
Q 3125 2378 3379 2068 
Q 3634 1759 3634 1313 
Q 3634 634 3220 271 
Q 2806 -91 2034 -91 
Q 1263 -91 848 271 
Q 434 634 434 1313 
Q 434 1759 690 2068 
Q 947 2378 1403 2484 
z
M 1172 3481 
Q 1172 3119 1398 2916 
Q 1625 2713 2034 2713 
Q 2441 2713 2670 2916 
Q 2900 3119 2900 3481 
Q 2900 3844 2670 4047 
Q 2441 4250 2034 4250 
Q 1625 4250 1398 4047 
Q 1172 3844 1172 3481 
z
" id="DejaVuSans-38" transform="scale(0.015625)"/>
       </defs>
       <use xlink:href="#DejaVuSans-30"/>
       <use x="63.623047" xlink:href="#DejaVuSans-2e"/>
       <use x="95.410156" xlink:href="#DejaVuSans-38"/>
      </g>
     </g>
    </g>
    <g id="xtick_5">
     <g id="line2d_5">
      <g>
       <use style="stroke:#000000;stroke-width:0.8;" x="529.241193" xlink:href="#m06b33ca224" y="467.076094"/>
      </g>
     </g>
     <g id="text_5">
      <!-- 1.0 -->
      <g transform="translate(513.338068 489.272969)scale(0.2 -0.2)">
       <defs>
        <path d="M 794 531 
L 1825 531 
L 1825 4091 
L 703 3866 
L 703 4441 
L 1819 4666 
L 2450 4666 
L 2450 531 
L 3481 531 
L 3481 0 
L 794 0 
L 794 531 
z
" id="DejaVuSans-31" transform="scale(0.015625)"/>
       </defs>
       <use xlink:href="#DejaVuSans-31"/>
       <use x="63.623047" xlink:href="#DejaVuSans-2e"/>
       <use x="95.410156" xlink:href="#DejaVuSans-30"/>
      </g>
     </g>
    </g>
    <g id="xtick_6">
     <g id="line2d_6">
      <g>
       <use style="stroke:#000000;stroke-width:0.8;" x="630.695739" xlink:href="#m06b33ca224" y="467.076094"/>
      </g>
     </g>
    </g>
    <g id="text_6">
     <!-- HS -->
     <g transform="translate(359.723437 516.428437)scale(0.25 -0.25)">
      <defs>
       <path d="M 628 4666 
L 1259 4666 
L 1259 2753 
L 3553 2753 
L 3553 4666 
L 4184 4666 
L 4184 0 
L 3553 0 
L 3553 2222 
L 1259 2222 
L 1259 0 
L 628 0 
L 628 4666 
z
" id="DejaVuSans-48" transform="scale(0.015625)"/>
       <path d="M 3425 4513 
L 3425 3897 
Q 3066 4069 2747 4153 
Q 2428 4238 2131 4238 
Q 1616 4238 1336 4038 
Q 1056 3838 1056 3469 
Q 1056 3159 1242 3001 
Q 1428 2844 1947 2747 
L 2328 2669 
Q 3034 2534 3370 2195 
Q 3706 1856 3706 1288 
Q 3706 609 3251 259 
Q 2797 -91 1919 -91 
Q 1588 -91 1214 -16 
Q 841 59 441 206 
L 441 856 
Q 825 641 1194 531 
Q 1563 422 1919 422 
Q 2459 422 2753 634 
Q 3047 847 3047 1241 
Q 3047 1584 2836 1778 
Q 2625 1972 2144 2069 
L 1759 2144 
Q 1053 2284 737 2584 
Q 422 2884 422 3419 
Q 422 4038 858 4394 
Q 1294 4750 2059 4750 
Q 2388 4750 2728 4690 
Q 3069 4631 3425 4513 
z
" id="DejaVuSans-53" transform="scale(0.015625)"/>
      </defs>
      <use xlink:href="#DejaVuSans-48"/>
      <use x="75.195312" xlink:href="#DejaVuSans-53"/>
     </g>
    </g>
   </g>
   <g id="matplotlib.axis_2">
    <g id="ytick_1">
     <g id="line2d_7">
      <defs>
       <path d="M 0 0 
L -3.5 0 
" id="m621e97dc60" style="stroke:#000000;stroke-width:0.8;"/>
      </defs>
      <g>
       <use style="stroke:#000000;stroke-width:0.8;" x="98.059375" xlink:href="#m621e97dc60" y="467.076094"/>
      </g>
     </g>
     <g id="text_7">
      <!-- 0.0 -->
      <g transform="translate(51.301563 476.574141)scale(0.25 -0.25)">
       <use xlink:href="#DejaVuSans-30"/>
       <use x="63.623047" xlink:href="#DejaVuSans-2e"/>
       <use x="95.410156" xlink:href="#DejaVuSans-30"/>
      </g>
     </g>
    </g>
    <g id="ytick_2">
     <g id="line2d_8">
      <g>
       <use style="stroke:#000000;stroke-width:0.8;" x="98.059375" xlink:href="#m621e97dc60" y="370.944725"/>
      </g>
     </g>
     <g id="text_8">
      <!-- 0.02 -->
      <g transform="translate(35.395313 380.442772)scale(0.25 -0.25)">
       <use xlink:href="#DejaVuSans-30"/>
       <use x="63.623047" xlink:href="#DejaVuSans-2e"/>
       <use x="95.410156" xlink:href="#DejaVuSans-30"/>
       <use x="159.033203" xlink:href="#DejaVuSans-32"/>
      </g>
     </g>
    </g>
    <g id="ytick_3">
     <g id="line2d_9">
      <g>
       <use style="stroke:#000000;stroke-width:0.8;" x="98.059375" xlink:href="#m621e97dc60" y="274.813357"/>
      </g>
     </g>
     <g id="text_9">
      <!-- 0.04 -->
      <g transform="translate(35.395313 284.311404)scale(0.25 -0.25)">
       <use xlink:href="#DejaVuSans-30"/>
       <use x="63.623047" xlink:href="#DejaVuSans-2e"/>
       <use x="95.410156" xlink:href="#DejaVuSans-30"/>
       <use x="159.033203" xlink:href="#DejaVuSans-34"/>
      </g>
     </g>
    </g>
    <g id="ytick_4">
     <g id="line2d_10">
      <g>
       <use style="stroke:#000000;stroke-width:0.8;" x="98.059375" xlink:href="#m621e97dc60" y="178.681988"/>
      </g>
     </g>
     <g id="text_10">
      <!-- 0.06 -->
      <g transform="translate(35.395313 188.180035)scale(0.25 -0.25)">
       <use xlink:href="#DejaVuSans-30"/>
       <use x="63.623047" xlink:href="#DejaVuSans-2e"/>
       <use x="95.410156" xlink:href="#DejaVuSans-30"/>
       <use x="159.033203" xlink:href="#DejaVuSans-36"/>
      </g>
     </g>
    </g>
    <g id="ytick_5">
     <g id="line2d_11">
      <g>
       <use style="stroke:#000000;stroke-width:0.8;" x="98.059375" xlink:href="#m621e97dc60" y="82.55062"/>
      </g>
     </g>
     <g id="text_11">
      <!-- 0.08 -->
      <g transform="translate(35.395313 92.048667)scale(0.25 -0.25)">
       <use xlink:href="#DejaVuSans-30"/>
       <use x="63.623047" xlink:href="#DejaVuSans-2e"/>
       <use x="95.410156" xlink:href="#DejaVuSans-30"/>
       <use x="159.033203" xlink:href="#DejaVuSans-38"/>
      </g>
     </g>
    </g>
    <g id="text_12">
     <!-- Probability -->
     <g transform="translate(26.196094 315.708359)rotate(-90)scale(0.25 -0.25)">
      <defs>
       <path d="M 1259 4147 
L 1259 2394 
L 2053 2394 
Q 2494 2394 2734 2622 
Q 2975 2850 2975 3272 
Q 2975 3691 2734 3919 
Q 2494 4147 2053 4147 
L 1259 4147 
z
M 628 4666 
L 2053 4666 
Q 2838 4666 3239 4311 
Q 3641 3956 3641 3272 
Q 3641 2581 3239 2228 
Q 2838 1875 2053 1875 
L 1259 1875 
L 1259 0 
L 628 0 
L 628 4666 
z
" id="DejaVuSans-50" transform="scale(0.015625)"/>
       <path d="M 2631 2963 
Q 2534 3019 2420 3045 
Q 2306 3072 2169 3072 
Q 1681 3072 1420 2755 
Q 1159 2438 1159 1844 
L 1159 0 
L 581 0 
L 581 3500 
L 1159 3500 
L 1159 2956 
Q 1341 3275 1631 3429 
Q 1922 3584 2338 3584 
Q 2397 3584 2469 3576 
Q 2541 3569 2628 3553 
L 2631 2963 
z
" id="DejaVuSans-72" transform="scale(0.015625)"/>
       <path d="M 1959 3097 
Q 1497 3097 1228 2736 
Q 959 2375 959 1747 
Q 959 1119 1226 758 
Q 1494 397 1959 397 
Q 2419 397 2687 759 
Q 2956 1122 2956 1747 
Q 2956 2369 2687 2733 
Q 2419 3097 1959 3097 
z
M 1959 3584 
Q 2709 3584 3137 3096 
Q 3566 2609 3566 1747 
Q 3566 888 3137 398 
Q 2709 -91 1959 -91 
Q 1206 -91 779 398 
Q 353 888 353 1747 
Q 353 2609 779 3096 
Q 1206 3584 1959 3584 
z
" id="DejaVuSans-6f" transform="scale(0.015625)"/>
       <path d="M 3116 1747 
Q 3116 2381 2855 2742 
Q 2594 3103 2138 3103 
Q 1681 3103 1420 2742 
Q 1159 2381 1159 1747 
Q 1159 1113 1420 752 
Q 1681 391 2138 391 
Q 2594 391 2855 752 
Q 3116 1113 3116 1747 
z
M 1159 2969 
Q 1341 3281 1617 3432 
Q 1894 3584 2278 3584 
Q 2916 3584 3314 3078 
Q 3713 2572 3713 1747 
Q 3713 922 3314 415 
Q 2916 -91 2278 -91 
Q 1894 -91 1617 61 
Q 1341 213 1159 525 
L 1159 0 
L 581 0 
L 581 4863 
L 1159 4863 
L 1159 2969 
z
" id="DejaVuSans-62" transform="scale(0.015625)"/>
       <path d="M 2194 1759 
Q 1497 1759 1228 1600 
Q 959 1441 959 1056 
Q 959 750 1161 570 
Q 1363 391 1709 391 
Q 2188 391 2477 730 
Q 2766 1069 2766 1631 
L 2766 1759 
L 2194 1759 
z
M 3341 1997 
L 3341 0 
L 2766 0 
L 2766 531 
Q 2569 213 2275 61 
Q 1981 -91 1556 -91 
Q 1019 -91 701 211 
Q 384 513 384 1019 
Q 384 1609 779 1909 
Q 1175 2209 1959 2209 
L 2766 2209 
L 2766 2266 
Q 2766 2663 2505 2880 
Q 2244 3097 1772 3097 
Q 1472 3097 1187 3025 
Q 903 2953 641 2809 
L 641 3341 
Q 956 3463 1253 3523 
Q 1550 3584 1831 3584 
Q 2591 3584 2966 3190 
Q 3341 2797 3341 1997 
z
" id="DejaVuSans-61" transform="scale(0.015625)"/>
       <path d="M 603 3500 
L 1178 3500 
L 1178 0 
L 603 0 
L 603 3500 
z
M 603 4863 
L 1178 4863 
L 1178 4134 
L 603 4134 
L 603 4863 
z
" id="DejaVuSans-69" transform="scale(0.015625)"/>
       <path d="M 603 4863 
L 1178 4863 
L 1178 0 
L 603 0 
L 603 4863 
z
" id="DejaVuSans-6c" transform="scale(0.015625)"/>
       <path d="M 1172 4494 
L 1172 3500 
L 2356 3500 
L 2356 3053 
L 1172 3053 
L 1172 1153 
Q 1172 725 1289 603 
Q 1406 481 1766 481 
L 2356 481 
L 2356 0 
L 1766 0 
Q 1100 0 847 248 
Q 594 497 594 1153 
L 594 3053 
L 172 3053 
L 172 3500 
L 594 3500 
L 594 4494 
L 1172 4494 
z
" id="DejaVuSans-74" transform="scale(0.015625)"/>
       <path d="M 2059 -325 
Q 1816 -950 1584 -1140 
Q 1353 -1331 966 -1331 
L 506 -1331 
L 506 -850 
L 844 -850 
Q 1081 -850 1212 -737 
Q 1344 -625 1503 -206 
L 1606 56 
L 191 3500 
L 800 3500 
L 1894 763 
L 2988 3500 
L 3597 3500 
L 2059 -325 
z
" id="DejaVuSans-79" transform="scale(0.015625)"/>
      </defs>
      <use xlink:href="#DejaVuSans-50"/>
      <use x="58.552734" xlink:href="#DejaVuSans-72"/>
      <use x="97.416016" xlink:href="#DejaVuSans-6f"/>
      <use x="158.597656" xlink:href="#DejaVuSans-62"/>
      <use x="222.074219" xlink:href="#DejaVuSans-61"/>
      <use x="283.353516" xlink:href="#DejaVuSans-62"/>
      <use x="346.830078" xlink:href="#DejaVuSans-69"/>
      <use x="374.613281" xlink:href="#DejaVuSans-6c"/>
      <use x="402.396484" xlink:href="#DejaVuSans-69"/>
      <use x="430.179688" xlink:href="#DejaVuSans-74"/>
      <use x="469.388672" xlink:href="#DejaVuSans-79"/>
     </g>
    </g>
   </g>
   <g id="line2d_12">
    <path clip-path="url(#p12ffd2b259)" d="M 377.059375 467.076094 
L 377.059375 32.196094 
" style="fill:none;stroke:#0000ff;stroke-dasharray:5.55,2.4;stroke-dashoffset:0;stroke-width:1.5;"/>
   </g>
   <g id="line2d_13">
    <path clip-path="url(#p12ffd2b259)" d="M 123.423011 457.235063 
L 128.52123 455.002494 
L 136.168557 451.385054 
L 148.914103 445.288118 
L 156.561431 441.955848 
L 164.208758 438.97114 
L 174.405195 435.358563 
L 184.601632 431.722543 
L 189.69985 429.7256 
L 194.798068 427.519668 
L 199.896287 425.037198 
L 204.994505 422.210642 
L 210.092724 418.977008 
L 215.190942 415.28627 
L 220.28916 411.111026 
L 225.387379 406.453524 
L 230.485597 401.346791 
L 235.583815 395.848829 
L 240.682034 390.031585 
L 248.329361 380.865626 
L 258.525798 368.134349 
L 281.467781 339.193709 
L 286.565999 333.128455 
L 291.664217 327.371949 
L 296.762436 321.999337 
L 301.860654 317.063806 
L 306.958872 312.587926 
L 312.057091 308.559949 
L 317.155309 304.935799 
L 322.253528 301.645981 
L 327.351746 298.605457 
L 334.999073 294.315997 
L 347.744619 287.245383 
L 357.941056 281.284172 
L 368.137493 275.313017 
L 373.235711 272.630683 
L 375.78482 271.448128 
L 378.33393 270.407874 
L 380.883039 269.537723 
L 383.432148 268.864463 
L 385.981257 268.412703 
L 388.530366 268.203735 
L 391.079476 268.254492 
L 393.628585 268.576673 
L 396.177694 269.176092 
L 398.726803 270.052289 
L 401.275912 271.198439 
L 403.825021 272.601554 
L 406.374131 274.242954 
L 408.92324 276.098998 
L 411.472349 278.141985 
L 416.570567 282.664012 
L 424.217895 290.042069 
L 431.865222 297.394583 
L 436.963441 301.962681 
L 442.061659 306.13649 
L 447.159878 309.896892 
L 452.258096 313.311268 
L 465.003642 321.496494 
L 467.552751 323.321605 
L 470.10186 325.288277 
L 472.650969 327.427347 
L 475.200079 329.765596 
L 477.749188 332.324485 
L 480.298297 335.119136 
L 482.847406 338.157603 
L 485.396515 341.440498 
L 487.945624 344.960979 
L 490.494734 348.705101 
L 495.592952 356.77726 
L 500.69117 365.435091 
L 515.985825 392.208926 
L 521.084044 400.582123 
L 526.182262 408.395549 
L 531.280481 415.57018 
L 536.378699 422.080965 
L 541.476917 427.944343 
L 546.575136 433.203854 
L 551.673354 437.915959 
L 556.771572 442.137735 
L 561.869791 445.917819 
L 566.968009 449.291572 
L 572.066227 452.280746 
L 577.164446 454.897063 
L 582.262664 457.148214 
L 587.360883 459.044343 
L 592.459101 460.60316 
L 597.557319 461.852495 
L 602.655538 462.829979 
L 607.753756 463.58036 
L 615.401084 464.384383 
L 623.048411 464.936153 
L 630.695739 465.354585 
L 630.695739 465.354585 
" style="fill:none;stroke:#0000ff;stroke-linecap:square;stroke-width:1.5;"/>
   </g>
   <g id="line2d_14">
    <path clip-path="url(#p12ffd2b259)" d="M 321.259375 467.076094 
L 321.259375 32.196094 
" style="fill:none;stroke:#ff0000;stroke-dasharray:5.55,2.4;stroke-dashoffset:0;stroke-width:1.5;"/>
   </g>
   <g id="line2d_15">
    <path clip-path="url(#p12ffd2b259)" d="M 123.423011 465.994991 
L 133.619448 466.076721 
L 148.914103 466.247328 
L 156.561431 466.069258 
L 161.659649 465.745269 
L 166.757867 465.190463 
L 171.856086 464.331137 
L 174.405195 463.757866 
L 176.954304 463.069353 
L 179.503413 462.248156 
L 182.052523 461.27436 
L 184.601632 460.125498 
L 187.150741 458.776571 
L 189.69985 457.200208 
L 192.248959 455.366973 
L 194.798068 453.24583 
L 197.347178 450.804771 
L 199.896287 448.011576 
L 202.445396 444.834696 
L 204.994505 441.244195 
L 207.543614 437.212695 
L 210.092724 432.716266 
L 212.641833 427.735176 
L 215.190942 422.254459 
L 217.740051 416.264248 
L 220.28916 409.759863 
L 222.838269 402.741668 
L 225.387379 395.214762 
L 227.936488 387.188573 
L 230.485597 378.676479 
L 233.034706 369.69556 
L 238.132925 350.41437 
L 243.231143 329.563881 
L 248.329361 307.456645 
L 266.173126 228.189065 
L 268.722235 217.957915 
L 271.271344 208.355245 
L 273.820453 199.497434 
L 276.369562 191.490696 
L 278.918671 184.426836 
L 281.467781 178.3796 
L 284.01689 173.401938 
L 286.565999 169.524387 
L 289.115108 166.754722 
L 291.664217 165.078892 
L 294.213327 164.463119 
L 296.762436 164.856968 
L 299.311545 166.197053 
L 301.860654 168.41103 
L 304.409763 171.421489 
L 306.958872 175.149409 
L 309.507982 179.516889 
L 312.057091 184.449009 
L 314.6062 189.874754 
L 317.155309 195.727098 
L 319.704418 201.942407 
L 324.802637 215.218165 
L 332.449964 236.343713 
L 340.097292 257.465532 
L 345.19551 270.76225 
L 347.744619 277.022381 
L 350.293729 282.969867 
L 352.842838 288.573733 
L 355.391947 293.810961 
L 357.941056 298.666439 
L 360.490165 303.13261 
L 363.039274 307.208953 
L 365.588384 310.901373 
L 368.137493 314.221619 
L 370.686602 317.186785 
L 373.235711 319.818938 
L 375.78482 322.144843 
L 378.33393 324.195761 
L 380.883039 326.007219 
L 383.432148 327.618673 
L 388.530366 330.415496 
L 398.726803 335.594387 
L 401.275912 337.05421 
L 403.825021 338.647624 
L 406.374131 340.394955 
L 408.92324 342.306977 
L 411.472349 344.384519 
L 416.570567 348.991706 
L 421.668786 354.04744 
L 431.865222 364.445932 
L 436.963441 369.257087 
L 442.061659 373.554751 
L 444.610768 375.482872 
L 447.159878 377.260772 
L 449.708987 378.893157 
L 454.807205 381.765353 
L 459.905423 384.230957 
L 472.650969 389.947972 
L 477.749188 392.671147 
L 480.298297 394.235245 
L 482.847406 395.960806 
L 485.396515 397.860686 
L 487.945624 399.941014 
L 490.494734 402.200524 
L 495.592952 407.213294 
L 500.69117 412.736792 
L 510.887607 424.198063 
L 515.985825 429.478693 
L 518.534935 431.874054 
L 521.084044 434.068702 
L 523.633153 436.043828 
L 526.182262 437.789087 
L 528.731371 439.30303 
L 531.280481 440.593129 
L 533.82959 441.675368 
L 536.378699 442.57342 
L 538.927808 443.31741 
L 544.026026 444.486222 
L 554.222463 446.599213 
L 559.320682 448.030812 
L 564.4189 449.859293 
L 569.517118 452.029666 
L 582.262664 457.748173 
L 587.360883 459.597399 
L 589.909992 460.351472 
L 592.459101 460.982716 
L 595.00821 461.49197 
L 600.106428 462.175278 
L 605.204647 462.504811 
L 612.851974 462.653466 
L 620.499302 462.797922 
L 628.146629 463.215175 
L 630.695739 463.425501 
L 630.695739 463.425501 
" style="fill:none;stroke:#ff0000;stroke-linecap:square;stroke-width:1.5;"/>
   </g>
   <g id="patch_102">
    <path d="M 98.059375 467.076094 
L 98.059375 32.196094 
" style="fill:none;stroke:#000000;stroke-linecap:square;stroke-linejoin:miter;stroke-width:0.8;"/>
   </g>
   <g id="patch_103">
    <path d="M 656.059375 467.076094 
L 656.059375 32.196094 
" style="fill:none;stroke:#000000;stroke-linecap:square;stroke-linejoin:miter;stroke-width:0.8;"/>
   </g>
   <g id="patch_104">
    <path d="M 98.059375 467.076094 
L 656.059375 467.076094 
" style="fill:none;stroke:#000000;stroke-linecap:square;stroke-linejoin:miter;stroke-width:0.8;"/>
   </g>
   <g id="patch_105">
    <path d="M 98.059375 32.196094 
L 656.059375 32.196094 
" style="fill:none;stroke:#000000;stroke-linecap:square;stroke-linejoin:miter;stroke-width:0.8;"/>
   </g>
   <g id="text_13">
    <!-- Histogram of HS for simmetry p4 -->
    <g transform="translate(170.426562 26.196094)scale(0.25 -0.25)">
     <defs>
      <path d="M 2834 3397 
L 2834 2853 
Q 2591 2978 2328 3040 
Q 2066 3103 1784 3103 
Q 1356 3103 1142 2972 
Q 928 2841 928 2578 
Q 928 2378 1081 2264 
Q 1234 2150 1697 2047 
L 1894 2003 
Q 2506 1872 2764 1633 
Q 3022 1394 3022 966 
Q 3022 478 2636 193 
Q 2250 -91 1575 -91 
Q 1294 -91 989 -36 
Q 684 19 347 128 
L 347 722 
Q 666 556 975 473 
Q 1284 391 1588 391 
Q 1994 391 2212 530 
Q 2431 669 2431 922 
Q 2431 1156 2273 1281 
Q 2116 1406 1581 1522 
L 1381 1569 
Q 847 1681 609 1914 
Q 372 2147 372 2553 
Q 372 3047 722 3315 
Q 1072 3584 1716 3584 
Q 2034 3584 2315 3537 
Q 2597 3491 2834 3397 
z
" id="DejaVuSans-73" transform="scale(0.015625)"/>
      <path d="M 2906 1791 
Q 2906 2416 2648 2759 
Q 2391 3103 1925 3103 
Q 1463 3103 1205 2759 
Q 947 2416 947 1791 
Q 947 1169 1205 825 
Q 1463 481 1925 481 
Q 2391 481 2648 825 
Q 2906 1169 2906 1791 
z
M 3481 434 
Q 3481 -459 3084 -895 
Q 2688 -1331 1869 -1331 
Q 1566 -1331 1297 -1286 
Q 1028 -1241 775 -1147 
L 775 -588 
Q 1028 -725 1275 -790 
Q 1522 -856 1778 -856 
Q 2344 -856 2625 -561 
Q 2906 -266 2906 331 
L 2906 616 
Q 2728 306 2450 153 
Q 2172 0 1784 0 
Q 1141 0 747 490 
Q 353 981 353 1791 
Q 353 2603 747 3093 
Q 1141 3584 1784 3584 
Q 2172 3584 2450 3431 
Q 2728 3278 2906 2969 
L 2906 3500 
L 3481 3500 
L 3481 434 
z
" id="DejaVuSans-67" transform="scale(0.015625)"/>
      <path d="M 3328 2828 
Q 3544 3216 3844 3400 
Q 4144 3584 4550 3584 
Q 5097 3584 5394 3201 
Q 5691 2819 5691 2113 
L 5691 0 
L 5113 0 
L 5113 2094 
Q 5113 2597 4934 2840 
Q 4756 3084 4391 3084 
Q 3944 3084 3684 2787 
Q 3425 2491 3425 1978 
L 3425 0 
L 2847 0 
L 2847 2094 
Q 2847 2600 2669 2842 
Q 2491 3084 2119 3084 
Q 1678 3084 1418 2786 
Q 1159 2488 1159 1978 
L 1159 0 
L 581 0 
L 581 3500 
L 1159 3500 
L 1159 2956 
Q 1356 3278 1631 3431 
Q 1906 3584 2284 3584 
Q 2666 3584 2933 3390 
Q 3200 3197 3328 2828 
z
" id="DejaVuSans-6d" transform="scale(0.015625)"/>
      <path id="DejaVuSans-20" transform="scale(0.015625)"/>
      <path d="M 2375 4863 
L 2375 4384 
L 1825 4384 
Q 1516 4384 1395 4259 
Q 1275 4134 1275 3809 
L 1275 3500 
L 2222 3500 
L 2222 3053 
L 1275 3053 
L 1275 0 
L 697 0 
L 697 3053 
L 147 3053 
L 147 3500 
L 697 3500 
L 697 3744 
Q 697 4328 969 4595 
Q 1241 4863 1831 4863 
L 2375 4863 
z
" id="DejaVuSans-66" transform="scale(0.015625)"/>
      <path d="M 3597 1894 
L 3597 1613 
L 953 1613 
Q 991 1019 1311 708 
Q 1631 397 2203 397 
Q 2534 397 2845 478 
Q 3156 559 3463 722 
L 3463 178 
Q 3153 47 2828 -22 
Q 2503 -91 2169 -91 
Q 1331 -91 842 396 
Q 353 884 353 1716 
Q 353 2575 817 3079 
Q 1281 3584 2069 3584 
Q 2775 3584 3186 3129 
Q 3597 2675 3597 1894 
z
M 3022 2063 
Q 3016 2534 2758 2815 
Q 2500 3097 2075 3097 
Q 1594 3097 1305 2825 
Q 1016 2553 972 2059 
L 3022 2063 
z
" id="DejaVuSans-65" transform="scale(0.015625)"/>
      <path d="M 1159 525 
L 1159 -1331 
L 581 -1331 
L 581 3500 
L 1159 3500 
L 1159 2969 
Q 1341 3281 1617 3432 
Q 1894 3584 2278 3584 
Q 2916 3584 3314 3078 
Q 3713 2572 3713 1747 
Q 3713 922 3314 415 
Q 2916 -91 2278 -91 
Q 1894 -91 1617 61 
Q 1341 213 1159 525 
z
M 3116 1747 
Q 3116 2381 2855 2742 
Q 2594 3103 2138 3103 
Q 1681 3103 1420 2742 
Q 1159 2381 1159 1747 
Q 1159 1113 1420 752 
Q 1681 391 2138 391 
Q 2594 391 2855 752 
Q 3116 1113 3116 1747 
z
" id="DejaVuSans-70" transform="scale(0.015625)"/>
     </defs>
     <use xlink:href="#DejaVuSans-48"/>
     <use x="75.195312" xlink:href="#DejaVuSans-69"/>
     <use x="102.978516" xlink:href="#DejaVuSans-73"/>
     <use x="155.078125" xlink:href="#DejaVuSans-74"/>
     <use x="194.287109" xlink:href="#DejaVuSans-6f"/>
     <use x="255.46875" xlink:href="#DejaVuSans-67"/>
     <use x="318.945312" xlink:href="#DejaVuSans-72"/>
     <use x="360.058594" xlink:href="#DejaVuSans-61"/>
     <use x="421.337891" xlink:href="#DejaVuSans-6d"/>
     <use x="518.75" xlink:href="#DejaVuSans-20"/>
     <use x="550.537109" xlink:href="#DejaVuSans-6f"/>
     <use x="611.71875" xlink:href="#DejaVuSans-66"/>
     <use x="646.923828" xlink:href="#DejaVuSans-20"/>
     <use x="678.710938" xlink:href="#DejaVuSans-48"/>
     <use x="753.90625" xlink:href="#DejaVuSans-53"/>
     <use x="817.382812" xlink:href="#DejaVuSans-20"/>
     <use x="849.169922" xlink:href="#DejaVuSans-66"/>
     <use x="884.375" xlink:href="#DejaVuSans-6f"/>
     <use x="945.556641" xlink:href="#DejaVuSans-72"/>
     <use x="986.669922" xlink:href="#DejaVuSans-20"/>
     <use x="1018.457031" xlink:href="#DejaVuSans-73"/>
     <use x="1070.556641" xlink:href="#DejaVuSans-69"/>
     <use x="1098.339844" xlink:href="#DejaVuSans-6d"/>
     <use x="1195.751953" xlink:href="#DejaVuSans-6d"/>
     <use x="1293.164062" xlink:href="#DejaVuSans-65"/>
     <use x="1354.6875" xlink:href="#DejaVuSans-74"/>
     <use x="1393.896484" xlink:href="#DejaVuSans-72"/>
     <use x="1435.009766" xlink:href="#DejaVuSans-79"/>
     <use x="1494.189453" xlink:href="#DejaVuSans-20"/>
     <use x="1525.976562" xlink:href="#DejaVuSans-70"/>
     <use x="1589.453125" xlink:href="#DejaVuSans-34"/>
    </g>
   </g>
   <g id="legend_1">
    <g id="patch_106">
     <path d="M 365.958438 143.878594 
L 645.559375 143.878594 
Q 648.559375 143.878594 648.559375 140.878594 
L 648.559375 42.696094 
Q 648.559375 39.696094 645.559375 39.696094 
L 365.958438 39.696094 
Q 362.958438 39.696094 362.958438 42.696094 
L 362.958438 140.878594 
Q 362.958438 143.878594 365.958438 143.878594 
z
" style="fill:#ffffff;opacity:0.8;stroke:#cccccc;stroke-linejoin:miter;"/>
    </g>
    <g id="line2d_16">
     <path d="M 368.958438 54.123281 
L 398.958438 54.123281 
" style="fill:none;stroke:#0000ff;stroke-dasharray:5.55,2.4;stroke-dashoffset:0;stroke-width:1.5;"/>
    </g>
    <g id="line2d_17"/>
    <g id="text_14">
     <!-- Median score RTGA = 0.5 -->
     <g transform="translate(410.958438 59.373281)scale(0.18 -0.18)">
      <defs>
       <path d="M 628 4666 
L 1569 4666 
L 2759 1491 
L 3956 4666 
L 4897 4666 
L 4897 0 
L 4281 0 
L 4281 4097 
L 3078 897 
L 2444 897 
L 1241 4097 
L 1241 0 
L 628 0 
L 628 4666 
z
" id="DejaVuSans-4d" transform="scale(0.015625)"/>
       <path d="M 2906 2969 
L 2906 4863 
L 3481 4863 
L 3481 0 
L 2906 0 
L 2906 525 
Q 2725 213 2448 61 
Q 2172 -91 1784 -91 
Q 1150 -91 751 415 
Q 353 922 353 1747 
Q 353 2572 751 3078 
Q 1150 3584 1784 3584 
Q 2172 3584 2448 3432 
Q 2725 3281 2906 2969 
z
M 947 1747 
Q 947 1113 1208 752 
Q 1469 391 1925 391 
Q 2381 391 2643 752 
Q 2906 1113 2906 1747 
Q 2906 2381 2643 2742 
Q 2381 3103 1925 3103 
Q 1469 3103 1208 2742 
Q 947 2381 947 1747 
z
" id="DejaVuSans-64" transform="scale(0.015625)"/>
       <path d="M 3513 2113 
L 3513 0 
L 2938 0 
L 2938 2094 
Q 2938 2591 2744 2837 
Q 2550 3084 2163 3084 
Q 1697 3084 1428 2787 
Q 1159 2491 1159 1978 
L 1159 0 
L 581 0 
L 581 3500 
L 1159 3500 
L 1159 2956 
Q 1366 3272 1645 3428 
Q 1925 3584 2291 3584 
Q 2894 3584 3203 3211 
Q 3513 2838 3513 2113 
z
" id="DejaVuSans-6e" transform="scale(0.015625)"/>
       <path d="M 3122 3366 
L 3122 2828 
Q 2878 2963 2633 3030 
Q 2388 3097 2138 3097 
Q 1578 3097 1268 2742 
Q 959 2388 959 1747 
Q 959 1106 1268 751 
Q 1578 397 2138 397 
Q 2388 397 2633 464 
Q 2878 531 3122 666 
L 3122 134 
Q 2881 22 2623 -34 
Q 2366 -91 2075 -91 
Q 1284 -91 818 406 
Q 353 903 353 1747 
Q 353 2603 823 3093 
Q 1294 3584 2113 3584 
Q 2378 3584 2631 3529 
Q 2884 3475 3122 3366 
z
" id="DejaVuSans-63" transform="scale(0.015625)"/>
       <path d="M 2841 2188 
Q 3044 2119 3236 1894 
Q 3428 1669 3622 1275 
L 4263 0 
L 3584 0 
L 2988 1197 
Q 2756 1666 2539 1819 
Q 2322 1972 1947 1972 
L 1259 1972 
L 1259 0 
L 628 0 
L 628 4666 
L 2053 4666 
Q 2853 4666 3247 4331 
Q 3641 3997 3641 3322 
Q 3641 2881 3436 2590 
Q 3231 2300 2841 2188 
z
M 1259 4147 
L 1259 2491 
L 2053 2491 
Q 2509 2491 2742 2702 
Q 2975 2913 2975 3322 
Q 2975 3731 2742 3939 
Q 2509 4147 2053 4147 
L 1259 4147 
z
" id="DejaVuSans-52" transform="scale(0.015625)"/>
       <path d="M -19 4666 
L 3928 4666 
L 3928 4134 
L 2272 4134 
L 2272 0 
L 1638 0 
L 1638 4134 
L -19 4134 
L -19 4666 
z
" id="DejaVuSans-54" transform="scale(0.015625)"/>
       <path d="M 3809 666 
L 3809 1919 
L 2778 1919 
L 2778 2438 
L 4434 2438 
L 4434 434 
Q 4069 175 3628 42 
Q 3188 -91 2688 -91 
Q 1594 -91 976 548 
Q 359 1188 359 2328 
Q 359 3472 976 4111 
Q 1594 4750 2688 4750 
Q 3144 4750 3555 4637 
Q 3966 4525 4313 4306 
L 4313 3634 
Q 3963 3931 3569 4081 
Q 3175 4231 2741 4231 
Q 1884 4231 1454 3753 
Q 1025 3275 1025 2328 
Q 1025 1384 1454 906 
Q 1884 428 2741 428 
Q 3075 428 3337 486 
Q 3600 544 3809 666 
z
" id="DejaVuSans-47" transform="scale(0.015625)"/>
       <path d="M 2188 4044 
L 1331 1722 
L 3047 1722 
L 2188 4044 
z
M 1831 4666 
L 2547 4666 
L 4325 0 
L 3669 0 
L 3244 1197 
L 1141 1197 
L 716 0 
L 50 0 
L 1831 4666 
z
" id="DejaVuSans-41" transform="scale(0.015625)"/>
       <path d="M 678 2906 
L 4684 2906 
L 4684 2381 
L 678 2381 
L 678 2906 
z
M 678 1631 
L 4684 1631 
L 4684 1100 
L 678 1100 
L 678 1631 
z
" id="DejaVuSans-3d" transform="scale(0.015625)"/>
       <path d="M 691 4666 
L 3169 4666 
L 3169 4134 
L 1269 4134 
L 1269 2991 
Q 1406 3038 1543 3061 
Q 1681 3084 1819 3084 
Q 2600 3084 3056 2656 
Q 3513 2228 3513 1497 
Q 3513 744 3044 326 
Q 2575 -91 1722 -91 
Q 1428 -91 1123 -41 
Q 819 9 494 109 
L 494 744 
Q 775 591 1075 516 
Q 1375 441 1709 441 
Q 2250 441 2565 725 
Q 2881 1009 2881 1497 
Q 2881 1984 2565 2268 
Q 2250 2553 1709 2553 
Q 1456 2553 1204 2497 
Q 953 2441 691 2322 
L 691 4666 
z
" id="DejaVuSans-35" transform="scale(0.015625)"/>
      </defs>
      <use xlink:href="#DejaVuSans-4d"/>
      <use x="86.279297" xlink:href="#DejaVuSans-65"/>
      <use x="147.802734" xlink:href="#DejaVuSans-64"/>
      <use x="211.279297" xlink:href="#DejaVuSans-69"/>
      <use x="239.0625" xlink:href="#DejaVuSans-61"/>
      <use x="300.341797" xlink:href="#DejaVuSans-6e"/>
      <use x="363.720703" xlink:href="#DejaVuSans-20"/>
      <use x="395.507812" xlink:href="#DejaVuSans-73"/>
      <use x="447.607422" xlink:href="#DejaVuSans-63"/>
      <use x="502.587891" xlink:href="#DejaVuSans-6f"/>
      <use x="563.769531" xlink:href="#DejaVuSans-72"/>
      <use x="602.632812" xlink:href="#DejaVuSans-65"/>
      <use x="664.15625" xlink:href="#DejaVuSans-20"/>
      <use x="695.943359" xlink:href="#DejaVuSans-52"/>
      <use x="758.175781" xlink:href="#DejaVuSans-54"/>
      <use x="819.259766" xlink:href="#DejaVuSans-47"/>
      <use x="896.75" xlink:href="#DejaVuSans-41"/>
      <use x="965.158203" xlink:href="#DejaVuSans-20"/>
      <use x="996.945312" xlink:href="#DejaVuSans-3d"/>
      <use x="1080.734375" xlink:href="#DejaVuSans-20"/>
      <use x="1112.521484" xlink:href="#DejaVuSans-30"/>
      <use x="1176.144531" xlink:href="#DejaVuSans-2e"/>
      <use x="1207.931641" xlink:href="#DejaVuSans-35"/>
     </g>
    </g>
    <g id="line2d_18">
     <path d="M 368.958438 79.043906 
L 398.958438 79.043906 
" style="fill:none;stroke:#0000ff;stroke-linecap:square;stroke-width:1.5;"/>
    </g>
    <g id="line2d_19"/>
    <g id="text_15">
     <!-- RTGA -->
     <g transform="translate(410.958438 84.293906)scale(0.18 -0.18)">
      <use xlink:href="#DejaVuSans-52"/>
      <use x="62.232422" xlink:href="#DejaVuSans-54"/>
      <use x="123.316406" xlink:href="#DejaVuSans-47"/>
      <use x="200.806641" xlink:href="#DejaVuSans-41"/>
     </g>
    </g>
    <g id="line2d_20">
     <path d="M 368.958438 103.964531 
L 398.958438 103.964531 
" style="fill:none;stroke:#ff0000;stroke-dasharray:5.55,2.4;stroke-dashoffset:0;stroke-width:1.5;"/>
    </g>
    <g id="line2d_21"/>
    <g id="text_16">
     <!-- Median score GAN = 0.39 -->
     <g transform="translate(410.958438 109.214531)scale(0.18 -0.18)">
      <defs>
       <path d="M 628 4666 
L 1478 4666 
L 3547 763 
L 3547 4666 
L 4159 4666 
L 4159 0 
L 3309 0 
L 1241 3903 
L 1241 0 
L 628 0 
L 628 4666 
z
" id="DejaVuSans-4e" transform="scale(0.015625)"/>
       <path d="M 2597 2516 
Q 3050 2419 3304 2112 
Q 3559 1806 3559 1356 
Q 3559 666 3084 287 
Q 2609 -91 1734 -91 
Q 1441 -91 1130 -33 
Q 819 25 488 141 
L 488 750 
Q 750 597 1062 519 
Q 1375 441 1716 441 
Q 2309 441 2620 675 
Q 2931 909 2931 1356 
Q 2931 1769 2642 2001 
Q 2353 2234 1838 2234 
L 1294 2234 
L 1294 2753 
L 1863 2753 
Q 2328 2753 2575 2939 
Q 2822 3125 2822 3475 
Q 2822 3834 2567 4026 
Q 2313 4219 1838 4219 
Q 1578 4219 1281 4162 
Q 984 4106 628 3988 
L 628 4550 
Q 988 4650 1302 4700 
Q 1616 4750 1894 4750 
Q 2613 4750 3031 4423 
Q 3450 4097 3450 3541 
Q 3450 3153 3228 2886 
Q 3006 2619 2597 2516 
z
" id="DejaVuSans-33" transform="scale(0.015625)"/>
       <path d="M 703 97 
L 703 672 
Q 941 559 1184 500 
Q 1428 441 1663 441 
Q 2288 441 2617 861 
Q 2947 1281 2994 2138 
Q 2813 1869 2534 1725 
Q 2256 1581 1919 1581 
Q 1219 1581 811 2004 
Q 403 2428 403 3163 
Q 403 3881 828 4315 
Q 1253 4750 1959 4750 
Q 2769 4750 3195 4129 
Q 3622 3509 3622 2328 
Q 3622 1225 3098 567 
Q 2575 -91 1691 -91 
Q 1453 -91 1209 -44 
Q 966 3 703 97 
z
M 1959 2075 
Q 2384 2075 2632 2365 
Q 2881 2656 2881 3163 
Q 2881 3666 2632 3958 
Q 2384 4250 1959 4250 
Q 1534 4250 1286 3958 
Q 1038 3666 1038 3163 
Q 1038 2656 1286 2365 
Q 1534 2075 1959 2075 
z
" id="DejaVuSans-39" transform="scale(0.015625)"/>
      </defs>
      <use xlink:href="#DejaVuSans-4d"/>
      <use x="86.279297" xlink:href="#DejaVuSans-65"/>
      <use x="147.802734" xlink:href="#DejaVuSans-64"/>
      <use x="211.279297" xlink:href="#DejaVuSans-69"/>
      <use x="239.0625" xlink:href="#DejaVuSans-61"/>
      <use x="300.341797" xlink:href="#DejaVuSans-6e"/>
      <use x="363.720703" xlink:href="#DejaVuSans-20"/>
      <use x="395.507812" xlink:href="#DejaVuSans-73"/>
      <use x="447.607422" xlink:href="#DejaVuSans-63"/>
      <use x="502.587891" xlink:href="#DejaVuSans-6f"/>
      <use x="563.769531" xlink:href="#DejaVuSans-72"/>
      <use x="602.632812" xlink:href="#DejaVuSans-65"/>
      <use x="664.15625" xlink:href="#DejaVuSans-20"/>
      <use x="695.943359" xlink:href="#DejaVuSans-47"/>
      <use x="773.433594" xlink:href="#DejaVuSans-41"/>
      <use x="841.841797" xlink:href="#DejaVuSans-4e"/>
      <use x="916.646484" xlink:href="#DejaVuSans-20"/>
      <use x="948.433594" xlink:href="#DejaVuSans-3d"/>
      <use x="1032.222656" xlink:href="#DejaVuSans-20"/>
      <use x="1064.009766" xlink:href="#DejaVuSans-30"/>
      <use x="1127.632812" xlink:href="#DejaVuSans-2e"/>
      <use x="1159.419922" xlink:href="#DejaVuSans-33"/>
      <use x="1223.042969" xlink:href="#DejaVuSans-39"/>
     </g>
    </g>
    <g id="line2d_22">
     <path d="M 368.958438 128.885156 
L 398.958438 128.885156 
" style="fill:none;stroke:#ff0000;stroke-linecap:square;stroke-width:1.5;"/>
    </g>
    <g id="line2d_23"/>
    <g id="text_17">
     <!-- GAN -->
     <g transform="translate(410.958438 134.135156)scale(0.18 -0.18)">
      <use xlink:href="#DejaVuSans-47"/>
      <use x="77.490234" xlink:href="#DejaVuSans-41"/>
      <use x="145.898438" xlink:href="#DejaVuSans-4e"/>
     </g>
    </g>
   </g>
  </g>
 </g>
 <defs>
  <clipPath id="p12ffd2b259">
   <rect height="434.88" width="558" x="98.059375" y="32.196094"/>
  </clipPath>
 </defs>
</svg>
